<mxfile host="app.diagrams.net" modified="2023-04-24T14:05:56.535Z" agent="Mozilla/5.0 (Windows NT 10.0; Win64; x64) AppleWebKit/537.36 (KHTML, like Gecko) Chrome/112.0.0.0 Safari/537.36" etag="RLTaqcw2ReQRiTBSGZAQ" version="21.1.2" type="device">
  <diagram id="C5RBs43oDa-KdzZeNtuy" name="Page-1">
    <mxGraphModel dx="1976" dy="478" grid="1" gridSize="10" guides="1" tooltips="1" connect="1" arrows="1" fold="1" page="1" pageScale="1" pageWidth="827" pageHeight="1169" math="0" shadow="0">
      <root>
        <mxCell id="WIyWlLk6GJQsqaUBKTNV-0" />
        <mxCell id="WIyWlLk6GJQsqaUBKTNV-1" parent="WIyWlLk6GJQsqaUBKTNV-0" />
        <mxCell id="4aZ6oCYho0JEhUslpmCS-1" value="Front" style="shape=module;align=left;spacingLeft=20;align=center;verticalAlign=top;whiteSpace=wrap;html=1;" vertex="1" parent="WIyWlLk6GJQsqaUBKTNV-1">
          <mxGeometry x="148" y="48" width="100" height="60" as="geometry" />
        </mxCell>
        <mxCell id="4aZ6oCYho0JEhUslpmCS-2" value="" style="shape=image;verticalLabelPosition=bottom;labelBackgroundColor=default;verticalAlign=top;aspect=fixed;imageAspect=0;image=data:image/png,iVBORw0KGgoAAAANSUhEUgAAAM8AAADFCAYAAADzGqY5AAAAAXNSR0IArs4c6QAAAARnQU1BAACxjwv8YQUAAAAJcEhZcwAAFiUAABYlAUlSJPAAAFi7SURBVHhe7b13kCXZdeZ3nn/l23eP9w4zAAgMARIkARAgAC7dgk6kpCUpKdZIIYUUCtkFuX9shCIW2OWGtNygRIrSckUHgg4EuQRBgAAxGBBuwMF4Pz2mvanu8ua5fPp+52S+96qmpqe60NVV1Z2n6mZeb893z7k3b+YrdEWW0yWljkxBpmhd/cmWyF3AN5G7bEmhYCXv9X7Xu03+pMMeRqk1PMU0LHLNabuQj0tOl5YcOF0BJelaS5jpQ0TgkMOB4TjQxQMBTYThJggrUIt4OW1HysFzyUmSotsScDq22Ehscq5lulkHyZEZjxXUFToSefVA0gMQMgtPhkgmR9G2oxw8l5wEhm7Fzi8X7aETy/b/fGvKXj7bsmYjgNCVeCkBsIhqcqDVSdXrCEQt2WQEvKKkVjGFT07bk3LwbAJ11asNYeDoVGJ/fXjJfuXr0/bxx+fssVNNAUuASASXbkcQknSRXXBTKmSNErp0inyKLEczEZWjaNtRDp5NIDoVvp9vJvbS+Y596qkZ+73HZuwvnluwp0+3bWqpYy02ERw0LcXPVDSJoUJZBhCRE/6ALKftSDl4NoFY+BeKkiglMb5QNLfYsK++smC/98iczIw9cqYltU7QSAAL0kcyxxc+Zm2lR3nreCYKw7vgWweed07bh3LwbAJ1xOcdtph1HxIU2sWSNeT5yrll+wOB59e+Nm2fe27Gjs02rFmoCxxlB5zw5gKnIMSgwqHi4YPLkZXTtqIcPJtAsaEWyliiP3fq2mh37cRcW1KoYf/+W4v2G383Z0+cWLCpRmwaFApNpVqW6cgUBD4NDyanbUn5yGwC+ZpfF2DTdhhkHS23JNKJuY598eWG1kHz9sePTdmXX16047NNhStFt61YSX9gXOBkrlDeVsqhvqvvl9PloBw8m0VapwCgYqEaaBJrdwUKljYuZzpNe3ly2X75qw37Px44Yw+8uGBzjZJ1khqJI45uTZmOuyFywD0AF4FNiyd3E5bT5aMcPFtCAkPodgJLYo+eaduv/t2s/W8PsplQssUlASJpCxBdqwoS5a7g42iJ4SphE2DY0ut0y4pRUo5dKyleTpePcvBsAsHnYZzjnclT2wryjQCBZL7RtKfOLNunn1uw33v4vP3Nyy17adpsybFASoCG4QFr7OCh2HULRUk2cKg48luzkJw2jXLwbAr1mRnYXIinHRKSGAuNjr042bBPPXHePv74gn3h5aa9Mt2x5Y7S+6aBYqbSJmAUahrAKcg/1LmS33O6PJSD5xLTaw6pr3AWQlvDiNiO7lrNEt9VM2u1u3Z0tm2feGTSfuub5+0LLy7ayXkAFLGhNtvaWk+Vui0rdFDtisaBBfJIlA3b5DmALg/l4NkUEjrSNc1KQor4LSVZCm3JC/3hJxWuA5CKVXvq9JL9v187Zf/9n56x3xCQHjvTtKRQigEjDicRSqx35CwpvSRQRRIMHyCZ0+ZTDp5LTQLNWrBZm8TkQlOH4zgBIa1hBActZKYbBXvmbGIPvLpkf/LUnH1K5quvLtu5xcSaiVZLXg4qm0NVBvHT35fLafMpB88lphXMKwfb1a/H0O7vQgIwlBS36CpZeJas1a3YbCuxbx5btj8VeP7gsRn7+tGmnVpIrNVJrCBJVexiUkVN6dlESHPOaZMpB88WU6GYbTG3rCUVrtMRgBLA09botKwm+3Kr6yeyf+fRefuVr5yzrx9ZsnMLHV/rWJGN68RB0yqmapxMTptPOXg2gXx/7Q05OKRDVwhIeEWbh6oucCq+e8brCIUuJxTijkBabDTt0eOL9itfPiMQTdkDR9o230Jh42xc18pKx36bb4HntOmUg8cJZoPhMxM+fUrVIifsnH2Ok84ej0uagBuMD0OzfDd/wU2+wkqXhzIQYODuaHFL6peGQySRAQoRrlI7XUmctn3rRMNfb/jEo7P218/N2fE5NhqIT93S+E6xQaF/t/tWd+qC+racNkI5eDKCy5zB+kzVY67UL9w4sMWRGDdZWhmuLXHyrBb8MzLthDdDxcysRXwHLlvkE5O7/Lvsj/m5AV+/oIJ5bs75QIoEAQTcy52CPTfZtD9/atp++5uT9uDLC/bKTMcWm7z90wcOlHgeqcEvvXPN6dujq/rrOTQ8kykwmZ9khs/xIFAWn6tlF8+6P4ZXDTI/PLrOslK1kqIlWrMca7ftK4eX7S+emLM/e3rGmo2q4koaldoyHLURYLSWQRA4eDJKNxcoOpg8iE0Hl3ZaG3ULo7ot+VqpXC4rdWL3HazZB24ftx+7Z5e943qzKhUUGDtaD/m7QrTC6yqljnpjlckEYU4bo6saPJkSwzcFohuQDuHnr0BDYlzixY5WPMk31hi6ulol/4VWy04vdu3YdGKvnGv5M5qnTjftWdlfnm+bf3WKkwIkzRLq328OjIwG7R47JUAVaxm+j+BHQz2djMofqxfs1t0Ve+d1Q/b9d4zYu66v2nXjZSuVir4GimyLviVOmalc05/yXVF+ThdDV/l32+Be3WAg7wYZeEl2mDrrGLwK7IjJP0lfk27LObvUsVOzAslkQ0BJ7PD5lr16vmEnZc4sJjbTlhqFYOHkMzws9Q1Jk8DBkIuzrJQ3Jq+aA1xpSIah7nIPl7t2aKRo9xwYsh++a9i+9+Zhu31f3UYqHqnXnmgLNooPSZfTxujqBg9NxxQ1F+vGisFndUgg4c0auqcs5kySxJYFhoVWyRaaZucXm/bqVMOeONW0rx5p2HNnW3ZqoWWNdis2DLqsYXh2A5OyaeAuK2q90nJNDabXjYLXS0RVXXkWxIdDPGmx7N6gE+lI1u+6sW4funvCPnDnLrtlV9FGawWrqTplRwp14x4qak4bp1xtk2Eidz7KpABuf1iJFXYs2Fyjay+cXbavvTpvXz0m1ezMsp2caVujKeBprbMs0LSQMGhV3qXi1kSqU1uKk6zdYkvZt/1V604JYKWUFvlG5AIGxm9L2UL4yC6XwFNRcQrM8tE6qNpt2i6pcrftH7Gfu3+Pve+WIal1RV8LuQTNiEZrHRSWnC6Wrmrw0HD2zHxBTTe4GiPOlH252fHXo08tFOzIVMuePNu0p88s2ounF+3EfMGmFzu21GpLInU0+acLce9J0osh47AaR9fkxI/tbTGvJBprDRb/rGMCnOsg0EONVZ6fa3NS2WwiaA3GCQVHlaQP+ZYE/uFKye69dsx+4Jayvf+Wut1/w4gNV0vEVlq12VGYA2ejdJWDB+mSLuRFidYkfKjjvBb/vB7wwmTHXjzfsVcml+y5qbadnGvY/FLT2pI0HXbWPKWY2QWJgAdo5M9DTXbWnLnZKEDSeDdLXkjN8mIVFtJjvcybxgONPD/yrb4U9AAQJ5ITTAgQ3ir912oVu3tP0d59U9X+3l3jdv+NY7a3LgEpKcTQF6QG5rQxurrXPOKujkRGQwzPy5szSy07Oduy586bfeWVBXv0xLK9ek6AWWxYU8zKuzNl6V10WdvnbzYPxLVSk2LXKlS4Cp/b1cwPA7Nr7Goa29OACl7lXI1m/aIMu3XrowHwUBfKcj/XE6MO1pDEqftaLaSKDJJKi5trx0r2vTdU7Be+c6/dd7BuB4bNhtg2B8y59NkQXd1rnnZiC8sde3WuYN840bQHXpy2b7wybdOtsjUFqqbC+eKN77DRS3QVJpusU6YrcEgTfzk5RRBqmYsjaW8CKAsdBw8MLdgJWB0BIFS29XY/aXUVSLrK27e4kTRS24pdts6pJ4BVXYmtMFfpAGehoqWN1kKVot0yZvbheyfsR+4Zs++8riIJxKTgSXK6SNpS8GQFx9jhWjWKXrUsVjDPa9NEtJXPS2AyZnQFMLsrNmzKeoC4fNzpyPmWfUuAefh4007NNOzl6aZvM5+ek1pG/DQ7FuNxUtkdcc82FpyolOCCly5eD6Xx+noofgp0Pwy1QSZl7sG8LkTE5QpA0rSeb691nquXy46c6lTsqCW0WZKvg4QReGsC8r17C/aOG4fs+24XiO4Ytt3DpE/7S+l9A0KUvd6dnXggFnfI77pEP6XSE8/eOGT3N6I0bdamFRSl9brdOxnfiOvFuU92x0cmjR88Ee7eGIpIiez+dmkbgadPgxXyGT1sr42omIQSZ7BzoDjnFUzaEtPwTGZyvmGn5tp2fLFkz59ZsocFnsdPNW12cdkWm4niUQDdSirSUyaqFTkO1uqN6DUVvbwkpqFPOF3gQBWH85tALvkEgeFCww6OFu3u68bsZ+4bse+4tm437arY7jr15pFxsDRJYhJSOm+SQlJg+S11Rl/pnvbfxTU/0nqiNG8nt8b4hY1acO37DRYUUBog5YWP8w8S2XcVU8KLch1c/TwulrYUPE4q3SuQtgE7Bif3rGtRRiKKfLzK6hxvvDdCV0yfUIuaUvc5zj/X7NrTp5ftoaOL9o2j8fR/crFjLZ50SrWRdpY+/MSQH0do0s7dieDp+qpHJnot1l/0pGRUsaJlULS7WinYTbuL9uF7dtuP3j0uNa5m9bKklhZqHMdDprGiYovd288E5Z1Bv0TfcCDVnXHr9dLKqez1KYvvaSkinEFyEJ6ZrIwVQEnZN3AXpfZCWe5xZ+EpdTe4SCDyTFg7EipHykcXS1sKHuYQ/1MVNGRqA43EpBHEzAwizhIHLDVYzCC4mTmiyXSljDzpA35QqiFQnJ1v26sziT19tmV/d3TBnj/fsSPTbT+VvKxMWy06L82DfFFrIEDDS2aUsgI8O4hcvaEz2KigDXyBlPayw1fyiYJP/KLelYpNu3GiZu+6YdR+Suug+6/r2IHxcoAI0BRq3r9AD8P8Tfbe17JzzZiZURS/ep8OzPMXJPJMa+vkzO6Dia+MZ00JCumVGZSlSWO6e2U42/gBkHhnKmI5tykyvUEaL3MDtCngGczyQmenevF6cfoD4Uyc+ntfZv40F2bPXFgUj19gW5LqdXy2ZQ+fbNozZ5bt+XMC0HTLzs4s21yjY/PCX8M/ri4jgFBe5Ec5Ml4fGZjMi6bUNMwpK3W7U1pn9VPY43lQHDHCCwAxEckuUNVLZTswWrV7DtbtA7fX7L231Oye/RUbLdNXmjzUGSSj190WCXXLVg5AQORADZ/1UtajvVTukfrKM2wRGipYlgJKU8mLmlG0h/oFVa0PiyInMrKFrCjWspHDtgUP9HoAGgQPEih1eINirpMfICIex1B085x0obNQy+alkp2XCnZ8pmNHpxr2/GTTvnmqbYcnG3ZS6xs+6eRbBmIc/zSGP0zkoAwzUeQTRaflqxB2qnCFT9QmKI2z7Smrr+5Y1SafBmTn5bs+s2S9TryCVatFrX9G7PtvrvqphO+6ccxGKolJCKX5MCarWI2xExcSvEKODDDuBSmTCMR3NSpySPGZ5pvee/yS2rPA1HslJRrhsqvkmI5U1YY0joVWYnPLHZttmN29v2h7hyhzvXJyJV0W8EBrAYgzygxfdEy6a6ROzIbCibxkulIx2rLyiAQ9u92RCrbYtcNTiX3zeNO+/NK8PXZswU5I8lipqoicJwuG4VVlH3evl4z8shLwyQg/4nOnDSRZOZsOxt6+5G3wflMLZOfhrzOnv7Itoq9dEqlfpb7xcyg+GnSs+m5PrWDvuWXY/rsfuMbuGU9sb71rlRJvtZak6a2e3JiGQhPws3OuXlNeqga/IaXgUd7ZLh83fLJyQrvAL9U4dKF5MSxqg7s1XronunTUvo7WeY1OwSfX2UZii1ryzEtlRxN5ZqptL0937J9+z4S98/q6+iVAe7G0KeBZL1GwF57VIPpOlC1vIVcUfPaYW0oEjoafMXvqtKTMuY69MtWyEzNNm17iuIziKTLx+TgGnYvo5nNOBR5UgjwxTQkgUkDEdIbIuoE75fZFvlw+K6bMsgOoqIbTDj6mGCcIxHTZVN7r2WhXgQe67q/+UdyCOqZcbNvukZLdcc2IfeiWqtS4cXurVLpdQ5Hau06phCflEvn2eibtxwup6yspcqOOMH+Wj+OPu/sQkAZ6vgKs3OyQLviGUMFmWkVfz56ba8g07fSiad1rNrXYtunltsIVv0Ea+CQ2i377Z6+xH7p7NM3z4mlLwJMVGaqTuifdBIDorNhmRhsvmdotYLS18G/bc+oRtpifO9eyk/Ooa20Bqq21Tkt6ecUXwuTgu01pHnSMA8GZJyQRZTBDRbj/B6leWc022qHbg5AwtET96+2g/XipT9h58j4KUJlpSvZG89mrotYGbXWV+km6Wk1q3J27i/bO60btfbeO2Q/eWbfhWkng8sy8X9Pc5ZSfHP6bQvp3v3VQv8epk+wZO5Kx6o4+wljxwJod0llULhk+wXV2yezMQmJn5jsyAoj85xtS1XUXhkzRfUJtSqI2JYXQVjgd79nr9se/cK19+E1jUdYGaGvBo1kvmFuM7z6iJGaF2eWundDMcURrmZfOLdujp1oCzqK/BnB6QWyRSoOi4vtTdKkbvp5xmZ9tBqSEP50WyPF0Ee4jJMMQDabAlRFghlGyuDuAAIZXl36QBbf3i9rpB1ZldTfxsjjsw2HT2lASiA0FOoQvMfBi3f3XDdlPiNHefN2w3bSrZBM1gllDSnIrHkodFBPY+sHD9MnQwNRtAYRX2DlfiESZlro1K2kxu6y7AMEnt5Ak5xdadlZShh9NnhSImESnFpq+Bkbz9BaSKQ3ymlBHgZD1lfOAQC9AfvLnr7Uf32ng6ZEXrUap8qhRnDNbarbt7FzLHj/VsC++vGwPvioV7RQ/+hTqlLN9VmV1BOoB81O/GS670isdKZvCIh6qTBjX/1MGcTARmY51i8jzIzU6d8yykeP2p2gFteXzVLStIhNnqf21Vl/vqAs0qbCZ67M+KZiOPZbcLpn4tC+g6FhV3bWnUrL/7LsO2I/dM2xvv6ZkdeHEv9xDCmfMjiY1rTdFzrdrEN2K0Oe1d8yynyvUmkQSYwYQLHOSPXF1/KlT0jQmm36q/ewCNWXM0kxUXqyAkF3R2qKv6bDTZhkhycdajeVMYpu3cL0vFK/bsE/9XCp51g31lbQ+8KSVdeaS8e72Rag6AaMoFL/yabQ6vTe7pW5nVmYApff66q6seVapZYwW/TP20NEle3qybUfPL/mMMo34bRNvZTVxebY9eq3P65J3aLQj0mR5r06/ssxNIarC7fWq7s2CvVVb1Zs/UvTi+2o6yJUohsDjKL7SuXbKuHka+t8juDuMh7gtVpq6E5+4OD0NmSRWk9S6brRk7761bj9yz6h96LYxG62z9uFlb6SQc4aXDjlA3UVG5F701zyOz2qten7Zx/jFaZMmwXqkZbPSseYkZRa0yOexwqLMshaxqF1MrpGvrm6hLCzhm7UF6rFK6uXx0nZ4S4P5BJ5DKXj6aS+G1gkejApWb7Dnz59v0KhM95OV6sQ4Ujn5Odg0K1Fvr7zWJZql6EDAsthYlgqW2KvTsQMi3NjTJ+fl17LzS7FD0tbIZ7XrD8mlo2CZraU40kLfhrtPmQftjjhuMqcDAkr95MkfGTnAsmAPzFoa15XtlivNy/saI6fnIqCx+QAFCIv+XYTrxgr25oMVe/dt4/Y9N9Tsrn0V2zdcEpMn/tLgtAAwzfpD9ym3d23GVTCpWEuJ1isdm5TahQo2JbVrgaNRSrvcSgIoKosJliKh4B9sAcUeU4hewxfwqW7i0F6fRnrAw+4unmE+9fPXCDyjqfviaX3ggRQLAU6FEI6+ZkxnlCjb4eOVx981YM1IGajaAtO8Zp3pZsnOSSwfPz/t3x/jS5jPIGlmpbJJdGe7YR3EKyS1g0/Kxprj4onarJXSq7/BTrt05OwuigFfSQohsDc8A25P5Je0IdhTd0TqGzqfmy74eInqS+y+LvAZLx27zAAaqWqorJGPri5dKlYsc2QnsXFpZzcdGLYP3zmi9VDV9g8XtFBv22kt3k9K7T4l0YGqpfnQ16isTWaW2r7bBUCirKL+UIuDqfHtjbPfQ2Xu8xnP+vCPOmW0AkAenzjyzbLytFsEHiIQK9XU3AR4JEK8YlSPfXrPUOFqLE9zNV3xmzGafPyh1JGzS/aoAPON4y178rQkz/SyTWkmaneUXi0tFNFrBSCmuVLd8zU2FaSfmmU/N/hGpHxI5vXThXuWLBsYAgf9t5pW1yVze0Nwc+F7COxKov6mzIRKLCvfuHZooA7I+IFQongehMl4PniGX3YUCvZ1XiYCGPJXxFkTwbjKXhKhKKYtyp8hHSs3bNdQxcaG61avle0tezXaWmucXCzY9DyHbBux0G9y4qNtLelbXrbaQk2imfBLamDq1yWvWJqGFoZtNZHTa0j8tC3A4+QdoBudijvlUPic2SIT/RwD8e8ud0u+QDvCRzJOLtpjZxN7/OicvXSuaWcXzea0jmm04oEWjeNMmj+ToBxebfYZkbwRvwHMCHwjGuyI1fGzsPXkc5koqwpVS/s088v6FI9gBPWzwtlhdJZTuE9fujtTeDrZ3I2Vq4zcWU7QYF/68y88JIWI4/0tJ0MxInCwq7ZnuGwHx+JzVoeGu3btRMUOKWDfUMkOivf+8PFZ+9WvTVtDlYGdWJ80qLAXlN4BLmXQJjeUQytoQQpqJ2oh8uqlcd0PQzwPeA2lLe7T9gIP0VT5rEN4sKgh9GbLi1mJyuHLZ2Enl8wefEVS5uiiPX16SaK8Y8e1+mfL0Rd/PsAaOKXjYxscG0kVwvDzsjAUQEdsrIHblbw1als2wMHg9Ame/SHGnwnLV5by4IOJ8Qkr/Sks8d2w6CaX3r5BE3G5ePetInwJLmnQhmol/7LOcKVgu2TZP1ISKIp2YLRk1+yq21i1a6O1oo3Vy7a7XrSJquwCzVhdRmnq5Y798oNT9pHPnlMFeDBdVgFpufCKj1vapp5b4dy98eIZxtl9s4unSGuZmYw859elXotXgYdJIVMPszwvG3iI5I1Mo/s7IjH/edH+kUBULAFgarlkDx1t2K9/45z97ZFl13dLCT/OFJWkMdhQ6ehMP0vmz2vkywxR0gB4WTKAint2tGSHUypQg9T2npOmc/H+jf7xi9z4+GQiW6jHMcl4d6rPvf8UyWVHOsMSVlCfoRlQSlnjVRezj4r5R3Uf1n1EZs9QwcYFhF1DkipjZbt5oiRTtBt3le26XUO+xRv1UC7kldaZmvjoCzAf+9K0feRz58UD8bCadrAJ7lqJx410Tp5XpA+Sh/IOYOFOy8M74/5e3OC3NyKvIfVNk+OmR7N7VsBlW/MgXBmyGHx2RIKhaY4DhzNN/rSsbM9NJvavvjRln31+xk7MNaPCiJuKQIE+gJsZ0tNpYF1N46Sb/tK2JRyTLlaMTyl5Gn8HxQvfsbQCOJBzeNasNBD1FW/6wZ3hXxRg4nWCVAoRX5FCyCCBiCQHZ2ZwuEqEvWPlQsf2aUF/696a3XdoxO4+ULVb91TsGqlhByRNkCwAq17lWYnyVZmMGc+BvBiqoKy0NPVallC/pJ47hq1iH31g0n7pr05LklUUR54qk8nSNRPcADoFtQJl2IxQqDLuGM+FKIecFeZxsItU3kp6jcfrEnXeNuChSbFJEJWC0RmekDiqljqnJf+Hji7bpx6ftk8+sWCnF5p+jigqXvbPIeFyEeo7J3RWqvMqbWzbkitlRircXkMfwbQC257WrietWUkMZ+abpknBk3kzPGwXu1RRFM7h0V+k85lZfVivFG2XQMAJYdYnh8YKtn+0anvH6lK/yvIv+BdzeFN0XEBBRSNNtVz0A598GcsN4xLFep/7cCh/FvorKKsqkk33f6mJ8p/91UnVM8Y0OCpyYmPCndllcGbokRcU1hjssGeUBgUPrI/WAo/n7X7w2GVT24gCo0tloA7ugwLB1jKOsjU0qEfON+0Tj8/Yxx+Zs5fPLpufC0hnkv7XwnBTfaYtXhPAV5lmHBOZ+0QV9vC4NGueLA/y3Ex6bf5r1d5j0aHOUNg1xL0B7lNZi/qKGF3alQ2VCzbGIl5A2TdaEViKWqeUfZ0ywdpE65Y9Q2YTUsPGh6q6a20iiSKnSUtT3srfC06Bu4IhASTgjWkr6hcqYFRKxscTUlwFEOdjD5y3X/rsaWdJ3KHQZTlgkFR4pXmQdkX4WkQ4RJ9w1SUqsi5aGzzUXXdnrssGHgoFKHH0IipFh7BYZauzbNMSIJ9+7Kz99qNz9oWXW1bqtKxTVHxvhVSHpGhtF+G4+SlAZjlBRx3CTzI50Tkp2MJO1Wh22vhBypxee7+kRMCquCmFb+S2KoM1iPDXC8torXJIszJdxlRB2CJdr+cZTHlRMzajkQpDPSPGr5ZdsuyRGasV7OBIwW7cXbHb9lbtFqlfB8cq8o/pqIe9rGpZIT3GDfJ47pQl/n1cmeyQdAEfiFql4TLpSLndASG++Kgkzy9+9rxihnLfn+gUoTeGIh9TLAMkd5Qga5psZZT+yKerrHXR2uDxwkSXFTwUzpojTgywFR3t4Bh5yeabZsemW/Y/fua0/e2rS/5kmTRRqcg+0mWVDL+sca+tfIQPErp9Lxp3DYSDIJ0JswHA5h8dxM1gpQPm1VVT/c+ZVUbuNJfXkjMA+ROqeMSNrKJINjA8j7QMj6sA4uMU0WamCN8VS//cnzUcVsUNlSyS8T7MsOabW7Q2uevAkL3pYN3u3FexAyNd2y+1a48AUq+XHUwVFY865Q8ZlR9PUSjYi0/Lv/SkzL3Hwu4AU5s/+qVz9oufm4w2edlcMBFzK2gt8PTHOvrqMoEnuiH7DZvoFl44KhifAnjiRNP+zZfP2FeOLNrJ+cRavnpdSQGeldQHz3poMAMl7HGI7qoXrl4Md+DCQjiqx0B6MX5sjQ9SP3wwr2itSHnEjKqO507+8kNSBDRII3b2RTZ+YfB1eaI0Ja0vULsOjpWlbsWWMM9N9oxqbSJd7KCvT6Ry1RKZghbyJX8QWS1LbZNazLem2V5mfeLrENqlssibB6VR880kWpmtgIIdqUMGHrbQ/TNbTptdlwvT64MHzzCXFTyxuGfGxc6g8fHzpv2HZxbsY186bwuNtjXVv/5OxypaCR6F6z+81lV8lJlRlsSZOcsIOxZMTIH92VhuT5+FiwWoP2GeR0YRtpKycO4y3AAHjKtyYKXAku4CZblStZrEpO9esSVcMYFA6w9JjAktWlirXDOq9coIpiQVTGGKtEdmt8LGJHl4DSDqwnBTx4xhe7UQUQf5RjSZCMmcm0M5eAZp3eBx4lkMA6mB4gR1s9mxTz49Z//ukTn7/GFeqqLGZLdGlvBvVkdZsDIUa8Z9DSn2YPvi4cUApQ7PioL4+o1WyMHaUaV0l4o2MAlUfKbmBBeShKT8raKsDA9g0qDeSsHXdTQ6RalLHJSsVSQd5GaNMjFSMWldtkeg2DPKQ8eCHZL9WqECoACe8Rpx07VNlXVkWrLfVEbGgCuGBsbsN7pnI0rfu9eGAa9LSGuBpyvwTObgGcRR76HWIEnV4eEo8yLb1s+eWLR/+40Z++3HZq3RbKprs/NnAYsVBE9nWW4EPIpGGhgrsumnztjer16IlEsPUFzaJL8uzz/cS26BD+jAjMGQkZ7OdZd6PboCYPHefllJ2DABePwCQVdqlNn4kBbru4bsuvGK3TBR8uMrfBP69t1dOzRes93DZRutdn0twxMxP4Mmu9dEF4cu+VIH1D35ZK2LGnkNUkcG7wgfvEYY2dCCoCzk0tIa4NGd5zw5ePpWH4ge4S3DR8rpvmara5PTS/ZvHlq0v3x+TqrboniKNQGzKOmCsQep16dOiqP/8FoR8LoUz4BIRvNZcaXpevmIPArsJuNqVcQlAJf79x7Sqo48zNOdj4tkpyWoOwDV2jxVu2LXC5XqGoHkpt01u2mi6OuWCV+8Iz0qNlLuyvCzHkonv7qkUY0TyAMNd1CqX6mJV9XrRl+FT1bbjHrx3FMX5wjs/RygSKPUg2O2KZSDZ5AuCjz8RCDWY1Nt+/PHJu03HudnOBoCE7Mnsz2hKxkgowEe6lHWuPXQyqhpJ0RxMqk9JY8LOFIg4BOHEEP18nLxlwTiQ+ycjRzR4pxnI7tZyGstIoy4YYuYhfveYRb6Fbt2V82ulTrGgp+HjV6Wl0851ErAdk8kicLlHV0Z9cEvGDD6KWrXN+7OPFPCmeXdixmeTu47EH/z6HXAw5rns2dz8GT0mllMQXyxhE/XPvjyov3SZ07Y4emuLbXUocTl2HqidY+oP4v3qdenA3Qx4In2ZZmQf5aYuwx1H2BgQMPXY3CXVL9qiV8E0EqIHSutiarVkpXKZX8AOVpJ7DqpWxxfuWP/kN26p2YHh7VuEXB4Is+Cv1aSiqW0/Y+VSPVLywsjptIEwnKsVOAcBfZgNIeR77VTH4iXAmOLOq199FgKeE/kfRrtxBcK+fnavh0kxnDzJBA1eS14PibwfMQlD64IjVZtHV128KxFHpxy/txS0b54eM7+6Ilz9ifPLEriMJNTIak+bbELXALTrFGZtcCztufa5DE9W11gKu8Z+YrhYGI6hmFlA4DDib5BwMNZjSi/hnZovK71SNmuHzO7brQrCVKxGyeqdu14VYv8IUkefq8GdS3OgrElzIYAZdEFABCmhH28S9ImspNHM+IVitQzaivC7VB2H6qMj7OfA1u5+Von4vUiZEOC3VO6ZeAetLlAWYty8AzSusBDoR2tDx58pW2//+iM/dXz83aMDzL4s5JYnHf5fC2noSNR3AdoLZww7v3ODsqaMeiLX9Zo93ePAAuSpMbRlUrJajITkhbXjhUEirpdrzUKC3h2vFiLcIqY08R1gYmfHFSwFvRmFdl5WAkAUD1RPZjho+VBa9Uf6scQDbY7Y2rdou6rib4jOJjR818VbbBvglGDwjeu4St7xin4rMrn0lEOnkESr6Bo0GiyyDLBRemoCKGacYLgtx6ZsT97ZtmePN3STNxyNQ4VhA5FZUscPKqeZtVsW5VGRKWRFu4lD5WUMumKIkU4sfrOlOefNbsgiVDw4ypj9YIW8FqXaBG/SwbAcKyel7f2ai1y43jXDo1qbSKpwoPHXXWy0UxPnVCt0kJDAQomhqIKhGWVWkWr65heg9LA9BZlDTjTO5T5rabBONBgvLXTByu4zxaAh4LoAwfPZyfTimW127RKrIsuD3j863+xyGVHK9QAphDUCk7Jmr0y3bbPPLtg/9/DU/bUZGKLAlO1s2gtqwhfmr6VptxpqrI8SQc47LyFRPIv6igT/yQRKo7i8oedxvnuE0USVze2gVGZapWK3JyzUi14niL/MUkNXtK6aXfV7jo4ZLdpjXL9hBbzQ10brxYEHnbGeLmLDDeP1hLWl1d92ipaGzzZbpsPaBpK2FbSZQJPR/nBptEtZB7dgi5ftMlls8+/uGAf/fxxe2Eq8d/upBP53c2kVNeiWPGlsvETIJ0i3x1Ah6fmWSeSs+wFngHFRyU8xAtBGsnC+yHyHx/i2ErZf3jp+l1lSY6Sbw9fM1G3W8bNX9hCuiB9aiqG4yq+ASCEIanijFcs0DebBgF0dQAHysEzSCF5NPhkCyNTBG98OkYabfviK8v2iScX7BOPzfqnb5FIPCaluKQkQMD4XX7etiNJBEDSSnrfwtSEI9nE9OWOjVa6NsTPmZc42yX1S2AZ43iKgLFXqhh+/lR+vCZ1SyqapA0SZaLO2kYSjoW8l5INUgp4VEzKk8/GuiKnN6YcPINUSJhCvR9g8vDkU6ucUTt8atF+99EZ++TTS/5RdTrGJRKVUBzN+fIiET/mwOemSg4UQtiuLgkgAID3S0pSw64Z0VpkxPw9+bFhtoMVJuDs0vpkt8DjqpfANcpCvl72p/i+MUwZ6G/Y3a3b4GyvXvIPKab9srGuyOmNKQfPIBXaAk/wppie9Yk6h4/OzTc69u8fnrXff2zGHjm2pMok/gyj91qtVKTYa8Bwi3scmJS9WLYJ6VZvOVS1+6+v257xut26u2g3jRfs+nGtXSRZaqmatZLSPL31qd1jpTt5UOY1SJnfxvohp3VRDp5BQgPytLA8oOBDHHxI+2vHWvbxR6f99zv91QMFd0pl65YUR/Zu0hTY+F1pPvpBp4rQnMoSG3x0vdO0G8YS+7F7Rux/eM9++yf3D9sP31G377h2SCrZkFVZo3hHy2QijzaoLH/YKJnTkarHxw+5Z0PiRPm6ga3Aly6eR+aRU06bT1KGUiyK53hsM9Po2uMnm/aJR6bt8PmW76zFV21iVy24NgULbjfYZcgDCYW1XJWqJukzxHMXqWp13lEp+Tkx/7U+snKgkJEou6eEs6j8MjMYTBXwYJkThnzCrM4np5w2iyRGBB4ZznjBlnyE+xtHl+1vnp+3eRY+TnCkDE4QBjNLffPfxPF1D1IEbiZcF8Allayl7PkaJeskAoEpUQAqOWIPv/Bf4ZOqf14yFw9jpw4TsTOKVBhCc8rp8lAx+6kHd4irD59r2MPHFu3EXMvanU5PuPBrwiU/hcwinh0v1iCSRonuEh9+fMX/ILFwp20d3TJ1UGIoRQzAYNtO0FJeeDmYnPt1cakmk3nyzEhuTov5d99Q9wJNkVb+/jwoNQHUnHLafCryY62c4YpfChbzc0CtXBOjxk+IOzMLNLBwR2GsezqK20kaCtN6p8CTezYTeDgaDB+M3PXj+Nj96E5KzveU5w9UQ7J4MW5Sf/bY+CiY62Sqk7IFnKl8W2VI2NPf5NI9p5wuA4nTgiF90k9ndT5AGKIARlSo/FI2F+EPrXS7hBERD8hk5FKCHTqPlqWNeBciD+Xi6d2Cz9qUBb9RvJxyuoQkLtc/qlTK2MH6qGs81wEEMj2mVBwkEUhDFXsditwyJiZ9xHU8OgHY+MsoKyEzA0GiFY6cctoW5Fw9eLzEF+M9Jr+ElPN/TlcY9cTH6vNZCJcerXB8G6QicgzldKXQ6+teLn6QQ5daDOXwyenKoAuA59JQH3qAJgNODqCcdj5dGDwhfDZMIbXSDHpHCXLK6cqgC4NnUFjklFNOK2jT1baccrpS6Q3BM/gsJqeccurT+iTPqm3snHLKSeBZ157ApXjO0z9ekFNOVwS9oeS5dM951gXTnHLaMZRvGOSU0wYpB09OOW2QcvDklNMGKQdPTjltkHLw5JTTBikHT045bZBy8OSU0wYpB09OOW2QcvDklNMGKQdPTjltkHLw5JTTBikHT045bZBy8OSU0wYpB09OOW2QcvDklNMGKQdPTjltkHLw5JTTBikHT045bZBy8OSU0wYpB09OOW2QcvDklNMGKQdPTjltkHLw5JTTBikHT045bZBy8OSU0wYpB09OOW2QcvDklNMGKQdPTjltkHLw5JTTBikHT045bZCKBev6b7/1f/wj81Fgt+Muwvh5nUI3QiLUfd32+qTUBXJQbP+NnzQl1pxy2uFUhJNh7GDtxD27BQRSwcETnC53+utwAS35uX+k6pu1KYuJiYtip/ecctqpVEwEjESMn8oEv/u1ULa2lQSkkmIJY8JPt6S4ApFDrMf8Sqs4BSsTQe6i3ErPT8crTiEpWEn3ovJy0BUEyEJbwQHUnHLaqVR0HpfJWLkgaQOcDOlTFCAAUiKmJ4KA4JHxKwIUbEinlu5NmTaRHHwpdtxNdL93MXIKifkPBee008k3DFxJcxUtlLICTJ4AiGB/53gHTRCMj3CJcFS+9M9zwwtZppykm3VlgFNfTyMfxFgOnpx2NhWdlSU5igIL7B1qnAg/2Uru47IkQObMDwkYYAq3pJSrdxgR4JPC53Egj0MuvpZKEdYPzimnHUlFgOPqlNQwmDvRWicpVs1KdesUa87fha5UskJDGJFahjQBSqxvHAwl/RXjZ7U7kjhCVIBMWSZSzxKFOhrx0XpJt7byaMkz6UmjnHLaeaQ1T0WgEViAQNKxA8Ndu2tv0c1IseFSqKNwINER5zu7u86WSqOuAJXICDRsFHQFwo7A1xYI2aYmDrBxVU6miHG/+Mspp51K8LEoWBxmv36iZO+/pW7/5B2j9l+9Y8z+8/t32U++ZZf90B1j9t6bh+3t19btjn0VOzRasol6wWplUmq9JJixvgkCcrIjpQqseCI89DQBTtaS1jw5dHLayVTodjriaBb7sUphY83XLIWOJE3XzjVKdnrB7PT5RZtcTOzkfNeOzbbtyFTDJpdadm6+ZTPLbWtIPWtKMrWluiUY5XPPwbr943dM2H/xneNW0eqqIDXPAUMgNlZcOYJ2EDEBpvOtX5kAu/bRBybtFz83KS8GM0K3emCZx7M9KeoYuk7co24F+9TPX2MfftNo6r54Ek7i2T/dwnIfOxLEs5dK1ukWra0OSxShJaZvdgq20Ejs/PySCTc2uSBAzSV2XAA7NdO0U3MtO7vQsbnljh0aq9rP3DdqP/PmMSuUi1avmUBEOWyHI43YCk83EC5A1NCfHeW0xZSDZ5B64HFHmkd0CxbfZE4DIhChIcFizTaSyWxZgksCyBZbXZnE5gWsGQFnUgCabZo1WmyBJ1avluzAaNn2DJtNaIk1Xi/ZmMxoTWsrIaqWPjei1fGnYeoNBkBjgyLq4ScivJJRJ9LQNREXio5yIuJA/VcTsaK0SAXhymJ7PpSX5tHLJZL0ImZOqBcnpcEwHB4+kG512rXSr/bbGsrBM0iFJEnEF2sn7sNKEV8nzmpCCWy0BSIB6MxSwR4+tmhfeXnOnjvXspEa6ySZWsFGK4UUPGEfrVZtRAAb0zpqvN6Vn0BVLVtdYdVSx8oqv1QqWalYdFnFM6SsG3zAZAk7XZSBhx7EK2JizQifNEYvJEsfj3kzt8L8X6XKI/xEWd+kHp5CXjg9ZCBuAD0NS+P0SI7IKa4eFtaUVLs0wYp0W0I5eAapIICsGKq1iCjrBY9nRnxJi26hbC8INJ95dtZ++cFzdnJRjMn2tbLqthueJ7mWdBmVTndovGo37SrZrbuKdv1ExfZL7ds9UhbYFF5ObEjgqldkygWZrqQVamBXgOpaWesngMW6KjpjsFkBj8wna0nmDsVRLu+KzBdSTK9smiJLKGIY+IPw9pakyTuk0X/URAzn+YZfkBgwLcZr1vNPicB+BBVPBEpYHfFyUw6eQVoXeC6OqHXKMIWSLbfNXphs2G8+PGWffGbZjpwXaLoCFkd/tKby50LdkqJWxfyAoWPVgtZEZUkZeQxprTSOFKrLLik0Ui242ndovGTXj1fshomy7mW7TmDbM1wRwLQ+o2j1x2CXRCuzpqaTgXumkb2nI1EWC8LXPbKzeB4YcHMivvJBEvZTBlgjXQxbRgG4VEVNKc25F4t72LM8PSOZgXK3hHLwDNIlB09klojXAEjFVysLDbPDk4v2f35j1j7/wqIdm5KHGDZjGlgJuzcNMGHXGsjVJ7WrjlQRkJAubDhUS10bFkhGB8x4rSzglG1M4miP1D5ANOZqImFSEQW6MUmwcYWPy28YKSYJRn4rwEPZq/oy9XXDvOCEhCNZ5vQrI4YDVwxTeGSxMmIYU0h5kGz6H4wZaYOyoR/02xrKwTNIlxw8AYLYUcsO6XhVJW0+/dyC/f6jc/bpZxdtrpmeeZMpqQoJLmc6NTKREVASZntFKagXMlb0G1XO2htZiLQWkto2LOm0b2gVeBxAASK3p+AJv1IKRK2/Usk2JFOVLlkCtKoT9zLqoUsXFZyVn9WX4rFldck8MiKJ37gGudud9FiaQPl1aetAeqxZlgPeW0Q5eAZpUyRPdKsMJw8gzdJebQHoj56Yt489OGePn+lYm6NBklDFTjSqW5IqB0OyL84Jbe8Bjv5wyk7+wW0pDdjVBADmbOwF6+IignzDHQv+kBbO/AofqbMDWLGDWlvdJPWP9db1UgevGSvYLgFsRKCqaY1Vq1QELAGygtQTkJRHWcDmDrB666ysSpQBqU4cR8JA3AZN1C+dIByIGWOmWemi7LcR5eAZpE1S26LCAAOmTcRcJYAi+6szif314WX7l1+atuPTy1oTkULMp5m9m+lEarW/iIfS5xkqvXqDUN4nijJSMIi8K1RWQaAjLAGEsmVdEvFXdZDyK2ttVdW9Ui6HdAEYMjWhAgmGYRt9uFqxkVrXdg8X7RqB7SatsW7UeotNjYNagI1JorHp0SMvUJf4V1UjMK544isjj6gl4CdMdgdRSu4HpX4DQVtDOXgG6ZKDB5YnwzJn3rx/pcCJIeJcW8eWO0U7Mtu1v3xm1v7wsWl74lTT5tvpLplLKjXQmV/kgIhm++y9uo2eP5ZVgVi9WS6vwupMmcXBH08MvmIIBaEyEQUpEJsXApbuVdWtrIUZ2+ajWluNuZEKKLUPtVCCy9ddbLWPsu6qE6+kOFIL2eBg+z2LI3/WblnlvW9kK/aGQXc8nKglfddzbjHl4BmkzVvzOBBUKTEe0gIBw/YB1WwkRZuca9ivfnXK/uLZBXvhfNuaSVVAaXoOCZzL6w1smzl46Ai/ymRNVUdkksrDsoeokOIpLNsm9lQupWKb3MPkT73w8/iDtCIfdgNTp4iT51EjdylqYrVS14ExVqu42TVkNjFU0r1seyWt9svsHSrYnqGi+w0LkVWhsSoJJxwqfWxe1Fwl1EqR9ZXsRZmSysvK71VryygHzyBdcvAMdp7zdlpXHp4y+MF6EfDXLzbtj5+cFoBm7MQC4GmJUVoKlbongPEqeDQ5JEifFAYoep4ZO0fZ0VH9NOFLPgBFNnkw+YcKKIsDhDoBSN16Cw3CUmtKgM4lQZH6KVgOnHGFIi9yYIewWilrbVUNFbDclTHbLWBNDFdtz7DWV7Wm7R4dtr2jNYGrJDVRcaqJS7ZRrcmGtebytZVMUfXF0I9uosDLRNFK+j5rL71MD/bBQ//Sj9Dlrd1q2rngIUdGd4CyQsI34kwvt+0rryzaJx6bsz+XBFqQePIT2B2kVkX2cpoOZTAlmEd/Uess10GK7nlt2FodhB9GcdfKapA8+UC8tbJLifplFCogTA/bBS6z9ZXfte5C0A5JErHjt2uYI0wl2zdcsP0jBds3IqANVWyP1MN9AtfuEYFOCByvIbHS2ntnAGrdHdls/kcd6NE+E6WWlAiDokfdI8ifaUWekY8q6GHyV2YdTRzEEM497489cNZ+6a/OCjsSuRbaQ6/QLaI+UPr2HQCe9VNHRZ+YTewbR5ftdx+dta8dXbQzUufY5uZjIp1CJSKyfsrI25kN5tpVp5PWR8ps3VHX302+hsJyga4FVIQGA2tI5a4U4wQFD4OH1fQRGe7hZhuezQs2McLN0aYJqYH7FBGQoRqytmKDo1aW1BNAK1IplaWv3QBrRjBRn7le27zs9ZIsRtRSPa82sU4L8OgqtfJjD5yxX/zsGaWpKxIbQx5TZuuoD5S+ve8XZkeDhwFgLXR+sWufP7xsv/nNc/bQkQVbajFz8aYpGwdqtOzBZBkNNBbvVW2PoV4PXWynrTffjHEuFD/Kjj1EiDQr6xPtIDxrJAwQu4rChg1L9OwZrds1Qsw142U7NFq03eLf3XU2NARENihSIMb5wdhBHBKS6tWyb8MLe7FTmFY1qzGCo19q2KkJuoA/i5K9aLGD+tEHz0ttO2vFRP5iJ2dQAWwrqQ+Uvr3vF2ZHg4eiY1Gf2GJSsV/58qT9/mPz9sQZVLdlhSlcKgJHebpsXfdqCqOlDm5bO07fBqnyahdvOXkTvElpu9jgkGGXMbzlFtPSJ73FJH1DPCL4MMZHKkernMAoWdUlkNZRAs3eIbbZi/4s65Y9VbthV9WunajZDeIdYc15HePrQndQqIqgGPlGmFRNHy93iJYUr2T/4suL9kufm9ZMuCh3THgBta2jPlD69r5fmB0NHrVExHomsbZUtBfPtu3Pnpy3f/fwjB2ZbVqrzUNUSR0xTjdTOXxGk/G0q6ruYaItbNLFkerrzE992WRgsyHqzjV2GLkrjlviFoxJ2tSQRoDiHSmeh3XF4nxLr8hrHh5Fayv1H2ukutQ4dgfZ3RuS5BnWfYQtdYFrt9ZaSK3ddUk0uQHcPgGO7XgeGu+VmKoIlEg9X/Wk6vS/+NJCgKewpPqrFalk2krqA6Vv7/uF2eHgcRbp7Xq1hJUnTzbsU0/N2O8+MWcn59sCkEIEoNhWFumezr8kzS4pZZ2wdU26OFJ9M+ZP64wUghhm/tw7bTvXsA3O6rG+8riifkyRJ9fFndFvWF1VVJnullRnu5zTEyNaQw0BJql1YzK7AJHWUgCLI017FbEmBHJGkJPu4wJSRWrg73xrwX7tazOqSguG8rKCSbeO+kDp2/t+YXY4eAIU3jCfOYv+luqzZ5bsf//KefvKsZadmEus0+acHAOuNM5IaWO95ltX/UtBvQHN2pZJGTwyUKUMyV+RhXzmL4OaRfqQUqQlD55jIbFjy9wNFydUvciCHOJtXnIIDQB2oByeL1VKsXlRE7A4dcGOIN+sAEh7hiWhhngfq2SPHFu2v31ZKps/kPLWpNetoz5Q+va+X5idDR5RVnisfdQ8mQVJoEdPLtqvfX3KPnd42SaXxBRJQ+H92FceqU0OnKxtGSPqDhDcnzjp3f1heJxZGsJ18/URbvWp3K4KyiScGUT9pZzBsvAnbiRSdr1VmBhE6yjUM0BbrKoqki7cpWZ32g3fcocl2Tlli7yU1rWnKWwR9YHSt/f9wny74KEHt4w4QABjMEABDA2walSumt13oGb/8Vv5as+w1bQwjfk1a/baRlGy8d8RxGCWkqYYri0G590mzRrdpgz3YGbne1qXtQsPmB3jIkRMkd7d0IEeOQUDoFF6zhf6J5IdGLrR55wCERiIC68XtU5irUR5pMZ0CmVrl+rWLg75t8v9M5gaOIBYKJfTMeQrF3xhNuJ7WVcBbYNW+lC6zcdfd2kK0rcL9h3XDtt7bh21+6/lCT1Ha9K4PmCkWOnGtZPImZQZHIZNGY41A6CCfWP9gFHLvO0DDcWdehOXBXyoXkxE6T2LHwiMyOk0hAm3ZxB3v6ZpAjpxz9ILMKjWMU6oeJE+keqXmGY84ng6t1zxtKXgiYFi8FQNGQaUq+/kSE3YP1qwd9wwZB++d8KuGaukT9SzgQnFIobcWcEpALZTCEYU0/HhSc3osU3MkGStugATOmqIRyziuXyR9GC7GnsahbgevjqvtCyOGSmWx3CQRP9HHgFIdvH8t5rQErJMOYUgMLHWQoUzgYc8srXT5pNXIoz3Q0bhR71oFcZb7kCnbdE/2INrBtNeHNFzW0zZoAKcMDSUZta0AL1vf8l+7jsm7J3XD/kBSwbWBzrtMB9gDSz+3hjvpJ1CtESqk0uK6IcY7jD9gfUWh9VJdtQ6MXrEpfWpStUFhAHE2DJWHhnDy9U3kd4lnZwYyPPzNZNmqm7Z7/6ogAy0XuIlE/49DQBytVsqJ2qbZxJg3Azy5RrlqlgeyPpY+8TLXREoXn6onqzPeq+1MEF0SnK3rNxdtlpHa7UkXtYkxkbJ+W2riRlv0EDMcBg6bPdw2f7xu/baj9wzYTfxCN3D21J56Jqy1scsYMVAitwdPAK97clHe8BcDhos5yLKhDm3mBJ4g3qIL1AbYwIQ+7P+k39R4w/Mu5yNbDeIqD8mAk0l4otOacSapVFrl2s2PFS3chHJuvF+3xbguRABILZJ77+2Yh+8c8S++6Zhf5jXeycmnTZdFA/M4Dmtj+gtJvA3NB43JNkbGefkTSHypz4CCJzbK0al+qsr8EIfEKmP2ENX5/Sif77s2l0V+4l7x/2t4SzuRmjbgwfiGD6fnnrn9TX7wbtH7H7deb7A03R+UMuVCQHHO8m3f3K68gikDCAGzUROmD9TPbsaex99Taxst/uunzwIR0sZFg/dubtoH7p92P7Ld47bbXsqWW4bIuULx20PGlTZXkPSrVntnFlM7KHjTfvnnzltz59t+BdL6aRImc4Fvs17YaKEbdPwnNZBKGCulEnyhJrmn6wVzxQ1/rw71eZbGI4vBToL8ACYLfSWlbp1e/ONVfv5t43bz79ll40Pdf0TZ56Rn8e7eEq5bXtQts5ZixIBguXMnlrZ3n5oyP7Bd4zYW66T3lqJnSp2e+gIf35xASJ3LyFHzo4jB46r5xiNM9zrh2Ole2SbGoxratBI+D7FgfEx+8CdNftHbx2yD91csQktm/lAJpsqKTdsiLaV5LkQ+WIR5Vv/vLHw4pkF+5OnF+zPnl22bx1rqhOlv/Iad5cfCwZMryWWj6uJ4chpJxCjx/ihfyBWZHyc5QdfOBBADOMpWKSbCHcdGLZ33zJq77m1bN91qGrXjVesqgmYd5L45JlDDvVuA7RjwEMl6TIodNyOPX6yaX/81IL9+kOzNifctFtNS/hij/8Q8Uqie1eDJ7p5RzQ/J1HAJ6RPl4/DlHi7SIzv4FGY1LmQJ3xXwmzfSNF+/E3j9g/ettvuu64qNY3fMIyJuK11EVyyMdgE7RjwBHIkql3fVZOl77a1CnzsdNt+85FZ+/NnF+3MTEt6L/v3r21SdC+XABDNdjGf084hpImYnpf3ujygdSiJF+AHbp2mP78ZrpZt754J+8i7h+2Dtw7bDRNV65bbkjTpKYhCi6VSKnFIuDE+IPWOoHRy8Usi/TYpVaxUKdnNe9h2HLMfuLlqN05oUcnCKIub9kl6835z0NBzPmdgctoZpFH0T5IJMIm/sRTj6heBSpoIh4T2TYzaO24/YP/NO4ft+24etoMscMrxcL1HrI+c81O1b4O0Y8DjHeQzBGcQQtliR5+fKblfuuwP3Tlib7um5l+g8U4R2nzvXyBZPbH0ju87ItdLxM3iZwNB95EPbuqHn8pecyaTXzbTpbRWrKuNGMsg9Yv3D70SCpo6loDwd8O//PyfuBjCIx5ffv1eAean7xu1v3/3sN20S6qa8EZogRMTxPNO5yIARVEbprT07U40n61qdZ0YM979CQAhwnfXEnvvraP2A7eP270Hh32GAjRIF++vlJl7Vw2E7+xtuOcAC6WTW9QnzktBg7NZKBYh5fBLmYA0WVhO3jMuCrJxYty8b7L+kT9BfgxI464+bGv9wiMK3FUl5YtC33XzqP1H99XtZ+8p2e376v6tBnqbEeH8YC+fIv7Irm+Pdsyap8euqi5H+NlpoRPxKyZteRdtcqlrn35u0f6nT5+22eWGtZha2IULGa24cit9Ubpxodjx9JwIXg8xrt5TXqAGTWsr18FFpTILVw2jyiNOlw9j+IM6H+o0HoANg1/vg41XO3F+jhmu2NY/x7HoF3/1Uf6VsEklq6gPPYTvWdD/TFgaE/qYTx//6N2j9p++dczuPlj3792Vv11krIN2zoYBTLiiqti996yTql/owk+dWrJff2jaPv/CnB2ZM2t2NO/weFmLRB8k4iaaeTRY5BDi/40pLUF/GjTl4aeo5OngkCvCI3uvp0ACxSwKAzg7yDvWbFEukcP/aqfQvNQnAo9vRQssBU6b+1lFaRqcHPHJDlK/6Z+vAt0rsPzAbaP2U1r33rm35MCBJ9Y3qt8e7TDw0HWazZm9Ve2sKxNJIR6N0s/Tiy177NSyffxbs/bAq007PKWQjhi4wPMf4tOt6nXPi6avv/mAgDJhfpd8PkLUSyNJNuTP7+T7C2kY/JUGCaQ7xu20gTA36y//yiT1hLogFFn9Sap4vzhYsHKB6HsmHq3/JVb4MOTbrqnY+28dtvfdMmpvv76OsBd5Lorrg7OptGPAQyVjdhIW0r5FqPuRfumvvFAGgIjIMHzh+UX7rUdm7S9fmLe5xYa6UoBRBtkAdf1IOwnIYx2k6Hw8kM/ltvjZfKVt80wJEBZqDlD/mowkHL90F7Mkoyl/njtRjEsk+QGyHniJc/WSj6kuBWY+TkOrL3lBMEAjN+FpHD5jXCwV7YDUtO+8vmr/8O2j9q5rq7Z/lFP1qPGKR1RxAh/J2mzaMeABGCWvqS7qWJc0MvEKd6yBnJjZxbyn5xr2+ZcafgrhPzwzbYn0aUccLC3pEGud9TMuxzzedKCmwarbwtKyHZ5t2zGZ8wttazSBq3KmCJXvejsebjToJYCN5MGDMkPtw5Zq91cvqb9QbSsuUoqakNqMkAZXE5L8iklT3ai+4/2cYstunKjae28Zt194+x5724HEdg+p/8QI/iuEGnd61WXO+od2w7Rz1DavZlZVFKjoHSYoFo9B/fAleZ2YSezBFxfs337lhL0w3bWFZqgEBQ4ESrXy2OvsZD4i+KHbxuwf3r/bRquJHZ1v20tTLXtpsmHPn23asZmmnVvq2JLEYnx7Leriu4MycbxIHrj5U53p+uylvquXaD99I+lTUr+wuSInqjiWEpMjtlLF7t5fsr9356j9kMz91w5pfVP073wTL3qbftWVvEKH21TaQeABIHSIjP79AxQp48WuVhAdx0B0mI3EyK+Iuf/g0Un71OGWPTfZtjlQJZUqO0C63sbzqdqfum/cPvLe/XbTnpLNSZKdnmvbyalle/5cU0Bq2glJonOLXTu3kEgiNW26kXi8jquIlIR+L6O/cK239CuX6A+fQFjrMKbqE6Y1DgLzoX8+tbVnuGh3Hxi2999Wtw/eEc/z+I43AMumzZgWRT7+DHHwxmbSjgEPneQdpdrSL3RNSJwAA8tJGsLM4xs0BVQ5gUgSZk5q1a98fd7+7Ilpe+L4gjTpqpLwNX/6en2dPFzt2k/eN2Ifed9uu3V3xUolLVDlz9dvvBytqYQjO3K+ZQ+daNgjR+fsyZPL9uK02bTKR/LwdZxuq6G4bLdKLVEOhS5vPL4xAbkrkVwBZwOI/mhqzEpsqrStpPVPtzhq1arZO2+s2n/73fvsfbdV/Ztx7Hb6ZpHG2R83CHyx4nWuSM3m044BD13DN8EAizOSZh2fv9Pq04lZlxGLTS9mdiZ9lo/PnunaJySB/vCx8/bKjFSCTtPjkW49xHkpwPNP3z9ht0/wCwQ15UqJLZ8BsSFh+On8+Zak0kzDjkqVe1mq41OnFu1FScCjM207I3VvqaVUvIdEBQS8EKBZ7demKxo8usZHRBjPcBekpl0z0rUP3lq3H717zL7/zgnbJSBp+ejjyigz4vQLxqdOpBVAdPfmU+mfi1L7tiZYJ2MyZ1o54p76RaATXZt6u4swfvqQN0+bYtqjUw1nXkDFX8isjD3lo0HoHRp0SqwqcXfPwZq9+6YR/2ZzOf0OdFQKw++m8pMefAPabKJeskNjJbtpV9nu2Fuzu/bX7VbdD43ylc2iVdi0UDnLAhxAz47kAXZmYi+bGRa310/k/lGW3z1MN+rLnbq4wTftBQ/A3Sdnt7S8qP+lpqxQepe6YaKnQ21VC1QuQp+6eNxsw0dx+IW860cL9hNvHrcP3z1i33VD3faNosIp2NOEpXfP2gIp3yxks2nHSJ6LoV6DvGn0LIzY0RqlYw8da9jvfGvKvn60YafmE38ZMeQaMVOmFDMyuB5EFhodvt/8k/eN2Ue+f5/dvrfiIBmkwU70z9z6IGZUcGlzdqFlr5xbthek2h2Zbtqr0y17aTqxyZmWTS11bVZxFtup+pFWHYYB5r4uSE9KpFwn47JTNxgSZgzjstfb7pH0z13klVTddM+YdnO+7Bnlolp53d3NGCChmbK8At6/UTr1jr7np/1v212077u+ZD/z9v1274GK7a4rlv69lavqu5p9V4dvJl2B4KE5MA+9rQGhL8VkNJPBktCxx0517F998ax9/ciyzWpR71/O5FVcOp50UGFZnSNGZleuOOQ/dfiT92rN80bgUTm+mwdDpGCMmNSJ/HTnuY+YZbrRtefONOwLLy7Y14937OnJjp2aWbYO6yKhmkdHfB4pmF+5KT3g8C+ECgG0h/xj1o44oQv2XFE26fXvdWS4MXSN6uCj75dLSKqft77YUht4JEB7VUdNKhHOna+MKpYkOGpYodOyUrVu77i2Zj9+z7D9J2+bkJQuu5oGORDJdxU4Btn3cgIHujIlj1rEh0FgGp+teJjpOjUPNk1rkq598qkZ+/ijM/Y3hxcUjuKW6tyk8wVTaNTupxlzWGrfeiRP+MIcUXb0buwghUNMz/ks2QBHq9WymSWkUsdOSDIeQTq+Om8PH5nXOqlpy4UhAUkiiZe/lMqxXaSuMKNuApHP5v7pXEkV5d1JARd1EWCVyCWSM1f4RmIZbnG5ZJRJ3f72vAzzCHOKP6zGQ3VWP2f9MybvD2pd8+NvGrHvuaFmN4zzCwxlj+prV2USU9H2oSsOPDQGEx+8g2mYXZEG0e20FtZ+VSLoDx6fkQo3Y69OtqyZ8DaISFIK4MX3ltHRWZN0bEjrlJ9gq3pd4PG5tOcXz3089yDlTSn4cuU3bdpC9WIrsammACSV7uVzbXvlfMeOLxTt2OyS1mlNOym9bma5aS1OMCBV0wK8qnLwghiKUfbLE8GkikT73UdxZI8wAEYe1Cur6aUhSvWydM9yRlVE4npXuK/KVf34RXDWhd9z45D91L2j9tZDNTsoJNG/3pe6ZHl4M7cRXZHggR0YLO9sdb6706FEBgArPhsSPyY8a595ZtZOzJstd1ALur793PIzVsGkAHG4CnjWK3lwRYlQz8+7OsJgHJiYuvVOTsj4HCumbqku0uDsyEzHDk8t21Onm/bUqYYdm1n0Hbt5qZ8NCaSGpCib3bTL8+0woysfL5SLDGswxfCnIoDHJVGoUnHCwStwyShKpSxdqZayL7AxUq5ojclv+LT9e+TFStXuUF++59Zh/6Ty92qdw88+ek3VP96EtG64wr196IoFD3eYkkH0xai/C6IQGFM6uGBhc8td/w7C//XQOfviyw3fUIhfDljWQr2udDAZTMBPvKO2ja4PPEg9FwcwQoRhCMO3p/u7ZMCkC2ukXPoZJDYdEtWZr2DyxHdSqt2RucR/Me9bR2bt6dNte3nK/MHs9MKitVDZSlLZOIbkD7pSaUMb5PTnWQ4Y+oI2uWdWIS6XjKLpKreF2tVSGzQlyLMrPZVnXVW1l3dt9uwasl9425j92D0Tds+hug25eFL/e/00WqWq2qB24fZMvbLbhq7INQ+8AK/AlMG+MAye2JkNYxA6SdfOaRZ/+NiS/d9/N2tfPbpk5xbF+F0hRSBiLH1GL0nyaEbk2Pv6JM9Kd5Sa+Yh6Xc49QmPXS7NrVNzrTwhrJXbT+GLQskxDDDjf6Nik6n1kqm1PSiI9Kon0jNZHx6ZbtiAxFNnDgFLjBD7akKmhUSHaxjv9Hf85y/C8lJTlF21LW6QyJRVL8TONt++t2k+/ea994NaK3bWPNaVUOgDmcZVKluxb2NSb+seobR+6AsGj5vh6B9JgqNPVyBhPgrDwnwJpWVGnlpr218/P2x8/MWufP7xkjaSqMYuPRDjDSSqMSG1b94YB5awMXhmekk+0uvjpA+pEKGk9MLvAdPikOUjVYqOhqTXSnEDEw9jjkpjHpHYem03s2PlFAakrILVtdmlZ66iutaV6BnjIA2aEKb0n5IO/F3ZpCab3InkZkbJ4JaRg+0cr/ssXP3L3mL3n5jG7aSKOPmXgYOTSlgrcaR2RYroTvp3oygQPop+njVJTYGKXILpnDe0d3NSAMVioBWfnW/anT8zZb35z2p7XjM6v07U56Ut88cGwbxisHzxOXiZ/K+SOx8lSe/kKjS0EfGODg0p7Kk+YxcYR4MGLc1/+rTo5OMY/2yrYq5Pz9pWjiT0paXR8atGfZU1r7TTXTGyx2bZGu2NNtSveSZLxmT3y65GXuRYNRroQkQE/d6/+lcrJKfN6uWu7Rqv2jutqUtPG7MfvHbddNdRUYqOcBVgipVpO+3ycZPF/fLcXfK448NCYti4MCl0dwwKTsvXMgOiCVPFvfsGuGpQ27pq9MpXY37wwbf/6y2ftJd5C1axdTTpKW7ChaukiNgxSomuRgr0xJ1Qmi6wAaod6EvUkLDvsqNoVWKdB8eYSyUoeTTYZ3NQtU4zw4CPoAGJxue0HV1+dNVftHj+5LEAt25EZSaRG1zcaOOGQJeVOPp4rGa9JWeQ3II+mi89YHa1vSnb97rqkzbD99FvG7C0c7FSfFPlVOrbdia+1UJJojAS4mDRSGeQTiSaMYjkdz+1DV6Dk8S53GuzoFX4+IBmsNH4dTc3Fqi0Lda+cb9gfPDlvf/T4vD17tuHrIma8eq1iP3XfsP2z947b7buHrKQFr6fXhUncB5ZC/AEp2xEpeVmp3WnAoaCoF0DxxKnJKELx69myaCll/hmF1OIkN6qdpAzqnaTOuaWuq3dPnFiyZ8+07MXJlh1RW8/Iv9UWSJUxjAsYnbiJgVGmvJ3KllZxXiAW7yLWhdk3IlRunIRgwyPCWeOMVhJ7q8Dyw3eP24/eM2o37K748ST/xkDv4TTxld6rnjVODjwgV9t6U8S2oSsSPOulaLiuPJX3kSnYQrvgT/p/55vn7HMvzNsL58UQCh+R5PlJgecX37tb4BkWeCIpa9qkFEPrjI3KyDOUdQ511v2X8ul4NqKwMxIYQgVdkLQ5PtXwXxjngeyp2bYdntKEcW7Jjk437PSSSfXTGgl1VVLJF/j6S3wBxxQSDO67l9TXpQMUhQTEw15W+Eila99/24h94PZhe/fNQ3bnwWETbpxCLQOWslzCtl9OuqrBE/o+26j8+ll/IGGJv3lxQdJn1j797JJNLjRsRHhAbftf3rdf4KlZhQmTrtPaquu6FBsTupHaZ9ItZIhU5WEl5RsmcnldkSFMFJIwtFkCyV4VeB47vmCPHF+0JyfbdlJrpKmlts0tNm12qWktP30R+Tg2nMLi2+BSa535KUcdwAPlmiaTvUMlu/tQ3f7RO/fZe24ZtgPS01iGxjMtr4kDewt76dumqxw8Gng1vynVwVdAGklkCD+/t9Au2RdeXLTflAT6wgsLGuii/f37Jux/Fnju2l22mhbAwYxKxAnpJKQNPLb1DAFrIiVg/FB3enVSe7vi2oCXmFn6HRzA6QYmiaPzRfvWiab97ctz9qXnzttMm9ebUd3UMJ54VpWo01C6RnrMqKaM+ApaYh1/h6pg+wWUd91Ys4+8/6Ddta9iY7Wylx9TigrrxrOcTpHXOsJ/J1IueXwQy+mMyMNKWUCRZuijs4l97XjTv8Tz5KmmfffNo/a/vm+fvWmXmK4kBtDQ++9fwoopo26PGZXGYKgTg4wflPojMbK6pt5oai0BaVlrpNnljoDU9vePXjzftZem2vbCZMOelTk337KG1kjklPA8zNmn6x+fLGn98+ZrKvbDd43aj71pzG7fV7NxrXlibyWFCHbSYLbHTLNhusrBE4MYOjydATvJAAhJpaZm2pMLBfvCS4v2p49O2fUTFfuvv0/g2Q14WB4rnhiReZzzaTAIM/r2AA8UtcDltkw1zUh1p774ZO8EZcSzp0anYGekxh2fadlL55v29NmWP0c6Oqv10kLXppa7ttho+7tRI1rM3HtoyD54+5D94B0j9p3XD/XAGf0qwHpfURv6XTcu9P2KkncOXeXg6d/RSHw+zhjMx7Mgnb+ghXTXfv+bZ8UIiWbUXXbrHql5ZYAiH8ZftlBMMgbZYsrapYpgzZyAh/eUwiNqKXyoFcghwYjGsB7SpOBcofguNSSFl6TWndFEcnq+Yc8IRE+dadux6SV7daZjMwLRgdGy/ezbx+09N9Xtlomy1X03EmBkJblMlz2rDX2tMgd253YaXdXgcf6Q4WuUrAOCNKi+CMaui5iNLnrxfEczrNlB6fPjfM4VbW2AFeA2f6gHc2K2kAYHNGrIhMAdQ92QrGkd+a6C2s5hTCBEO7KdP59GlCQOlHa09kmsLWZvyd/XSFJrHz+Z2NR80/bXu/ZDd+/ybz34N9g8LxnXGdPyJWWQ8kg7cMp29c6ETVAOHhnmSOcPgCLjKgwSCB7CdEvWEHL84WupZBWNurOa4rCNy/MRx42zH+m2WBVJRzTDB5S1FTNYO+oLI/sXAeTpUoi2e2A8sPV2eWKpqt62gMOyUDTTiOdEtWJiB8arAgQRoyew+kGP1AdJxscJ09yjLA/dmXTVgwdylUWcFmeoGE6YJUJZCcRmL4tkvs7PzpIGnnCYgUhiiGBU0imFbyJsJWXs6Szrdwi7g1zOzIf2ppHUOshjuS0mAewRG2uAKQg7kwgB9B3nIeLcRvQb9zQnBxInKSI0C8OV5bbz6Ope8/jwq/n8w1Ep+wTLCVK6MStXYtrVLOoyysHjszPeStJlwRRJ5QXEtpYhqAPk7XBrMGxQtMWf7mro+WRWQB03reMBlqwykSLygs2j7VxTv65a6s+URFLnYv1EOsJ5U4h3oSKug4k+ljuEU6+AHUtXOXjEZmnrX+8Jvwcz4B48GIeQrOtS5Ow4Ghz6C3EycAQ+WTuj31b3GbCCXHJfML8rg3bqqF8ieuMB7se4EpkBNudPcBAaLjSPrmz92n0Rvq+fx5VGVzl4cspp45SDZw26mjRZ1CskBirYhVTXq6dH1ktm/z8NJyBhX5HYOQAAAABJRU5ErkJggg==;" vertex="1" parent="WIyWlLk6GJQsqaUBKTNV-1">
          <mxGeometry x="218" y="79.45" width="30" height="28.55" as="geometry" />
        </mxCell>
        <mxCell id="4aZ6oCYho0JEhUslpmCS-4" value="" style="endArrow=classic;html=1;rounded=0;" edge="1" parent="WIyWlLk6GJQsqaUBKTNV-1">
          <mxGeometry width="50" height="50" relative="1" as="geometry">
            <mxPoint x="248" y="79.66" as="sourcePoint" />
            <mxPoint x="328" y="80" as="targetPoint" />
          </mxGeometry>
        </mxCell>
        <mxCell id="4aZ6oCYho0JEhUslpmCS-7" value="" style="shape=image;verticalLabelPosition=bottom;labelBackgroundColor=default;verticalAlign=top;aspect=fixed;imageAspect=0;image=data:image/png,iVBORw0KGgoAAAANSUhEUgAAAMAAAACxCAYAAACSorJjAAAAAXNSR0IArs4c6QAAAARnQU1BAACxjwv8YQUAAAAJcEhZcwAAFiUAABYlAUlSJPAAAFo+SURBVHhe7X0HeBzXde6Prdhd9N57LyQBEOwURYqSqC5ZVrFk2U5s2UkcJ3nO88t7iR0njp/z0mN/cWzLjuPYsSxZsiSL6pVNpNhBEEQhel2URd0FsNg275w7M7uLQgosiQlgf+DOrTNzZ/acc8+59869YRIBIYSwRqFR/BBCWJMIMUAIaxohBghhTSPEACGsaYQYIIQ1jVAv0H8B3F4J0y5yc5IIByM4ZjGGIc6sgVYThjAlLYT/XoQY4Cox55Ew5fQJIneQY4L3+iTMuMlReNbtIx/wUBpDYtKX/5U4YNKHISpcA6J/mA1hiDBqRDyCwpHkRxKD6Jg5QtzxX4YQAywT/Ja8dPD5AB/5tmkfWoc9GJzywTrlxbDdBycR/+iMF3ZiCH6tfmKngI9i7Iu4SJPzOY19bgnSorXIjNUhNUqLdApnkDMTUxh1YTBowxCuI52VuCHEENcPIQZYJmZcPkzNejAx7SGfiN/mwwedXri8ICeRpCciJ2nvJsdaz5UyANE3dFp2LPUBPYWZ8JMiZKYoTNSjOsOAGJNGMEMI1wchBrgEWHOZnvNhjAg+jEjURRQ+S0zAjiV9z7gPJ3p9JPElOD3yOX6iDgoz+A1/FAMsPFeA6Nxi0CA6PAwJxAjcKuTG6ZGXoEN+vJ5UJllFCuHqEWKABfCSJJ8lArc5fKTekIoz4Sb1RCJCkwlYfVsTsxLaR324MOTD+KzMMAuJOBBmXz6fMS9f5AXFlTCDj7IJESibG6dDeaoB69MNSI/SCcaIJnuB7YkQL1w5QgywAGzQdtg8OHDRhbYRlv4+3JyvQWKE3FOjviw2eKeJUd5v86Fv0idUIcEESv58gg7EGSIu/oLCwlccR5TwQgbgOrANoCUVqTjRgM3ZRmwll5egD6lGV4EQAxCYyByk7rQOe9E86EHXqJekPxuzPqGbl6eGIS8uDIkWVoZkMEm6ieibhn24OCKhl5hAJWKRTxEOC8fpSpzBRnSgHJehP+ErjiNKeCEDqOX4yL1GqvFcmWrE5iwjCshWCDHC8rGmGYDVHZb4w3Yvuonom4c8JP29GJ32+YmUSSkhAihNCkNBQhgZp9wSyK+MiXOMVKFGUoMaBsk2IFtAECw5Ppsur4TJKdcLDjP47S9lH6hhPwOQL+eJmD/MMQMZy5kxOmzKCsdGYoKyJLYPNKKuIVwea5IB+IG5O9Pu9AmCP9vrFm6KmEHk0ytRX4pKcMXEAOuoJYgniasJU8qJI6gF8OFsvw9DDrlV4HRBpEoBEVeuGRxmcJlLGsgiLB/YY4YKtEEUFv2hSpyCPIawjuyDRzZEICtWR7aBFtrQWP9lsSYZwOWRMDYj4Z3mOaHyTM76xEAWd2UyBAHSW+EXIzsJcaYw5JAaVJOuIYkrvzL1xbFB3DUm9wo56DostcV5SgE+X5bkavp8AudYoGxQvsiTA+xz9SwGHg8IE12m3CXKYT25SIM8iBZn0SA1Uiu6T9OpVUgjQzmES2PNMQB3YfZNeHGiy436frcYwGJViCETnfw65hEs/elJkrIhXJupQYKF++jlfAZPd2CGqhvwoWdCwqQzmIAXELMIK2kizD79KZlqnNUXVmN4NJhHibmXh8cI+L6cp44e6ynAUt5EFWRViMcPyPOPMsdbeEBNJ/JDrcFirBkG4Kfk6QtM/PV9HrxN0p+ZYaFkDoRF0J/OvsUAFCWGoZBsgQQyiNURWc7jXqB+MoQbrD50jfswx6oQZQji5jIiLMPPAEoax5g4mZiZuFm6M+EnEPFyN2csSXqeGsHSPixY/VLOV+EPK9fnZ2OGKE82IIVagghqJUKjyPOxZhiA1Z6ecS8OtbqEvi9PV1AyCTIxygl8DCZOtZxGSFoJW7I0KIiXJbKSJXy2Ky4MeYVR3Dupnif7HFzqmnK6hBiyLZJZdYmUfe7b594cJlgx/YELi4N8ojjSQbmMQPBPGZzOg2UlZBjnxesFg4UQwJpgAO7i7CPiP9jqFn37ow5Se4KeWgTpNbAvnJInhwPpDDaA84j4i6gVyIvX+NMFKDJO9kAH2QOn+lS7Yj4DiBDRIBN4NEn2KLItYihsIXXHTGqLSVF3mFAXkqo4nY7qZYI8JU2NBdIZHI4zaUV3qWACYohQSyBj1TMAz8wcmPSgyerGuy0eMljl/noVIkgHJisOB+Jymj8sfLlMlBHCIN6QxoTL0xH4JAJlsjlhm5ZQT/YAM8Kkk7tUKZEIjgmbpy+wizNrhREbY5YZQBC8QpRcXPhqgOBPU0PzPdlfggFUn20G7hUqTNCTLaMVdQlhlTMAP1n3mButQ240DXrQOOjDrFvJJIgHpwP7griVN6HGRVjNVzLlMMi4DPOPDUSGK9JaKcu9Scx477V7ySj2CSOZDVSWwDlxOmST4zgTJZ+h3pcRFJxXHxl+8vcnqnHh0wl8DoeFE2GRI45a4jDuRVqXZhQ9RfwdwlrHqmUAnqowS0TYaJ1D/7gHQ1M+nBvg+fpyvnhoQSBygP0AwS0kJDlDDougMC4jjRI2ZXEvC6svcj6Dy7CK1THqg9XBc4tk4o8mdcdMhmg4SV+/CkKF1fMYIqwkqOmB/KCyFAiky2FmNDbsp10+MYrtJLtHqGCU5+SJfJTHzMkMwKPGGzPDxblrGauWAXiQq2fUjYEJt/hwZYp081O9EhwuhXDoID94gKj4TahpQm3hkEhbugwL0IIEDYoTw5AdoxFGMoPTmUF4ZNjhCoPDrSHdXiOM0flqDl1XvbACEVXS1KxAEZmAuTeLW5gZt0zU7DjMDMDG/iw7ivM0be7i5fN5NiszBA/U8fcGW7PDcU+5BZkxetG7tFaxKhmACWGI9P76vjl4KMzTGqaJ8E/0ECM45SkQ8kMvRdgcltNFXKQvLKfk04GleQkxANsDPG2ZuzBZnzcbSOcnwiI2IeIMw6gzzD9hTlxHXEG+RjBElA5qMteVCVn+5oCnXstfoo3N+Mie8QqbRnZev7RX68jgMF2CfCWupJUkGXBXmRl3lVqQFKFT1LG1h1XJAINE/H2k+/eT9FefjlWfc/38xZYkJChDfXAuo6ao4UCeSkocVvKUi6rp8WTI5pMtsDlTK0Zi2cA0ECMIaU+FiHYxOachF0bSWT1POSoXUTwBfxr5bERbp+h5JjwYdnipRZHnHLGKJxyVUcNM6Op5XGu+jBxmn49qWP7YJjNWiz/fG4/yFOOaNYpX1dgg0YD4cmvU4cH4jFf80Cr4QXkUlQecVCLggEogfFTDcpzzliB+JUUO8z0lQeg6rRY6Ev9s3DLxs0RlkuI87nqPMEiIIpuBxxHkMwOeCq4/6/CDdjLYh1w40jmLDzqdONvvInvCjSFiAJb2/KEOqzjMyNzaMRMEX2rBZeeB8/gZ5kgl4hmv77bN4OIINY9rFKuKAZgYrCQpbUQozAjB4BFUJj6e0iATQcAxrpT4GUzYLPGTSafmKQdSmJaIUeNXc1QwExi1EiLo/pHECMyI/OLla8r15vlI3F3bZnOjZdiNC4MunB9woWnYhZ5xN8Ypnwk+oL4F/GAsJ4/BYbYjjhCD1Q/OiZaGn3OtYVUxAPf6NFjdGHEEfkwmWv5jIuQ+ezZOxa+v5ImjQuzq7z+P+P1OTlGZQRA1EXJ5qh7r0g1Ii9GRehOGqTlWtyhzCRh1EqKpFYghx7YCg0ePp0iitxPhH+ucw1vNs2SrzKFrzCMm1qnzlBZCrk0Ach0XQEkIfh5/Gjn+frmFpH/9wBy1MC5i3kVXWPVYNQwwTkYhj/Ly9Gb+aJ1/8qCfXagkrIIw0XKqmqsStFpyIfEHHfweqzjcrbk11yjm4fOkNBncG0NM4ArDNPlLES+3GlHUCmhJY2eJf6jdifdbnThH0p51fNF6qI6hEKVIooNSazlBDok6+yGCcr7I4+hHoIFam7cvzoiR64Wt12rHqmEA/oildcSLIbvcDSigUgA5flCTnntteG6MQhh0UIswliJ+fwp5zEQ8XYFXaShI1AmfJ6nJH6bL5bibkvv9J5xhmKEWgeMqmE7ZWGWVhxQleLxe8dE9L6vC9ec1hdT78THYBUONC38B8c/LW4Cl0hgDZGSfpVbgnHWOVC2vkro2sCoYgCUtT2vmdXomZyUirEV0ISxS7p5kJmDH+ZyuFrsc8XNZ7uPnLk+eqFaSzMuU8BTjBR+iKxcg+1T0+NipJXASE7CRynVkwuc++wnStyH5EEk2QbyZu0tl45zBl1Auc1moZZYqe7nz1esHvx+2l7rJznindVoww+XOX21Y8QzAPySrP73jXvEtL6/U5vIy0ckzNYN/TA5z/3ykMgAqiIDcRxE/hyKNGuQm6FCTpUeKMo1ALqFAKaeCw1PEBOPUEtjJLuCvzcZEf71PDFZx7xF/Y1ybQcyUoEFMuMJJCy+iQK2HWudgqOn+ZCUgp8tPEjiPDsKXPVV94rGFo2QQs1rGrdRawYpnAP6tusa86J/0ikEiD/2gLGW5O1GF+KHlICwk/SONHGLCUP9kCCJip6RwmCV8Kun7hUmy2sPTlvkLrPkIXIOhhnnKddMwdzW60WrjiXjySK56HzbIY0xhKE/mSWoaMZ7AxjWDr+Gvm3pBJSDnqaGFCK7L/Hz1vIVncZwH2qx2D3omPBiZXjtq0IoeCOOaM9H/ut6J0z1u8bEL/5w5sWHC8RdcCx+OVREeDe6ekNUOP8EpBWVPJlQ3MxT5GXH8aaEWsUT8cm4wiOCCEjjII7LcIzVo96JjlHR8kqr8IU1+nJZajzAxVjDvJEL3hA+NxCwtZMcw48jfFsvEHKibfC+Rxo4iSpaSHigvpweVF34gnyGHlTQRBj5RFYn7yiOwaY3ME1rRDMA6Nas/Pzgyg5YhjyA8RhIRflZMGHLjgyQ1ZfFPHWXiPnsdEqP4o3H+xHAJaU5lebUIXv+TDVS3jxlJnvE5/2XJZYPBUVYneG0hHszia7BKwcy2LlWLdSkyEwTflc/h64xSC3Gyz4OLxAQ8Yi3/yQXkMkqcw+yUuBxmX86VwyIkwsTDoqycEsjn8oGynC4Jwr+vPFIwwlrAilaB2OBtHJTn+LPqI/+o8rQHMemNf1xOJ5+/3spPNKI42YCcBGICUjfYGOYV3+Y7ZaYnMUdatAblKTqUJGmRRPr6PIOX78Q3CwLr9T3jHtT1u9BgdYl6MfHz/bkl4dmhZwe8GHbIn0wy1EtwSxRlDEN1mhYb07ViHSK+X+CW8vPJIXL8XHJUuYgc43vJUfm+QVkCnObHgjBH20dZXXOJOVTzyq5SrGgG4HkxnSRpuRcj+MeSpwSTGkHExxI+PkKDLFJj0mO1SIzkSWu84rKs318KzAg8d54XnmJVKpmkNrcs/F0wM0ow8bBaxV+dsS3SOuJGJ6k9LPl55FYlQvb5a7FOKnNh2CfyWe8OBo8vJFNdC4lBy4jpCuI1ZLPIdoFacv4Z8nX9aUGZC8sx1LRFeZSgpo3NetE76SbnISZd6iqrC/xTrliwnj1Axq9MaAHHhMWGMKdHmTTIi9ehPE2PWDI4xVSIoLIf5Zg0xIoQ1ALk8upwZgnhRKjMO5zLxM/z7wdIVTrd6yIG4HlIPBDH9wkQFvvcQkw4JZzq8xIjcI/Q/KkNDD4n0aIhBtBha5YeqVE8uW4+s1LNxDnzzlNcMNT4UnkqFuZxfWxkBNdZ5wRTr3ZcTgje8OCvuwamWNIGfkj+yQJOgxQxT0cDyeeD7xqcJPlgIHGRRgQZa5anNTCxjs3wR/BunOh2YcShMKOoi+wzRFwwEzOB/IF+ndWLM1ZqCYhZeNxiIXjMge+1K1dHtoNOdMMKg30hVwkE0tgTzCtHRXF/vppIAX/9gtOUMDPA6T7n2mAAxV9xYELjr554EhmrOoIu+AdUfF5WpIz0d1ZhWGUJlupX6/jiBq2EeBMRKKlQvRNE/INuYfAyI3CdmMCpNJUX1eTqKOcqYXJcZpxagrZRLxm91BqMq5tqiGICPGWC1bcUUtkqqDWoSdchlcJGYgz1OgxxLyW8EHy94LzAOepBReAa7LMRf3FkjmypEAPcsOBemkmSnmJtH+V34h+PXXQ4kBWrQWkS69BMWNfX8TgCT292ur3C6B2ye/2qDJUQPkPEqbw/LEKyz8YxT9qrt3rEUir87TAzATOHWoYFPi+Nwp9cVlErwHYBMwFPx1DLMDjGRj4vpJVArR132fIy6rw8Iq8QJ1aQU0atxTl0UM9dCtNE+H1kA3AX8+XKrQZo/4KghFcUWPdvHvaIqcP8I/l/KApsydFiRw4Zr6S3c8JCAr5Wx9dkgzWWWgImXjZu5VTO50rI9ZHLymEBCoh0/lMSicYwQgYxjxZzUiIZwTztQiZxBRTh1iCdGIFbHhepfNyTpF6ZW4sYMxnNCXqsTzViU3Y4duebUJGsF+ofL5vIDMpzjURrKc5aXBcZge8L7iqJIGbSr2w9+SOwYhmgndQOZoCesYACzToyz/fZlMndl7ywlJJxncGEzSsC6UkdarXxRyrUGgR1GwpvHlHxOUqAM4LzKMxSn7tFefozT5lgImcpzwtiqUX5ewYeS+Dvd7l3ig1jBxE0rxzH3/feX27GztxwbEgzoChRjyxeFzRah5xYPcqIESpSDMiM1vq/KBM9UEH14KBwShqvHbQz1yS+dQj3r/uy+rBiGYANT17OnNUIFUzwLCWr0+SBMP5JgyX39XRMmix5bTOSaAHYZ4ijQkSMoCDXhs5VIoSgM8QEOu665XVFmZH52kzsGiJEdTlEhpEymAF4nCLCqCVGNwjC35JlJGJnlYfnFZHqx2XIDmKViJdA4Q33eD0gbklYZWT1xk734ysHVUmA4zzDtSYjXOxCw+sJrVasWNaeIkIRXzFRmImKHc+qXJ8C+tGZ0JbuzVmu83pJr7+EU8vwjM7SRCBTMJtCSOLAnkxcfBD14z9/nuzkVCVOB57+wL1CJ/o8YkSYVSO5i1cU9oNbh9xYLR5db8ZjGyzYnm0gm4Q1JS67tGPhkE92wWdqIvBgpZlUJQO1MMzIAVBJURcGd9lybxB3NKxmrNy2TaEc8QMrf7xtEBN/uPbyBLwcF8wMl3LctcpTmk3cJarUKVAbNR5wDH9YEKYSVzLVPJbOneM+vNPuRgurWMTsIl8pp6p6vGQ7f2a5VN0u56pS9diWzWqSVlyHIS6tXJ/BatmQwyNP3V7FWLEMwDosO0FEimMJaNHztkbXzgDLcj4v6cq+QDerQkHiyHVSwsHpIiTKBsUVX6TSPxusrJ70kqFfZ3WjkWwdKy/jTnlM/NwCpJCqwz1cWpLiSxH55Vy0EShN0GFXrlFMv1DroILj8qAdb/YdYoAbEqwaqN10qmNZpiPiD7uE+rMkEV+D85ELk9gFiEQlpkC95BTBpHJISVfjaljNlR1LYO7i5dmhdVaPmFY9SuoRPzdP4+AJdXpivKXqtRyXRufvzjVQK6IR9oZ6X3Z8YJ9H03kto9WMFcsATCCBvnfV0VEQ/9I/+lJMsdAtdd7lHN+L7Q21DqIK7NT6sK/EheT358nguIgpif50xTGsU2wXuHGo04WOMXnFCw0/5xL1Wa5jNTHVIq9pxL1OSkUCN2UEV2KVYsUyQLCBpzreqd3p9sHtWfpHX45biikWuuDyLrofz5yU66TSjPwXnMYBOS8IcoY/MZDHaYFEnknKg2Q8cswfzs+SWPZ4PNfkvOS08CLBxIN6sh2gIlD74DqtTqxcBljCCUIhvZWZYCnCvR4umEm85Phewhah+zPmEQ8F5LCcpqYLiDw1N+AYgfPUdHkAi7tbeY1PEv1LEvWVOm5B4sOZAdT7yPcSII/HHdT1TlcrVvTjqYSiOiYSsbrC3Hypfj1dMDP4SAdjY1UsdyjqQn9KZeYRvz8sQy0bCAfyRWvmDy/II2fWSeSujz0j+TxkBPtIBVLuoN6IwG0Cjxms9j2HV7AKxL8XE1fAMSGet2kxPE1CMphQL+GWIoorcW5y7WOko9vVuih1UxwncJqSLCDH5UQ1jx3DT/zz8uRcNc7LloxOe+B2u6/Zzbk94rNNHn2edy9xlAfieCr4asaKfTxeWW3hCD2vBtFv12J0Nkz0oHwUoQczw5U6D0l/vkf7RBis00o3CkEmJDkUCCvpdAgmMtUx5kl+v5NT+DwZvLKEJAbIlnqeK3W8LtGcsoKGKufFfelASfKcpNXdAKxcBuA1eXjNfZlQZMe2qN2twdCMBiMzFCciZbcUAV+r4y7CISL87ilmuPn14KMqsf1OxDmkhmXHmEf8/jw5hePCV8Jjs6AWjuwO97XZAS4PET89QziJeJ7qEG1UNuWTbyfA4RAD3KAQ+2uREwQT5Lh7tH5Yj+NWPRGq3E25FAFfq+t3hOHVDgNs1Now6Lbi/nwQdVHSGCKdY/wve0F5QcTvd3KKfN582IgBBkjlmiI7hw3ipeq2HMejyz0OLVKj9NiWZcDuPAOyorVikE25u1CBDKt5KihhxTKA2EQ6XMx+WfQ34dKQZNahcVQvVmcTRHYdnEo8TPRdk1p0TOrE8oeCaLmM+FOIWAkIXwTEv98x5HOUMDsRUVLUDIKcJyc4SWXptYfhUC+1PDNXpwrx0uqT9F5sczpSczRkCMvfEFSl6VGbYUB5kg6JFmYOndhsezVjxT4dz3RkJ4gjyDHo98UIqSWnh4ykCmlEN2Ww9Lt6x92RZPRO60h66omINPDwkikKcTJEPZSo7AUxheIYH0X88/PkGB958I9VvCMDWmF/cNco6/JLEfpCJ3R+ajW43hNuPWZ9OtFiqtMrcmN14uuzdcl6lCTokB9nQKxp9c4EZaxcBiDJxNKJaWMpNzGnxRmbEb3T3ApwOSK4a3RsY8x4dLDOmTA8F05pfC86EPgonBxV4vwnp8lxGeJ6apidiMgpalkRZqdcUA6zL8HhBtqoBTpq1eHieJhYwIvHJJZm2oDjco45YiCq+4THCJ2WvzMOqDh8D2aE7BgttmcZUZakF9u5rmascBtAKxNGsKMDEw1P5mLp5tJFYSIsDkOuCLh88uYVggCX6eTrSJgkidk/F4FBTzQiTOFi6RJe0pD3/GVr0X/voD/xL3vCMcR1RUDJUyN85LgIyT6XDYTZD8SZGRvHdXi124jn2o1oJ4aYJsYIrnuwG5jW4DAxzPcvGPH8ReCUlWeZ+sTg4ULwhzh6Yg6DTl35evVixa4Mx5PCeG39f3h/UqglTNgKfRDkr6d4S9K9RSakR1Lc50Rk2AyMcEIvuaAL887r8VgKPomkq6TFjM+AKa8RDp8RXo2BcnjVZ3mJE17nZ8DuI32c1SyZSNVq8JuVw8rRH5+fJ/zgPHbKzyKH1Ty5rJIlwrxSRXy4FxXxHiSbfIjS+8RgGX+8z+9klmwG3qtgkNSmjiktLoxricA1YhIcf2vMuj6HeVYoLwjG74RbhqhwHW4viUJyJE8UWr1Y0Usjftg1h28fnBQ7Ji5cxIm/iOJPArdkG5EUSS0FPSbrwAaPHWafHRatS6RJRCUs4YPBagE7D3SkJ+sx5I6AG3phMDLU0nwajwS3j/KanvKOLixROZ3LCBd0bTUUyJdTgm8v0pUEuUwgn8sHwnJcBAgsyLk95CnSSSav2IqJBcOoUyOIP3glOvUa/EFMcoQWebFaofbEEiMwE1gMvICYATcXRBCDhBjghkXzkBu/qp/Gqd45wQQCytPwp4Dr0gziQ3FhK3AWPSpPX+bNKXge/ZRjGhPTc5iaCayJzyoxN/+RlnAYDXqZEVh1Iqnph1KYPd5WiPfaGp6WUD/oEUap+IqL85VXq16bAyJdOCXPn6mkB50jx+VYIKzm0TE4LsLy3sU6ejb2+Y0wQ/KUftFCcglxWuBEXk2CvxbjHrXMKJkZChKMKEk2oSbDJNTM1YwVzQA8jH+yZw7Pnp0Wy5Oo4B8/gyTazQX0AxLxi9WYl0Czlc4bI+ZRlgPnF8ElWdBHmQ2i+ed587wXADNGEN0okENC1SCi50W6rHYJQw5e+tAr0rmEKCUXVeJyJPjNi3QlQS6j5i8mfuEHl/XnLS67uJxSxh+XU1jXjyY1iFUi/hj+UzWx9A55E5AVayYuCyv66ViylybzkodsrCmJBB7R5JXU4pdcy1/+8Vly99s1aJ/QoduhF67HrkeXXSf691tssmrDkp2Jm7sf1XNlBELMHNx7UhCvRXEir8nDurVG7B3GtogKPoOncPBiXbxqQ3GivFpDZaoBpUl60VpxOo9xCIZTzlEJVUWAcIPDyyF+JcwuOE4HXml7hFpRtmfYbkiL1gsjeLVjRbcAXHGekvDPByZxoscpZoIyeDnEkmQDajPFThh+qA/Ki1KxmvJ604xYvz/YBlBDTH+sGvBCuutTtWLRWnkz6cVlg8FSnw1k3vmxcciLPmoVeKUHLs1HZsraDCOpF0bkxesprhVMwR/481x/3rv39ZZpNAy5xLMF/zriKkqCHBZBceX5cQ7LkUC6UsYfV8NyRM2rzQjHg5WR+O3amI/sJFgNWLHLojDUH4jX5OTVlnkjaQaPYHLzzXv3zof8YzNh9ZLK1DnmEaseyKkygomD7WoeRFOXD+HV1dhIvBRlcBmW3Kwy8fIl3EJx7wpvzKclvWpHbjgeqLAIvzBBJ7Za4j0K2GDnj1K4ZeAlTAqpJeDlSFh/5/rxZ4l87asifhEKhC9XjuN3lERgT75F3H8tYMW3cdxnzQtBpZPOz4TJPySrP6z7Xwo8FaCbGEAsq66kyQQghxkc5JaBe5cGSS3g9Tu7JuQVGnj5ksuB78xqGKtBrA6Vk5q2O9+I2wvDsSvPiIpkeZ1P/hCFv+tlg5yXdInlPQmiuIUw4LZCkyhfLIx4Hm2Wrx1cz2URPx2Cw6onnxnIYxsggQRGSZKR6kwcu0aw8hmAniCPJWa0Tqgs3N/DPRrRJhbTMokE/mQVhZcIZKOZF6JievE7cUbwWXI6S+J+UmXOD3rEgris3rBNECgvOz4EriMfeZ5NeYoen66xYGu2AZH89RUVupzjCR5ZMRrcX2YixjGILkpOE1fkg7jywrh8XX9YDQiPAkpYhhznJOHowDZMGRF/PhE/q2VrBSueAZjM+cfjyVxsRMaRFGOVgrv3+Mf1Q/m1ucuS1+9nnZu3VFr0R9Qgem8Ux1YFn8ppvFx4/ZBHrNLQQS2C2ucvCpBjzx9RjtFkoOcQARu1dO0FUxM+ymk1PuzJC0dVmkGsCq1Crin58m3ksDiqYfUQSGeoeep5AkqYR9b3FlroPa4N1UfFimcABuvcbFDuJGJh3Z9HgMWD+X9xjsiYmPVi2M5fc/HILZEH5alELMJyscCplKg6Hlhig7Z/0icGvs4RI/RNesUAmExo8tnqNYgHhcTn7ZV4Z/hLrVZxKUcnINEMVCRpsSFVJ77O8t9JuYl8VzrK/zL8eXJZPrCvhlVPCSrLrOiwJcuExIgQA6xI8FLg23LIuCR7gA3PS4EHzIbsHpmoKX4px+AyKgIhnosviV0dz/S7xbo9/VNewRhi1qlSkD02mHlaQoSOm4qlifyjnERMkxsThi0Z3C0pX3cR8QfDnxfIkcvJBzU9kMf7FetQksiL6hqEyraWsGqeVhidEVpUkwEppj5Q2lKO9XeeR8+qjareqI4pS5X2bADPzxPZsqMoEzoTfNuYB6eIEU71uWGblplAFCeP15SVF69a+qus5Tpe/jDJQj8W8TVfV1xfODrKAeEFonLdGWp9OaCmB/Lk+Po0I+4ojhDvcK1h1TCAGIwi3b80yTBvCq/6gzPBcvcn6/G884lK6PNcUHmGCNNBODXuP8rSnrsoWfr3kpF8khiBp0OwWsT2gVg2Edf26SI7HTyIM/qEMczjEfwdBGl5/h+Pa8SHQM2UuJLGATlPjXOSJOykimQjtpLqU5lqXPUzP5fCih4IuxRaht3oGncLg1d9ODZ42fj9oNOJC4NzSmoAwS/BH1YCgbzA9YLfWlBQLFjLXZy8HPn6RB+K4ySkRyqZVwluVAYcwK9agOEZeQdM7srlCW7c4sibasth2bAP1E8OyxElSeSxwODu4nvLInFnSQSq09fGxtgLsSoZgFWcvgkP2m0uJUWePs0DX2f659Ax6lZSAxAvQXkT819IgOgZSxF+8CvkEGsSvKbOPQUStmcAhXHXJlnZ+B5zhuGszQBqwPzgrlg2wHlPL77vOPnCIFeqI3uL688prO6kROrxxW3xyI0zzJuysZawKhmAe3h4h/ezfXN+XZ77/jneNOyC1a6ITAWBoBwKfiEL3878vIVnyuVZurLbmOzDnmwJO4gJrgW88feIU4sWu5GYQWYmvh/fi5lAlfqsdqm75XOCSvpKigCHfVQuIUKHsmQTarPMiCFjheu7FrEqGYDBUrGLJH3/lEcQP08peL9tFl3UCnCeShYLiSM4YXFeIEUN+f2gwirhJZsl3J7jw8cKvddEYONzGlhndRiYCyd1SBnfmHe/AOQ8OSU4XQWnaakyufFGbMqyIN6ig7pHwFrEqm34eEYlT4jj4X1u7llSjs0qBjDlL+nosChNdZS5ZDo7Pqhh8SeHecGsPrskxh5c7qUN3I9yvNAvqzW8igMLd3ErcZARFJyXF5yugtO4rrFmPdKijUiJ0q9p4mesWgbgDg3+cZkJeIxA/nDFJ9Qj8UeEsNAx2BOOEoLdvDzV0UG44D81TaQDfY4wfGgNEy3QUv38l3c+YfBOeXTic0yfOtlJQVBQDvNNuQ4cXgA5h5iIfvL16SZUpMyfKbtWsapNH1Y7LAbukdGJ7lGefclTmlXinOcocZ5bmC/KBDsuI+fMywsqz4cBwQBa9NtlO2SpKQ9LObHyNCn1/OF764QGo7PyBnrc0+O/vgL5XnJKcLoKTuNJgwkWPXYXRCI71iBWhAthFdsAwWDVgb/Q+mWdAx90zaLN5hZz9oMR/BoWvhARp8PCEmo8+A0GBf3X5H3EbstyoSzWg/QIL2KNQpZfErxe5xjp/b0OLU6PhsNOLYBWKy9hwtOmeeoCL2IoPmLnRkHcRr5XUFCAJwvy0odpUQYUJYVjMxm9a7XHZymsCQZgMBOwCvTzM3a81OAQ3aTBD36pMEfkePBRxlKEvxQjsR9Gh3UJbmxPdeOm1DnRVXopWGe0OGLV4YUOAzGqRowD8FXU6/GpPP+Jv4TjGbBcEc5TXdBBrJ+6KcOEB9dFYVuO+bKMtxaxZhiAH5Inv/FYwLHuWTx3zoFBuzwlWuQHvQUlRRxViBgdglPnhZcgfLW8HJcQZZCE9OdR3UxqCdIsXiSZJJi0PrGcY79Dgw67VqzcxivbsRHNxK9eI7iOLPlZi1FbADVLLifHeGrzzjwz7iqJRHHi/BHyEGSsGQZQwf3kLP0PtM/iZK8TzTwuMCV/UL/wRQTHg9+SP6gEVNmspi9ZlktRRI0nm5n4ZWbgqdK8hukQSf7eaV7CRCZ8GYp0V+JBySJH5Mkp/jK83ElBvAE3CeKPQFV6OKlOIb1nKaw5BgjG2xdnhGO7YJrUIzYwWVUSUPwFUQFBdkEJ88ooEdmTCVSAAmrY74tAUBlCMJOoOcHEH3xvOS6Df0ZWi9jIjyWd/4GKSOwrtmBTpkkpEcJSWNMMwANivZMe1A/M4dcXHGgbdYs9xoIR/HKCX9W8dOUQnKumBXkCHF54HRFTkvxErxyUZOGr5/nTlACfw8GMaD02Z/JH7VEoTDCIRa+4FyyES2NNMwCDZ4hyD1EdMcHpPifOkd884hIDZ0xhwS9nUVhJkL2gIx2ULIFAmK63ME+JzCN89oMKcTCY+EVIyeceHV65giez1ZK0Z399qlGoPGt9kGs5WPMMwOAXwEulnLe6hDrE9sHItAeTszwQJbcIwS8pmABlL+hIByVLQA0LAg/KE74S4Tw1nbGYSeQYH0VIyeTPLVMjdShJMuAOUneYATKpFQhh+QgxQBBY6vPOKzxOcLBjFkeJGeqtc/OITvYCr2xxngwOq0SvxlXMJ3CF+IPKqXkLzxdOifNKEttzLbivPEJ8zMJbHLHEX4NT+q8JIQZYAO4l4q5R/mySJ9J1jrmpZZBnkXaPu+V1P4PeWPDLC4QDZdQ0fx4FFJJfkOYPKnG1lAzWZnhPBNbtS5N47X4D8uMNYgkT/pBdLN+olA1h+QgxwGXAvUITpAZdGJpD45ALrWQb9E7yp48+McGN5/dwr1HwCxRkqySo6X5fBOSYmsYBDvvjBP5JRD8/UX2CWYukCB1So7RIj9ILBuA+fXb8QUtIz782hBhgmXCR5OeV5070zOIctQhsKKstAk+wYxuC++5ZjeKJd4Ixgt7sQonOeUy6TOg8xYFVF+6/5zk7nMYf1LBxW5UWjq3ZJmzKDEceSXx9SMe5rggxwDLBb4lbBJb6bBhz7xHPJ+JBtP4pN/omySfHPqdxz5JK8v4XTIHgl82rVrMUZynPexnw0iSsy/MUblZrsmL0ggmiwrXiO+BwXWDR3BCuD0IMcA3gFzdJqtA4qUljMwF/wknqkTKecKmXy+m8+DIvPy6WcjTxco7yNqVynDes0IrJbCGa/69DiAFCWNMIDROGsKYRYoAQ1jRCDBDCmkaIAUJY0wgxQAhrGiEGCGFNI8QAIaxphBgghDWNEAOEsKZxfUaCJR8wN4T+zj50dIzCgQikFBciLTMZyat6ATIJTuckxgaHMdI7hFmHAw6fD/7F1yMiEJmYiuTkTOTEGGFcQQvy8M40c0NN6OwbRveUFhFZ61CYEil2z19VYAa4ZnjnJKn3l9JP//huaT0skgEbpUe++ZL08oCSv0rh83mkvr4PpZ9/+2vSpzdskHYZjVKKPM1HdqWlUvkffl360wNdktVB72gFweu0S73PfkH68l1ZkiW9VNr4lx9ILzdMKrmrB9dFJEleL2zN9eh02jGQl4ZcfSdGurrR2DqmlFh9GG87hw+//T/x53/0VfzdD36Bw/3DcGZvR9mOfdi3axf2lZYicXwcPb8+grf/6Q0cH7FjSDk3hBsH12GneDe87lG0vPYzvNvlRbOxELeaGjFmyoc3Jhc316SAG81VZWyMNqPp2Bv4t39/Gq8NRkGfUYKb9mzH1p17sXlrDWqrKrCOGCArLxlpkbGI1ZqRc9sGpMRYEKtc4saHBMnthNechsS8DfRc21CbG7PqVKBrtwF8E5izN+GXX/59/HKsBN05e/F1fAM/aa3FdOHD+PbffRy5WlKHV9GcXtepH+C5Z57GE9+pQ8TH/gqffeIufOWufCRR3nzyILuoqRWtFwaBW29FfnQ0MpWcEG4MXLtgdo7B238G9a12aPSpuHXrFmzaehsSfU5SEy7g1AAwuXhLrhWNrvbzaL/YDp22DPfsqsItlRlIpPTFCw/GIym3Chv37sVGMojJPgjhBsM1M8DchA0j50+ieTQD+oR81NQmIrZ2M4qivUgYacXR86OYsC/ek2slY845g7lZJ8LCzIiLikCM2QhejGRxI6eDPtyCiJgYRGi1okwINxauUQVyYOj06zj5w2/hT49uRvUnPoY//j87UIwWvPa/voH9h8dw+ta/wz9/qhjbC6KXJgCXDbaBIXT1jGMmPhc5qZFINblh7+vFyKgD47NuzArSsiA8Mh7RifHIzIiEWauZL3E9dsxODqO9ZQCTphREJSWiMt0grjM6PAbbpBPTVMyHcOiM0bDEJyMjPRIxEQYY5CssG83PfBHP/ucL+OY76bjnr/8Gj92zFXcXmME9vles6XEXsssO25AN1qExjE1Pg/c1A72tME0ELHFJSE4l3TvBLOopX99Fp02hr74Tw24TvAnpWJdhhHdsCCNDI+gcpSe1pCGa3mOsdgQDo0B4YgGS0jJBr27pzyp9LuJsG7raBjA0ScGIZJQkzWFqchID416Y04qRk2hBguUSNoB7Gk77BGwjQ5gYm4HDyb+bgvBwmGLjkZZZgMRwDUzBP5x7VpzX1zuEUcc0Zly8sSFXkN5nBP/eCfLvrdMsUC+vE5gBrh7npVPP/qn0pCVCSr37b6Q/eb5J8kr080ke6dxPPid99ZFKybj7u9J/nOyRRuQTFsP6qvTyX39S2p6YJSU8/pT0D2+fksZaX5fe+eM7pN8rz5QqzWbJbI4mt0kq2v416bf/9phUZ5+TppTT/Rg/LXW8/lXp0fw0KXfvl6WHfnBE8nlbpVPf/ZL0f3eXSdvoOnHiWqVSasFvS7t/7zXp+XND0rBy+pVg8M2/kr796SIJOpOku//vpN95oUXqoXS3nH1lcDslqfeotP/v/0x6qLZWiomMpDpyPbOkqJg7pdqHfyz9w/5WqZeKeuQzCIOSa3a/9J07Nks3b/qEVPVX70udtmap8dlvSN+6v1o+v+r3pb0PPiZ949NmKTfNLN38e/8sfeekJLm8yiUWYtYqSZ0/lL718A5pXdZ2KemO70jP/9tXpD95cqeUUFAl7fjWMenVC5fpBh1pkrrf/Z703S/dIj1WnC6Vi2dQXEmJVPk7/0P6x8ZZqc2ulFcx2ip1vv3v0p/ccxfdN0s5h9/BRqlgy59Kn/rro9LJ8Vnpv6oD9tp6gbqP4szhA/jegXZk3fMk9m5bj+o0loPE5Y4ODPd34aX3TiCxfCeSkjKQEyWfNg/2ZjSdOoP3DrbAmluOxOHjmPjwTXy/NRJzJDGyNuShrJhP7MHk6EV0tnfgVJcWcYnRSEuNInmuYLYfYz0NeP3F4+iMyiApZ0fq0R/gx2fn0BSehZSaMpRVJCHCMoEZewt6Ws+hecBLUsqCopJkIb2Xqw/qI4zweZzwNB7F4KAV3T29aOm3w0vXiiR1KMa8TGVntBn208/gR//8Mzz7WhMujllQWLEJu6srsb44AcZoG3rbz6L5VDsutswhrjYHEeF6ko0Oun8vjv30HdRPRWGU3m1N//fx6mvv4rlj3SSxHXDHbsD69Rm4dXMsWg53o0+TC6Tm456KmCU3xHZPDsB2/Bd45u1z6NDnoPrBJ3FvcjvaGxtx6OIMYqvuwU2lSShOWjCy6ZwALr6IV/7j5/jhj/dj/+mLmErKRurW7di8Zw8qyPDP0OkQa4qHNv82lCXokGym8zzUPrTux7vP/BxPPfU63jw/i8iUImzaUIPba0oQm+yC3d6O5jOnceagDVJiDOLySL2W73rdcE0MMHb2RXxw8ASeuxCDvZ9+DDurc5EbIecZtWMYHejBhy++i6mc3UjOyBRLeyyC4yI9ZD0OHWiCzaiH0eOC1pgIS/lNqNm+EVs2VaKmPB8ZGXGI9gxgpvscjjc7qEnOpiY9jZhKITbnAMZ7G/H2/tPoc/vgltzQu/SQcregaNMWbNtRjdrKQuRmJ1MzTvfoOYjmnmlMIhqJRaVIt2hh4q/UlwFdBDGe0Yh47TQ8tgH0dfeh7mI/HGMjGBmfIrXNC5/WBJNBC8Olrjnbi94z7+GdXz6Pn9X5MJNYjOqbdmLf3puxa8s6VFbmIiMvGnGaEYy19ZLRPQ5D7SZkRpuRHD5LDNCPE08fQCOpJ8OWcMT1nMIw0hCeuwnbN1WhqnYnbt5ehJqSOFiPHEfHGAkUczr27CkQzzmfRecwPdyGpv0/IQKmd5e5DXd/9kFs8Z1BQ30jjnS4kFhzL3aVLWAA1ygc/edw9Nmf4pkXG3Gi24jkTdux8ZY92LnnZuzYsoXU0HQUZ2UhL68QyQWVKE7QIkY7QZpvI449/594/mAnPphIRMHmbdi9Zyf23rQZ22vLkVGQgKRoF3STPWg40AopKwex+SQMr/fSj0pLcIVgNWdOOvWDx6U/vrlQMid9RfqnI21Sm5ypoEmq3/8N6YtmrZR5219IX/rPeslFqXzmPAy8LL34jYekmrAwyawzS0Uf/5r0P18ekGaWaKs73vxr6XuPR0jJpjCp8OFvSf/7pV6hFohrjp2U2l75E+mBtFgpRWuUkqrvlu78YYd0qneGc+dhtOU96b3/lSDtLtBLaZseku761xapaWh2cd0uC4fkcTVLp//1j6Q/un2DlBAbJUWZDZI+f6tU/MjXpG/+4kOprm1Qcsy6glSXALw9L0gv/OUjUlVEupT8xFPSn73TKfHA+byn9pJ61P+C9LOv3Cvtyi6VNn31oPTiuXEqYyUV6CXpH/asl7akpEnmLbdIW2/9felv/v2IVDeonCswKU0OHJKe+UyptDerVqrY9S3p56MzUp9nwZN6rFLv6Z9Kf78nSqpO3yfd+ts/lQ64Z6SJY38jffPTtZccCfYMfyhdfOkPpfsz46QM0x5p+51PSW+3+aSRaaXAJeAbr5dGDv259ER5vpS37XPSjm+flM5Ou6SF2pE0fkZqe+3PpIczY6RtH/8L6cu/6gn83tcJV9kL5CBXh7b6UbQOJ0B76yaUxEUhXc5UkI3YpAJsvk1CTGcjhpq6cJ5SL9kjqqOmI+8h3ERS8JEd8UtKzrRNu7HlkS/gdpMFYS0daGtuwyClB/aDV5CyE/m19+F/3EstxMImmxCVlY/q3/s69uSVIGNwGM3Hz6FvegZ2JX95MEGjy0Lxx/4Qf/iNv8Yz//hl/OGDG1FuGEDPO/+Op77+JP78H3+Enx+qJ8nMw4XzMdbWiK6uWQxabsNnHt2CuzamIp7S5z21hsy+hFJk5aajNHEG3afPoouM3HElW4AMXPNEHGo//Sls2bUOBXFKuoAFxvAMVGwsQkr6CIZsR/DcK/3oHXAq+Qr6GzF89gB+0ujCTE0tKvdsQhUlK435JTHUWo8zb/0SFxxTSLnzJtzyufuwMT0MMUs09MGYsQ2h/+wZXJyuROWWm/DFh0uQG66jN7oAkamwZJZjc7EBkq0LbY2tsFLy9exVvzrD2jkNDJxGY78N/cZkVG+tRnJUREAfFzAhNj4NG7dXIaqxHYN9F1HfTTSeBpAauxg6SswoRnpGGopiDUvq48aYDCRmVaAkS4c6aRYzjhnxMuQVeIKQmInorAJUE/FHKknB0IVHIzp7M3KznkdCrws9k1Nwen2kw18JeJEqEyzJObCQnpucRgScTirWunrUnzyO5mMH0XrIgKenXeif0ODx20qQFWOid8SsYEd3Uyu62powMZOI+l//GDMnovGmfOEg8JM50F93VizPODHUCdvoFMboqfzmVHgCTMml2LAuF9lpkbDMe7da6M0xyNi5C+XHBlH/fj/OHGhAT0UEKjOp7kqp0b4WtNefoveQjJqiQpSWpweuf0nYMUmE3N0xhcl40vc3V2Hn5iREExFcvifMgfGhXjSePI8xRzRmz7yOt7/fjguUs3gcZRbTY2Rf9c6gd2YY+nwrBiiVf9OP4LFl4ypaAA/cdhuGjx5F09AQhkj+pvhG0NFUj+PHj89zDRd7MRaWAXdYL/qH2nGy3o7ZBRtQ+KGlx4+LgclsEi9/6Zdogs4Qjfg0DdkYLnidLrAsW3TFSAsMMZFgYbi0xsipZFMk6BEZ4YXkcGLO56Mnu0qEx8KUsR4bbn0Mv/XZz+MrX3gcn769FvloR9PBl/HUv72Kw602DE4zi/FdxmHtHcDwQBfmps/jOOnCz37ve/jeIvcDcj/Hy8c60D5HTDvnhMbnni8B48iAzytHcSLZJIsbO2iMZkSv2411hfko00xi4NQJakXGMCKaJO5utaO/qxONF/rhJcO5vDAH5VkfJfv5vFHYSXAMWS3wJOxEXm42yki4XZ74GQ5MTQyjo6UHTmcb2k++gVfoWZ9a9OzsfoKfPvsujo+b4ZrTIMJNQo+ucGWC6vK4CgawY3y0Ha+/+A56uwZgbTiEl792N5589G7cffcC98kv4f5vvImz7TZ0WYdwuK4BM84Fze/VYmAUs/2joklcpAJdCSYc8LYNYISYiRW7a0Z0NpK3P4b7/nY/vvx4De5MuYDJ+v/ET15vxZn2hXeIQXh4JbZt24N9+/Z9hLuZXC4qMiIEY/tBLa8uPQnJOq1fos8Hjx6UI7s4GWXlk9C0foC2bhs6JziPuaAJva1WNDTHw3PTx1Bdlo2aGM67HJgBbLBTa2TtIJa+qnFOVj5yUVi4dcFzXsqtw7bqRDLzSRMQ518fXDkDOKyY6mvC0fPTGDIUIb50KzZXVWB9ZQUqKha4dRtQUb0ZxSXRiJtpxdiBN3C4dxrdzMZXBQdJglEMdvgwa4yGMTEaCZS6tJS/HJhlhjA6QGrFDOnymQmINegX66BXA40WWpK6pthErLv/UezathPVTju6egYxPLmQASJJRSnG+ocex4O/+7v43cu6z5K7B1tKMuZ3BfJiutR6kkJ2CenLqXpkVG5E1Y4tKPRdRG97L1q7p+CjFmXs2Duou9iEJmMktmzaiMzkBCxvVyUfJN7Qmxu0qxpK5ZukIrP2Vuyl53ty0fMudA/j/n01dMZvmAFco72wtZ/H2SEPtDlbsOmOx/DYY5d2n/jEJ/CJ26tRFU/NV+sxHGmxoWd8CZFBLxOOaSJwlxhBXPKduuxwTY6gz+aDIzoOppR4Mb9m0UjurBOe6Vkh0ZdsLr2kRDhI6o85MaqJoOdIQ6KR1CEl+3ohvmQDsnOKkEnP5rBPY4aeTdZ0I0jV0yHc5CTinYYmtQxZFVuwZcvlXC05KpdEaqK4+pUhOquc7JNaVCeOYez8BTSdu4gB1xjaPjyOi4NzmE6vwK0bM5CewJ30HwVmqnhExESR7eOBjoTi5KQdY/6h38shHHpDOCxREmm9U9DEJCCqYAtqNy31zMFuPcqLM8RvdD1HhK+QASSS/t3oaaxHK3F+9qY9eOCxJ/Hkk5d2n3/yc/jTT9yHuzekwONsxel6tgcciwncQxfsH8DE+ASGvPOXEpchwTsxjmmrFT1E1XNJ9AMkxyOZchYxwCipR2Sf9HqopVg000OCb3YGru4uDM04MREVCVN2KhKoBVhahVgMH7X5Ho8LHiLspYUfp1J9XW64PV5iwjD6sall4JVuRW2TkZBCNkrSMKkPh1FfP4qePk/Q1qjzwV9n+bx0Tx+9l0uU+UhEZiA6oxjby/RwnSb77PBhnJzuw4mzbRicy0F8xT24c4MRmcsaaWIGyEdqTiY2bHLDOHgane19aCShyALn8lWMgSUyFuk5YQg3nkRfbyvqz5Mt57rEs1EiP7uXOymu9tkvgytgADY1R9Df3YHGugkigJtRkJuOwjw595LgiSdFZcjOzMZmkszWU/XoGiD1Q8n2wzMNdD6PhnOHcZBaCc+8p5Xv3XLsAN58+g00zGaiauN67N18iZtbj5Bt8jJeOG3F0NTCTrMpjHTXY/8//wgn2zyIya3E43euQ3z0ciSfjK66d3H68Is4OzgI+9xSnXKUJg2gdf9bOHLoDE6GG1G9oRw5qcyuMvK33ooN1Tcha2oap7//DA6/cgrNNnl/gYVwWC+i+9xBnO2bg+2q1ccoRMVkomZ7CWIT2jHc8z6OvVqHI3UzmLWko2h9KdLJjriS1iU5lQzmDZtgDLfi6PsH8dILxzBABLvUGwlGfE4xau56AuWkJo6/dxzvfPc5nOyk1niJFsQ9O4nh+rfQ1N6F9v+C76uWPxIskdriuICTb72Ltw71oiXtXnzsgVrcXJH00aoDqReOHrIBLhzDmaEIpJcVIb8sF6kkDMPUkeCDTbBFG6DzuYl2RjAx7MD4+Azp6YPoPX8Kx998DW/sfwOHGm2YKH0EDzxwC26vzkSCqhAGjwRLXszpJeiI0WYGx8lon8Hk+DQGmupRd+BdvPfKq9j/5hH0pd6G9XvvwhP7KpFp0SxT9wX6jv8Cp4+8hl8f68CF06fR2NCO9vZh9PS0o6PjHJrOfoCTr7yB1195Dwf6wzCSezM+98hd2FYQhziFwgwmEyRqidz9jaijc0dZhZicxJCjj1QJEhBDveg704AP33wT7739AY43j8CTX4PkaCPijDwVQhkJnonDXOkWPL4pDbGXnYLBS627YY6aQuOHLRin9zLtMVBd55C8+WbsefAmbEkx0TtQLAkftcgDJ3D41KVHgnU6HXQGI5y2FvRZR9HZRQJhZArd1m4M2wcxNTOMgfomtJ09iOa2ZrRrSxBh1CLGoofBHA13bzO6+6xo7KSy03MYGif1eoaFyggGGlpw/uBhHHrtLbz5/jnYLNmwpGch5zrrqctWpyRuggca0N3Vh6aZCESQQZKdKlvllwe/0EykZmVRc2mE8Vfn0d3di+ZBN6ry9SJXQEfckFMBw9QIJt96Bv/54Wnkla5DXLgPrr5zOHPqHAbcHmiKqrDlE4/ipg15KL7Uy0jOhtZkgfmD5/DO+Tqcyi5HVlYGtQzn0Fx/Dq39g5iIKcC6PXdj1x7SP69wgkm4NIWJjjN47a33Me2aQ2R0PtLT1yGNXoZONwLn8CDGTo1gKCYa0vp9qL7jM7i7Mg65wfeJLEVB1U488lgDznvrUN/8Gp7pOI53N6ZhA6mLqdQAes4NoIGf2xuHyJq9eOIRah6u2GoLQB+dgPitd6M25yjGOs7j3Nnz6NJVYXtxOXauu8Rs3cshtgDxGyz4vU+0w/3MYTx36F38+BsXkLgxDkVVSSjLjgHOEXFbG+HmsZlP3ofUKD1SkpIRnrYDdzywG32ed9D9Vh3e/EkXTp5ORX51KtYXJwL1VvSebkFrxxDGEqpwd9Uc1l1P5V/BslsA39wMRo4+jVcPncYpewxuevSPsLc8CdnRy/tFTG4bNI5B/OrYBUzGliA+oxx7CiKgmVZagGN9sG34DD714F58anciehqex9Ezx3Hg5Amc7e5BT3IVKu58HJ/59Gfwu7cVozCJjKng/bGCW4DUW1B564P47h/swPjAYZw98y5eP3wUp1sa0GpIQ+SW+/DEF/4HnrxnE3YVx8K4zDlAKqLMFkRaohDuHUOYxY5xu40kfxc6O9uoJSAJbg9HbP4e7Hjs8/jsJz+G36f6ppLk5o3sgqGLTEZM3mZUZschxdCP6aFTZA90ovlUA86eOI/6zh7oEjdg5yMP4Ikv3o/bi1ORbCJbIuxqWgAG2x9JmO16Fe199XirzQXX5ntx996NeKA0QTCAv4bLaAEYGr0J5qyNyMvMQHECXWFskN5DE7WMdaj7oA6nLzRj1J2ChNw92L13B0qSdIiiS2i0epjSNyA7i9SoZC+0k8fQ09WJBiL6c3wetRzjUgxyN9+OJ/70U7j/5kpUJlqgvwYBsBSW/T2A5JnDdNcx1LX0od1uQVbtHShLCUfyci1Hez8m+5rw2qkeSMmVyCksw9YcC8IG9+OlH/0M3/zbA2ja95f4809uxu9s0KCh/hS6Rz2Y4mEDnhIQm0lSPBdF2Ty9wbJ4RuP4KbQffR5f+fxTOJb/ODY9+Ahe+kwm2RSU3jeCwSmlHBMd6a5l+bniOlGmK5Z7wOwYJof70NXVjkH7OGyTPHNRySMYjZGIpfqmFuQhMz0BabGXHrfklnV6pBv9Xc3o7OlD70TADtBotHSdLGQW5iCnIB2JFgsRPz/3DBmGw2h47STandFwkR1zZ0UiIsOXJyJtjW/hYlsH6oeJErNqUVtCtkFWtJKrgBlgpAFnGjvI9nAjtmwXanLjkB23qMtBwDk+AFt/LzraSHKPj8+zjSLpnaek5yF/XQWSInkXHCWDMDdJEn6AVMf2JvSOujERZAdYLAlISs1Cwbo8JMdEIcKw9L2vCWJG0G8S6mS4iETJ/PF/lf7fG+1KxhUieDLczt+X7v3uKSUjhBAujevcoIQQwspCiAFCWNMIMUAIaxohBghhTSPEACGsaVyf1aGvBdMdaDvfiOOn+jCWsxVbKnJQm7OgS245mBvC5MBFHHr7PAaiS5FSUob71gemHoQQwlL4zTNACCH8BhFSgUJY0wgxQAhrGiEGCGFNI2QDXA6Sh/6dmJrk1ScM0ISbEWfRQ7Pk4pohrESEGOBymO6Co/s9/PNfvYCjmvWIu+VhfPuRMsTPX3skhBWMkAp0Ofic8M4Moqe5AQ3NXWgZnIZnqU+2QlixCDFACGsaIQYIYU0jxAAhrGmEGCCENY0QA4SwphFigBDWNH7j4wCDp59DfaMVDePpqLpzD0oyYpG64Btyr2sG1lO/xJkWB3q9edhA5YoTwpEQ/I2004rxvma89/pZ9MdUILVsHR6qCdqY1OcG7FY0nb+I802daLfZ+HtoyrBAa0hGQl4ZKjdkojQvVqyLL4a67M2YbHkBX3nyKbyh2Y7kB7+AV36/BGHdF9DVcBFNnaOwUbE5XuPTlCqusaEqA4VZUR+5tv6S8Dh5FSx0tDajs7UbvV1jYgEx/rzcYDAjISEPRVXVyMvPQErwDbyzdF4rjh88h3M9Xtjyd+LhjZFInOlHf10dGtttsDrdsItFxeMRn1uKooocVFXKazrNW5Z8ugOdFy7g4PvNGM2/CRvXZWJLiguDp06guc2KLts01YnfTgIik3KRXlSMTRtTkGjWX9c1O/+7cB12ir829L711/jVz5/BPz3fDd2G7chIiUNWRHDD5IZ72orTP/oK/v0nr+IXH9phrL0ZOXFmpJiDRmQnGtF36lf4v//nO3h5MAazyaX42AbevZfgcsA91oO+uiN45Zev4ulf7MdL7xzAOfpRTx6vx5Hj7TjX54JHq0dUrAXR0Sax6oTWZcPcaJNYaqUtLA3h+YW4M3UAje+8irde2I9XXnkX7508ivePnMbhY61osPqAKAtiEqKQGGkUzevyx4zn4Jrox9CJd/H2Ky/jlRdfwZuvvI3360/j2PEjOH30Q5ypt8KhSYApLhmpaWaxqJN4Ux47YHsfz/7Lj/C9p4/iWW8JtsYOwNN6RGzB9Nor7+HtDw7jvWPH8d5751DfN4cpItfY9DjEmg1iWRj/Gx8/gVOvPYO/+7Pv4fmZLFgsbhR5GnHguefw5v638ea7B/HuyQ9w4MA5nGwcQdeUFlFpsYim540M1y+xxv+Njd84A8TMdqGtpw+v13fBl7ML5ZlJqEgJbgJG4LSfwuv/8AaOnetFP71kT9bNqCYpmx8f1AQMN8Fafxj/+m4zUrc9iFtuuQ1bM5Wfw3oSwweewre+/mP86pAVI5oc3LznLjywoxbVFbHQRfSg+cy7OPFOKxpbfMi+ex1ijTpEzGOAaLhMEuLf/Hs83ejD6ej1qLxzB0m/dKQkTGHafgbdF4h4Ls7COhuNbTflC3m7/DHjHvSefwv/9vlv4elDE7igSUPCLdXY/fGd2FFGBC9N4Vj9eZw9MYFhhwF5960Hr2IuFpoTLUALjr13Fme7HbAVFiP92A9w/EQjfjFXgaybt6Jmaz61bhq43XUY7CQmaOzHsY4IrKvOQGKsObDhxHQ7Os6fx/vvNGKkoAwR/ccw8e4v8Z3+XKCyGut3r8fO6kSEhbVjfKgOTXXncKDJgLi0JBQVJV5dy/cbxG+cAbSmCVjbe9BOTe6AqRSFRWmoKIoXzamQnhOdcFx4Dz/4VT+6nA4YMowYit2G3SWJKE8LLEpka34fZ9/bj1+fycaGu+7ALbeWodBMKs7EOZx+ez9+8tMDeF23FRV33YPHnrgTd+7ZhOrqMhRVlqK8ogybC43Qjlox2G+DPX8rCmNMSNNPBBigdxDTXi90+ftQu/sO3H/bTtxUux5VpeWoLK/GusJCZE2fwPCgFf32MLjSapAbpUe8ebkycQRTY2NoOh2LwnvuxN5H9+FOItytG6pRWViJwuws5Oo6YB0cxKjWjMSaO1BAjx/DMiCYAeo6YJuwwpy2EQXb7sbD99yCPVs2YGNFBdaVVdEzb0eOrx2ekYto6CJlJq0CSbGxyI1VhInKAG/UYWR2CohMR+z6e3HfPfuwb+dGqk8l1pfyJn61YjP0qLGTaOoYgisqHeGJuVifHE7MIV9qJeA3zgAwa+Do6aKW9yjOTsQhrTRf6KcJ1L7z2lfOvvPoPfI8flQXB328BgXZYWi05mBbVRZK8uJIcrEeP4H2o2/g0KuH8IFnH/betx23bklDHOn4zo7XiICP4CdvzSLyoc/j44/ehkduXYcS3i0yNQmJaZnIzc7D+iITnD0X0NHchvPaGtQUxCMvdgYelQGsc/DF5aPy0T/AQ7duxr4NOchKSkZKEi/YVUL1ykamoRnWix1o73KizViDrcUxyEwwLVMtmINXMsKrq8SW+7dj+02VWJeVhbS4FCQlZyM1JQFF4e1oamlDz3Q49CX3oDZViyQLKS/BDHDOCpvbhIp7P4t9d9+Bx3cUIi81BWlJ6UhPL0BxcTUyDN1wDbWh8UQb+iOqqf6pWJ8XLVSqMJUB3jyPEZ8FKTW3Y+tDv4XP7inFutx0ZCSlIpnqk5+/DtlxHkS7m9F0jISXL5PMi0LcUpUEHf1uwUrsjYwboJ75SM7MQvV2N8y2s+jr6kMzWX4+YZpLsA334dzZI5gh6VJRU4NbcxNgPHIWnX3DaBdlSO+WWtDf2Y/6ejPcm6uQnZlMV5XPH73YgM4eD8ajduO3H67C7rJYRLrJrgh2vjC4o4uQkZWEvBgH2o+TOjMyRmwVhIQqJFc9hM/fkUNq2uI1lE1xiah44g+xq4Ik4/gkmj84jV7yJ5X8jwYxbEoN9n22BuUFpFP7fPBRi+P1eoQLM4QjrryGiC4JMU4negYG4RT7DSxABBFi6ZO4b8967K5c+tPSvH0PYfuee7GTnn2srhFdvVZhbIvXqUJDylv2Pdi07WY8flMCLOGL2Th5/VZs+sQXcWtMLMI7e9F+oRVWFjpK/krADcGoicmZpF5uh8k8gompUQzbVAbowMhAF84e0iEhtwzrSVUpTSTjT3OApOwAWjuoiEQMMGrD1NQURvV65KQlIyaClzp3QpIGcLGhFT3txzFmfRbf+fwn8dmF2zgJdx+538JXvvs6Xm4iY7SpD+NT0/N3Y4yOhD4lCclazSWWEGf5mYzYFFJPiAavBeOdnTj/xht48V++gx/+y1fxzW9+BV/68ldx/xe+h58eaUa/Um5JmEibz05HnNmIS39ZHQdLdAzSiwDiq6XBexmkkE4fQwY9RZduxSzQG5OQmk/20vXewfq/CTcEA4QnpSF5wyaUmn2YIR36QscgfLxjzEgbBrutODaSjsyiPBRUlSE1jySwbhizQyPot06LbXocXa0YGJ7CSHgqyovTkBTHtgFv1cDLorOBOgOJN7QYGcaE1QrrIjdIbhyzOpK8mflCwrPuPm+lTYMBGnM4TKTgzkv3g1+lCUaTHuFakswDY3A43WK3m2XBOY7JrjM4+MJ38Z//8X388D9+iZ8/dwRvv9uEurp29PT1Y0bSQBumWbwhSDB4s0ESAEat7jLljNAZDTBHSNBQK+W0z4KXNp3XArAiT8ykN9DzcFROXQA98YkJ5qgw6J3TcI/ZRat5VVuG/YZwQzAAYkmtIUNvY5QJUl8f6s83w+71kT3WjL6eEZyLKEdeSSqyKosQnV+BXTF66CZGMUhNhYvUhJHWC+gdnsF4dCmqykkvj18o1mJhtlRi+947cOd99+G+y7rbyJWhMj1S9LIsH0w+Hng8XnjsbkiDY5h2LYcB5POcQ61oO/wr/Mc//jmeeuZpvHiyCU2jRsz5ipCauh5bt1TjiUdvwtaCVCTJJ14DPPBRPd0zPkgkOJwOeTupK5/oTedLpELOSfCNk700bhcqn0fOXBG4MRiAmlKdPpmkux5Rth44jl/AGSLsU6116LQNQVeyBWWZkUiLSKOmuxQbb9HBzcupNLVhgFSggeFuTGmNMJOBtz7dSIahclk/IhEeU4YNn/wtPPylL+FLl3WfJ/cANhWmz9+M7iPBP/sgxq0zGJkwIaw0C/EW02XUEBVMdiNo+uAl7P/x03i9PgulD38T3/j5L7B//9/iX//1j/G1r30JX/jtJ/DAtkJkJyx3Oe7LgZhzYgL9HVq40lIQmRgt1JwrJwYHEf8wBtq8sBtiYcxMEvtFXEqruhFxwzCA3pCO4nXZSI5zwzlxET22Jpw7OYShIQtya6uRE2NBjFYPS2QCqjZvQvTcBIbbTuLccAvOnpwgdSMROesrkR1hRKR4KlYAEhAdq0dE1DDc3ib0TUTAp0tCUtLlXCK5GDL6DPP1Xsc0PLZxjJHKtaSR56WGf2wIY3YHhnVEArkfpYerYFVtBCO9A+jo9mKibB+qyNi/ZT2pfAUZyMpKoRYgCYkx0Yidm8KU1yV2nr8keFly6wimyL/ktq9TpJ5NjqPPQwxA146MiRS7bc4jBmFbTWCGnpttoSVbh1keYBzCwIwH9pgYGFMSkEq60koaEb5BGMBAxlQ88jeUIyNdB42jBa31p9Bw3klqRBoqa4uRFMG7rNPLNUUgs7QGiWEOeDpP4vy5MzhaL2FGm4HyDflisztZ99WT4hqDtMJcpGdqoZ9uwOm3G9HSNEbEIQosgnuGGGl8CKOkGswt3F5ynHTw7npcGLFjbG5hI++hc8cxcOoMOgftsEcnoai6AElRlmXsucUqkB0zdicmHRb4MkuRSgyYOm/LMjdcdP3+hgvot43NN84Xgp4B7R+iY3AI/dMLe4n4oWZha25GV2sf+vSxSC3JQXpqXGD6hwpqgTFwAUN9Hbg44YRb7pUIwhzsAz3oPtOAdqeBpH86cgvTSG0ke0ApsRJwgzAA2W4GIxIrqpGXakSs7Tw+/PWHaOwNhzYhH1urkhFpUUw6Pfkp6UgzTyK2rx5dL53EQVssplPzUF2RCKMxILfDyGAs2nEn1q/fhtTRSXz4nZ/h8Bt1uDhKZLfw9yTw/sdd9Udwut+zeMtP22mMNzyLV053otu2MNMBu60Fb/3oZzhWNwpNSgU+/+BGZKVc4Qp3LL17rRifJntGSZLhIGO+HW+89A66O/qUtEvA0Qs0PYWjZ+twtnthJywzhBUn9r+MA2+dQ5+xDHfeUo1qsq8WwUdlu36N5vr38U7jCJzuYInAL28UbaeP4PWfvIT6iUSUrt+AO7YX0juXS6wU/OYHwlTQiwszhmHk4nkMNJ7ByTZSf3SFyNqyHR+7pwKk2oOyZZYN12Kw7gS6Ll7AwTYbbOYKbNqzHfffUoQU4g8eiJERhjADNc0eOyLcLTjV242u7h5cuNCM+sFGDNi70Ef3O7//bfzqe9/D088exMF2H6I2bUc2qU6xCJoK4dFhJioS5jPH0HO+HS1toxgbdeLiB+/h/WeewbM//Dl+fbodkyX3oubeR/A7u0mdoybro7f04QIRmO45C1vfIZxspzqS6tHUN4jBEZKwR47g4C+exa+few31xlRMjjgRbkyCqfou3FZCdlE0ydvggbCOMdjychHVeRHjZ8+jnoh3eHgGnWfPEOG/iGe//X288P4ZtFrKkHnfF/G5fWVYl2KCSZUb6kDY2w0YycqE1jEJ38kPcf78AHp6J0nf70LzgTfw4g9+jOdffAdHRjQw3folfOzuHdhXHo/IpbvIbljcQAxAhKAPh6v/Amyd9Xj73BA0pbdj4+5deGhLGiKIqMVvxCJGb8Zc10mShk14o3EMnoLbsGtXLe6vTQPPj5tHczoiWtLn42KJgL0zmB3tQV9HAy70dqC/pw2tdfWo/+AMLpzvgiM8EcmVVdi6owrZUTpEeIMYgFQsQ1EN7k2gpp+M7ubWZjQSMdSfPIQPzzah3uqCqWgTttz1IEnVrdieGb7M/ayYW830bJPQasdh7+lBa+8wMVgHBnta0XayjdSZacxExqBiUz5cPVbMuiOhvRQD9Lhhq9yH20mpj3UOorGlARc7e3D+7HGcOn0GRxqH4U0tRdnuu3D3fXdhT1E0EsxBFfXPBWrCSOlulGckY6NxHBfbLqCts4uERwPZZkdwuL4Xw9p4pNXegtsffAi3VWWjKH4lKT8ybhwGEIRggn6WdO3pIRzv9qBg98exa8dm7MlhAlHBITMMjg6MkTF3uj8MURv3Yc/mctxWGLekTqePJt00twYbsunHNgxhbpI3sxvHcAdJtW4rhmddSCzaids++QAe+eQt2JYWhSg91cc9AfdkD04c7YQtvha5Nz+C//fkVuicLWi7+CGOnGsmY50M35gsxGy5F49++kl88rYa3FQYpdx5+YggtS45Ix95ThusQ2RY9vZgjAzjfpsZsdvp+T73GH5no4Sx9n4MuWIQWXMr9hRGIJlFbjAD9IXDVv15fPNTm1Gb7UZ38zs42diK1v4+DIWZ4K68DXc/+hk8cf+t+HhNAiKMC96YygDvXsTIuifw8Qdux+/elY2h9nfR0NqCurZO9E5OYjp/Kzbc8Sg+9fjjeGJHNnLjV+JkaKK6G21dIM/0KBwTNvSOzkEfm4bYmBj5R14Aj30IExNkGI67xcZ3SXHRYifGS4F3W3fPTsE+SUaw3SFvvqeAbYXw8EhExUYjKiYCJr2yfatvDl7nJKx9o2SmWqCLikUuqfVTEyOYmCRjVzWm9cS45kjEUV1jzAaEGwLsunx4xXcPMzZSWaZm4RCGNtfCCFNMLKLjI5Ggn8HoIBvxWoTFZZD011FdiYBdY6Ta/xr/8NUf498OzqHpjr/EK18ow65sHUZHbaKeYjUXLUloI9czGjGR5qU31Rt6E28//XN87X+/gMZ9f4k/+NTt+PrtKbCNDGFqxgOnsP+pXvS+IiKjEBdN782kX7QD5ooBM0AIKxxzo5LU9WPp7z+5QyrNrJXw+dekV+qHlcwrxOAb0lv/+IS02WCRIu/9e+nPXmxRMlYnlqWlhhDCakWIAUJY0wgxQAhrGiEGCGFNI8QAqwE8NqIxItwciajoSMSa9dBrr7JXJkwPndGCyNgYxESEX2WP1spBaHn01QDJI7pCB3q5C9WH2ZhMlKRYBCNcMdwTmLTZ0NM9htnYDKQkxiErbiXN77wyhBjgOoPfps8nweXxweUOuDly/KJ1JJlN4VqxFIlBLzuNJkwedwjhvx0hBrhK8FvjV+clYueJkkz07DjOBD8z58WMU3az5BxOjzjHaNAgKkIPi1ELMzGCJVwHPTEDMwZ/hcgDSswQvAvNSptYtvIA/H/ohsKol8fRlgAAAABJRU5ErkJggg==;" vertex="1" parent="WIyWlLk6GJQsqaUBKTNV-1">
          <mxGeometry x="328" y="51.420000000000016" width="62" height="57.16" as="geometry" />
        </mxCell>
        <mxCell id="4aZ6oCYho0JEhUslpmCS-9" value="" style="shape=image;verticalLabelPosition=bottom;labelBackgroundColor=default;verticalAlign=top;aspect=fixed;imageAspect=0;image=data:image/png,iVBORw0KGgoAAAANSUhEUgAAAFsAAAA6CAYAAADfniVmAAAAAXNSR0IArs4c6QAAAARnQU1BAACxjwv8YQUAAAAJcEhZcwAAFiUAABYlAUlSJPAAAAxASURBVHhe7VsJcBRVGv66e+7JZCYhmUlCAiIRORRLuXaJ7CK1EIOsCLIqhbJrUYVswZau7lZRlrtFseKxLLpFsSquIIcoonKshiuICIoXEk0CQe4ghklmcs0kc/b07P96OglQk0kmhDCSfJm/Mu//3/v79fde/+9/3T1cmIBedAt45X8vugG9ZHcjesnuRvzsYnZDQwNcLhfUajXS09MhCIJiSXwkPNmiKOLkyVNYuWotvi/+FnqLFdqkNEiiH57a87h58FDMnDEVo0ePkonnOE5pmXhIWLK9Xi+K9u5H0aEKVPkMUGfeDpU5iywXkRmWEHRdQNB5DClhBybd0RcFkybAaDQqFRILCUl25QU7lr68AvbUiVBbh4ATNIqlbYRDQUj1Z6A+vhEvLl4Iq9WqWBIHCUf2CQoZr28+CHtyHnh9qqLtOKSgFxk1u/H4wxOR3ZddCYmDhMpGjpQfw7INB1CVMr5TRDPwaj21vwtL/7sF1dXVijYxkDBkBwIBbNrxJTx9J4LTmBRt58Bpk1GXMwP/WL4OTmeNor32SAiyJUnC8v+sxAlpMDh11yxunEqLutRfYd9nXymaS+Hz+XDu3DlUVFTA7XYr2quLhIjZX39zCEvf+QqG22Ypmq5BWArBU7waq5fMg16nQ319A97etAX7DnwBD5Gd1CeHGODhqb8AQQrit/fkY/q9BTBbLNBQHt/VuOZks/Dx0mvrcMQ4hWajTtF2HaSG87BVbkRa5gAUX+ChSh8KwZxDV5BBqRFBOBSA6DyBgPM4xvQXMD0/D7m5AxVr1+Cak13tcOBPywqhHXyfoul6iJSLC4ZUGkyWQra/6ZF8DQh8/yYeve9OFOT/RtFeOa55zD569BjCBhvYiF8tEZIzAYrhYSI6mv1y4XRmaMc8gXcPNWFz4cek6Rpcc7K37z0Ini7rcAL+iVl52FwiYt3bm5TeXhmuKdmhUAhlR8ohmGyKJsHACUDmaBQd9eDQ4WJF2XlcU7LZHTyVLolOSgW2ciSqhPrnY+2H38gp6pWgW8lmmUdTU5N8i5R9r62thcrYhy5YOqkEFpoRqOL64qPCHazUaXRLNmK327FzdxHsThfcARUaRR4ZBiK+zo7yRis0wx9WaiYuwqIPoS/+iVdefFq+j94ZXFWy2W3S195Yg0++LIVmxFyoLP0USwRh0S/HRU5QKZrEhvf0p5g71oB7Jucrmvhw1cg+fuIU3in8DCW+geBpI3FdgDY+Y32b8fiCeeD5+CPwVYnZp89UYNn6IpRqJ4BLG0KLDCVS14PwatibBPmK7Qy6nGy/34+1m4vgSJuAMG2JmxeZ60XsHhV8Pgp/ncAVh5Hy8nIcLi7Bj5UX5HJdXR3KDXeBt94il683aE5/iBV/ngKrNf5FslNkuxsb8dU3xdiwdQ9qxCSIqUPAG63kjT5qI/ikBN2kdAHCJwux8sl8ZGZkKJqOI26yj5Yfw4Zte1HivxFIuQnQJiuWngHuVCFef7IAGRnxT6gOx2w2Jud/+gmLVhXhO9O9kDJGQCKi2Z6qJ4malzr9ukSHZ3bxdyV4buMhuLMow7jsXnCPQlUx8m2VmDn9Hths8T3B7xDZwWAQC55dhTPpkwFBq2h7KoguvwvZZzdg4YLZGBTHA4Z2yWbml5a/gl3u4ZBSBynaXiDghrVyB5bMn4oB/S/dGbeFdmP2yZMnsafUjqB5IEJSuEMiSRymjjdjyZ1a6KPYrwtRJcGeORkvv/EuHE6nwlZsxCSb3VLctXc/PLkzaHHgINEs74iESMwmFfom0UJymS2WZKepkCZEt3W3mIwCcq08VFFszRJSGVBqmIAtOz5RGIuNmGQ3NjXheHUAkiE96sHaFrZyR6JTdHs04fHY3WaM03d8UK+eAL8cmYyF4wwwR7W3iqhPx/ZD5+RXI9pDTLIbGlwor9fLMzVeiVDdWjYaeFh1gErDISNZQFYyD5Mask1Qc8gyC7BoeZiTyGaiGcW3tpWol+msDdXJMHHQcM02IJX86AVAR/6ZTzUdU6OjY+lpQVJxsCrtLLSuN/uTheoZ9dSGbFlmHulUn12FzJZMfbCZBBgEDjay28h2SduLhRNQbxyEdze9L59xLMRcIEtKyzB/3VEE+o5VNB2FgLn3p2FSoAlzPmxEA89hToEVk11N2GfRY7AKyExXwVPjweIPGuC7yYTnRxuQRbpgrQhHUxDPflxPA02ZbbIW88YlY4KNQ3mdhFuTeJyt8mL5bjfOQosV81Pxw2EPbh5sxCitiMfXOWEYlYYnNH5s0WgwSkMDQn7VLh8Wv1eP79kIEbJvSsbfxuqhCYTgpdHM1UtYs9+FTacDmDnZhgdvVCElLKGS+lB1pg4LDgbkdlERCiKn+FmsXbk85hu0MWe2vZoCP+XUrH/xijK1W8rs0sy+wwL71w7M2+zAo+/XIpRqwowBwJnjbjz0Vi2OeEJYvcWBh8hWRsSGBAELxltwf6ARc1dV45nNTkzdVI9QpgmPDFVFjsPzmJyrxv+2VWLkq9X4vIkCGOltw0wwlDjwGB1r1poqnNEa8XtKpuT+WEx4dbweOwudmP22E49trEbB9iCmjTRCTxNhTaEDb54WccHhwfy3qvDHzwMt5xFVeDUCOiuc7SyUscOIyw2RHEVdjdsR6gOBQgAr09mzsrvciQ2VEbvDLeJ0g4hBGRH/rB6rE2b1FUmi+HBLGofPagTcPSIJs5gM07LXspF7gw7JrA2dwZdlbnzkaG3HdnpNp+rw8tlI2RuQUFYVxNAsDZWBsbfqwPtD6NNPH/FJ8mAOkWFRYySFJNZG7ktz/zsgLm0mamprqVXbiEm2KcmIsBiASGTFK+yEWWflMnWGPqinmdtSRwzDTWKm+MrKQRJ2gvKio4ggUFzXckjJ0eIXLaKBxuVHSV0IftZGlFBaE2z1S8IG1+2TWnV08KagBAvFaDok+qUIUNH3Wy7yOzpbhR+rAnDSVI34kCmQfbX4iSFeXQaqHVdAtiXZJP+cItpItieMNMZeS5n8hWlKXlonMiDNZVZi7ZrLQYkGh/7v31mNOe9dKos+bUSd3IZ2uEr9ZmFqthRdrmP+Q5TONlH4bXD6sGjL5X5rcNDD+shyKfq7zEcsETk1xJAo96ctxCTbak2jnVKjfMLxSoRcpSOsrJDfUofKyvm36OQqzXYSpyuI4uowZk9LRl9Nqz4jU49hRvadpZiR9aDZxoTpmLNLdcw5qyeh8HAT9BkGTBwotNqp/jCbmghh5YhP1qC5/+0J769HEkWCWIhJttlsRn+DV76U4hX6yGCkymX6zqSlDnUwMiA0k2RdAF9QjP3LLCuW51swyMzB7wti+ecN8OhNeGd2Jv6V1wdvzMnC2ikmpMltyAM5ZZuvFr9MLj8WCR2OlJF6NRW1eO7bIP5wdwZ2zLDhxSlW7HgqB48OpMSRKobCIRQd9cKcYsILM9KxIq/99De18ThuyMmmg7SNmKkfuwH1wr9fxSp/AdWM5ydwHIYM0CNbCuLTiiACtJG8OceAfgE/iuyMCgJlEbf118Hm92N3ZUTXx6SRY7KayDtw1osaX6RrqSka3JGhAaW/CFIwPX7ehxNu1kZA3lAdKn/04oxbns8ysmjm3yoEseu8cllzHHKzdBimCmJbRUSnUvMYTLpcyukZ3D4R3571o54FdRk8RgzQIcfIw1vnxa6flH5HARfyYUT5C9i4fjVUqrbfFGj3RtTefQfw1MZSOLI79/i+J8Di+BqLfq3DjOnTFE10tEu2fHv1r89gp3Ea/FqK4b24BHw4iOHOQmxdugA6Xez3y9slm6G2rg6Tn16P07Z8hLmYYb7HQe+pxNIx9Xhw+lRF0zY6xFyKxYKFUwYj3VVGC1so6gLRE0Xnq8J95h9w17g8hanY6NDMZvAHAti2Yw8W73HgXMoY0nTuOdz1AkOwFvebjmDJ/AdgMXfsoXeHyW7G1sJdeH73OZzSDoFHk0opVs8KK3xYRJK3Er9LO4e/z50Ga1ofxdI+4iabvcDO3uNb/9E+bC9z4HzScLhMN1Asjyc1/PmBpzTW7DqBQb4yzCu4HZPG58GaHl/CEDfZF4P9hnDjB1tRWnwYktqAwBX+WDRhQZshg+jG6FEj8cjMB+TNXmdwRWRfDI/HI7/ofj2CvbHKCI61YekIuozsXrSP3qS5G9FLdjeil+xuRC/Z3Qbg/wRCgVgad06QAAAAAElFTkSuQmCC;" vertex="1" parent="WIyWlLk6GJQsqaUBKTNV-1">
          <mxGeometry x="-130" y="100" width="91" height="58" as="geometry" />
        </mxCell>
        <mxCell id="4aZ6oCYho0JEhUslpmCS-10" value="" style="shape=image;verticalLabelPosition=bottom;labelBackgroundColor=default;verticalAlign=top;aspect=fixed;imageAspect=0;image=data:image/png,iVBORw0KGgoAAAANSUhEUgAAALIAAACsCAYAAADfVvaDAAAAAXNSR0IArs4c6QAAAARnQU1BAACxjwv8YQUAAAAJcEhZcwAAFiUAABYlAUlSJPAAACwRSURBVHhe7Z0HYFvVucf/2su2LO894zgecZy9JxlksAKBsgoNq2G2tEDHa0vf47WvDx4F+roo8FpmCwkJYSSQGDKc2M5ybMfx3pZtWbIsW3ued46sQOIoiUziJJbvL3zIuldHuuN/v/N955x7Lo9QwMExxuH7Xjk4xjSckDmCAk7IHEEBJ2SOoIATMkdQwAmZIyjghMwRFHBC5ggKOCFzBAWckDmCgqDuonY6nTAYDLDb7RgLuykQCCCVSqFQKCAWi8Hj8XxrOC5EUArZ4XB4BazT6WAymbyCHgsw4YpEIshkMqSkpHgFzcTNcWGCUsiDg4Oor6/3CtnlcvmWjh2EQiEmTpyI+Ph4r6g5LkzQxcjsurRardBoNGNSxAyPxwO9Xu8NiTgCI+iEzMTLQouxXNGwbWciZoLmCAyu1eIqhYk5CKO+UYMTMkdQwAmZIygIulYL1tTW09ODiooK35Lzw3be7SE0tvaMalXOmtbEQj54fB4u1DrMPqtUKpGTk4PIyEjfUo7zMa6FzHbd5SYYtDjQa7DA4Ry95Eos4iMxKgQyiRBCJubzdHZwQh4541bImn4Ljjb04mB1D/pNdjiZR/b659GB+WER9ciJUQrMzY1DQXoUIsOkvrVnwgl55IxLIffoLdhTqUZJrQZaO6BITwZPwIdj0ASLpg/WPoPvk5cehUyEJOqZ51ExLy1MgipE4lvzDZyQR864S/ZYPMw8cRkTMU+K2EUzkbZ6IdLWLET62sWIn1sIeezoicdsdaJBbUBpjQbHm3S+pRwXy7gSsodWPha7E4frNeg2uxE1OQsT1i9H3OwCxM7IR9LSWUhZOQ+x0/N8JUYHD72Y2nqNVMw93guL4+IZV0J208Suu88Cg9EBaUIMInIyIY1QsgD2a5QZSUheNovV774lo4PF5kQvjdOtdpdX2BwXx7gSssvtQVefGXanG5LwUEgiwnxrvoHH50MgkXgFzhvlkWdOuj29BitcnJAvmnElZD6fh1C5CAIBDy6bg9rZg3JY7utxueBm60Y5D+ZTry+XCumrbwHHt2ZcCVlAFROnkkMuEcHWq4exncaoNGY+HXv/AAaaOqiQHSCjOGhHLBIgPEQCpULsvcA4Lo5xJ+TIMBlSY0MhMhvRd6IRuqo6mLt6YdX1w9Spgba8Ft2lFfC43b5So0NUmBTZySrIxMwjc0K+WMaVkFn7rFQswML8BEyMD4WxthEnXv0ALZ/th3rfUTRv/wqNW3dDc6TaV+LSwzQrod6YiXhxQYJvKcfFMi47RBwuD+o69NhT2YXi6h44eGwMBB+EJl8eWt7jGj1vHCITYcX0FCwpSPTWDKyWGA7XITJyxm0XtdnmRN+gzdvL12e0wWIb3WYwPk0ww2RiGheLvWMuWPc088z+4IQ8csb1oCEGE6+Jipo1yY3moWBxMBsw5I2JL5DccUIeOeNeyFcjnJBHzrhK9jiCF07IHEFBUIYW3d3dOH78uG/J+WH5HRtIZDA5vF3Yo4VQwPe2HbMEj0YO54XP5yM8PJwLLUZA0Aq5vLzct8Q/bDB9a48RDV0DVMR2KmbXqI5EY81srOktWilFVmI4UqJDvO/9wWJkJuS8vDxOyAESlELu6urCsWPHfEvOhom4srkPpXVa1PWY4A4J9d5Lx8ZfOE1mOM1W3ycvPcwrT06PxOxJMfQ1wtuKMZxTHpkJOSoqyreU43wEbYzMrk9/5vZ4cKJVj13HOlHeaYQwMQGpK+Z5B9cnLpyO8MwUCKVn37VxqdAN2rCvqgtF5Z1o0xj9biObmIW9cgTOuBIyE4iVxsMHT/agVWv2DqwvfOwOZNy4FGlrFiHn7uuQdesqROZP8H3L6MBCmHr1gPdi8redp4wjcIJSyEwETLTDzeFyo4MKmPXoieNiEJmb5b2tiS8UUhOALxJCNTEVKdfM8X3T6GGyOr29imyAvZt1jZ+2nZyQR07QCtmfMcH0G22wOdwQq8KoiCPAF5+ZcIkUcigSoiEOVXjHX4wWzCuzBHPAbIfrNPGeMsapV44LE7ShhT9O1wVrGTh3Oxhb5/tzlGH3EQ4X7Oli5giMcRUjsyEOEaES74w/9v5BWLX9Z410Y3eNsLHJjkHzqA6sZ+Mt2JDSMJnIu13+tpcjcMaVkAV0b2PDpQil4rF09kBf0wTHgJF+2FeIMtja5R2bPNooJEJvmzITM3P+/raXI3CCUshMBKcnT6cnUcwbz8qOQkqUDNqKOpS//DZaduxD18FyNH64G/Xv74Tm2OgNrD9FUpQcsydGnXM7OTGPjHHlkZnxqPvNTw3HgtwYZIYLMVjXjNYd+9G0dTfadx2E/mQTnEaL71suPRIRH1PSVViYF4vM+FC/23jKOAIn6Hr22Gz1HR0dKCkp8S3xj27QjsbuQTR2GWG0Or13jZBR7KJmPYdsnEWYTIjsZCUy40IRrhD71tKkj/oUN4RwQgw3TwylMgzZE7OhiojwrmdxdJiUB5mIzerJ84ZJHN8QtEI+ePCgb8n5YQOFBixOmEf5DhE21oJNRRAqHZqOgP0Sqx9cRAQHJFTAEtgghQUK+l4GiVSKqMhI7+PKhsoDCUoBVHIewuV8+j18yMU8hEh4XpGPd4JSyO3t7QEL+UowJGI+7FS4fSQaPUiGCWFejxwIEQo+MqIEyE8QYUYKu+uEemgem6rW94FxSNAK+cCBA74lVx8mKKFFPLU4ryd2QuQVNvPQgcC8s5h6dSbgSCrqGakiFCYJERc2fp/JF7RCLi4u9i25emBi1fISoUMsBqGioYQ8YPH6g5UUUkHHhPKRST10YbIIBYlCiOiy8QaXMlwGmKdgXpd54W4aRugRAyuNhS9GxAzv97oJ1AY3yjuc2N/owNF2FywO4r1hYDwRlEJmlczVZE6a0BkQiU7eBAzQV9Yycakx2glOdrvwRY3d+2qi78eTmDmPPMq4IcAALwodvGwqYpX3/WhhdxG09rnwzmErWnQu7/vxQtAK2Z9nvNzGPKIWCehEJow0wbscsNsODRYPPqu2o14zurdvXU1wQh5F0/NiaXKXACNPST0xa5UYimtH22jYTD2zG2WtTtT3ju5kjFcLXGgxSrAQoo8XR0Wsgosmepcbq5Ogpsf1dbwc7HBCHgVYd7MZYd4mNtbpcbq3vJymM3vQSGPlNn3we+WgFLK/av5ympMI0cNLgZVIvdU8Gzx/pYw1zR3rcHq3I5jhPPIlhnljG2TQ8OLpq5gKiFxR05ndqNM4oTO54Rq9+wSuOFyyd4mNiVhLRWwnYuoReXQZ25YrZ6wVY8DqQXWXC3YaNwcrnEe+SFi3M2ta60U8OnjpaEMGekgC9X48b9PX1WBmB8HJHidsQdyuHLQx8mjCvt1Bw4ZBKmAN4tCJFLQjHa2YgA6kYsA7ko1HwwwWalx5sziHkr5g7rrmQosRGhMCCxv0JAItJBNVmIoWZFKPHAsjCfEmev7KXUljPXxqgwv9Fo93bEYwwgl5RDYk4mbqeU8in3riJPpeRJMq1glBq/Gr3Fjix9qXgxEuRg4QF4ToQySqeAXoJEkwEzlchE8FQqvvMWBsO412ziOPOfx71G9nDup1+0gkmmgo0UtiYIGMipjGwHTd2DFgwMamDfMdoCCD88gXgLULG4gS7SQZ3SQOdo8QrElruMe72o21XrD25LI2O450ONBEk79gGuoZlHeItLS04KuvvvItuThMCEEzSafeOMPb1DbWYTersluismNEmJkiQWqEEJFyPiTCsX3PHyfkC1BHstBCUmEiIb4lYx/vtHf0ld0SNSVRjFsLFciNE3mnGRircKHFOWC3IXWTWPR4omHyyM+qqseysdCIdVdbXQRV3Q783yETdtXZYKQx9FglKIXMKpmLM5bl89DpjkO/JxRO+re/5qwxb1TVg1S8db0OfHrSjI+rLdAY3V6xjzU4j+wHFz0s/SQUvZ5wWImInlhPUJvZ4cZJjQM7ayz4os4CrXeA0dhSMydkP7DmNuaNzUTi88ZD7bDBbA76v2a9E+8fN+G42u69mXUswQnZD04I0UMiqaAF1GMNb48NXmNemI2U215tRs/g2Gpw5oQ8DJbkOYgQehobs547VsOOJ7NTz1xNE8BjnXZ0jyExc0IeBhs7MUgUsFExs1GP/jxXMBtLAE0OD/Y322gS6PS2cIwFOCEPw0HDCiOReU+ovxM9Xqym146qHjt6TWPDK3NCHoaLxsVWj+isMb3jzdi4jHqtA406J3139cMJeRis6c1OvbI/LzXerGvAhVY9J+QxiZN6ZIub3TTqv5lqPFnngBvNei60uKL477G7sPFpxcoegOBv3Xgzs9ODQfvY6BzhPPIwBDS4EFMhn2qOGs/mom7Z5iTee/3o26saTsjDoNExxDwHrVqHjUsYp8Z6/Ly3R13lSuaEPAwR3JBRIfvzUOPR6H9DYz6vcjghD0PKcyKcb6EHxu2NE/1l8+PJRFQhSgn/qh90zwl5GAKeB3KeHRF8I3VEbEij/xM8How9dEfie67f1Q4n5GGwJ+Axr5wk0HsTP38neLxYhJyPuFDBmHiOHydkP0h4LqSJdJDCQWVNTypdNh4tPkyIjIhL/7yT0YATsh/EVMjJQoM3VhZ6wwt6YsehJSqpkCMv/yTl3wZOyH5gNamIxso54h4qZrPfZqlgNz5VRppKhInRnEe+ogzvpRqpgXiQKepDvGCAxsysOe7sGDKYbWqCBDmxEijEY0MinEc+Dwq+HdniXqQI9eBRYfvzXMFm9BKGTMTD4gw5cmPEGCsPUeWEfAFSRAZMomKOFQxST+U/lgwmE1JFzE2RYUGaHEnKsREfMzghXwAJz01DjH5Ml3YhhGdnM9rQ0IOFLsFnQj7PK96H5qiQS8MKNvvQWIETcgCECuzIkWqxMqSRhhs2etKDM8xIDhfiezOUmJUsQ5h0bEmDE3IAML8k5zuRLenDutAGJIsG6DI2J4T/RGks2pwUKR6fp8Itk8O8Cd7Y8cVDBN3cb263G+3t7SgqKvLOA3cpd499k9UjRKNDhUa7Cq1OJbqcCiqEsXbah+DzeIgOEWBhmgJrJ4VgUfrYiotPJ+iEzOjt7UVJSQm6u7u9wr7UsNuhtC45mu1KNDuU0LlkGHBLYCYiOMnVX8mFUI8bGyJEslKIGUkyrJoYgoJ4KSJko/fA99EmKIVsNpvR2tqKEydOwGq1XlKvfDpsfjijR0y9sxItjnB0O+UYcA09ioFhdw/NUhQozK/zqJfkC9hos0t3QbCxEmIBz5vMsRk4U1UizEiUYl6KHIsy5JCzIW5jnKAUMoN5YuaZmdlsNt/SS82ZIYXRyYPWxoPBPrS8foAKnS4LFB79JxKLEBYaCrFY4hX1pYC1C6eqxIiSC6gXFiE+jP6GhIqXfv2l+YUrT9AKme2Wy+XymsfDhsCMPqwdlj2S4dQTRu00qhmJR2Yw8QoEAp+IL43MmEdmTWkC+gfzzMwrj5WOjkAJWiFzjC+45jeOoIATMkdQwAmZIyjghMwRFFy5ZM9wDF9t24UdRa0wRuRizZMPYn68BGPkzppzYrMNoLujGvs370F3Sys6rVYY2Aox3bGUFExfcjNW52ciO1Lm/fzVhsdmRF/Jq/jrznroYpZgwfI1uGWK0rf26kXwLMX392XFXLMVH3y0HW9+VIr2uk44pq1BYYIckbKxW0n0N1bi8O6P8NaWbfhk8yeorelCq0aL7u52tNXUYE9VFdRdEUhIS0JKagTkvnJXE27bIHT7XsaLf9+BssE4xGbPwrKsq//RbFdANawCsKGzqhJNNgFIVhoKwlpRdrAOGoMFY/YJs8ZOVBZtwRt//hv+8vFJ2BOSkLXiRqy9/R7cc8cduH31tViaHgfRiXp0dvdC4yt2tcETiCBNmIypsxdi7uQJSI8cG1XkFQgtqFQ9LfjwRw/gr23pcCak4Xv2v2BT9SP448vfxXUzUhAxBhvr3aUv4uf/8yZeOK5C5t3PYfPTs5ElFULqW8+mEAfUOLSlBIO5U5GYk4OcoRUcl4DL75Hd9IR2laG8Rg+ZIhVrl16D6dMWQVC7H1Ut/VAbfZ8bY1RXHkBn+yAmpk7D99dPR7pIAIlv3RBsVFkSplx7PeZnZiJzaCHHJeKyC9njdKD32H5U9yZDkTgRhfOToJo+A8vc1WipbkN7t9n3ybGFw26Fy+mGWCSDKlQKMY+NnDgd9k4EiSIEMpr4jfGc9qrjMocWFlj7q/Hp4w/iP5sWYMnGu/DU/XlQqMvw1u034b2kn+O2jbfhvuVpUPhKfI29F7qWSnyy5RA0k1ZhzZxEJDs60XzoGCoahmJOFyIRFjcRWVNyMXdmPMLosq+vVIcexq4qfPxBCdQpi7FoVhpyxVq0lB7C8VoNeuhhcECFkGgaF+bnYRG9wFj5QAc21v3ju/jtq3vwuXMxVv/sOTy3NhkxIj6EvvUBYTOgr6MJB4srUavRwO5iGUMYZMo0JOYWYPGCZERJBF7fDphg6W9E8WufoyZ1EebS/ckRalFfdgg76f6QmNnIjeikWXUn2ixJyFl5LxYksSGc3sJnYmpARclRlFQOwJYwBRsKDSg6WI+BkFwUTJ+DxRP8JHtuOzDYSWui42is6UCnzoR+tpyNEYmNxeTZyzA1MwMpp2e0ph40nqjB4eN1aNLpfAujoUzMxqTCSZg1Nc57zL9NZHl5Wy0cGpjavsCLv9oGdeF6rFg1D8vTIsFzCyEzfIJtx50QxWYgKycDsWfWy/SENKP10Gb86uH/wvvuiUiVdMN2cg+2f7gTRftKUXqiDHv3H0ZpJT1xgwTS6GgkRYVAIuAPidmqRl/1Nvx602/w7mA8IiT9EDfvx7bNO7B7bwlKqw5h34FDOHisBY166lljohEfIYeMhgiBVFt8+v1NTfUor+9AzYAEMdFySPhiKMTUC9PvuCBUFN1VB1C0dTteffVj7Co9gvrqKlQcr0ZJeTMq2owQiqRQRociRCGhYtajX70Xr9/5DF4dzEBEqAGyxk/x1p9ew/NvbsGXbdEIcx1C2+GteHNbDTrSb8KSDAnC/dzCZG/ZgS2v/QWvvH0IdeI8XBv+JX7z4hv4rEWC0AxaWw5vtbD1w9JRgaM7t2PLB2/js8+KUFxeTfe9HlUHDqCsrg62uEIkJWciI5R+nrgBfQPqDuzG1ne3451/7cLew8fQXnsCZYepVXehTeeARK5AVLIKUj4vYAdyissqZI+uBbo9b+PnO1oxef2DWL1gKjLD2ZzELsRTb7J12w60khREZszCjIRhu0I9srblOLZ/UAZNeiYU1TtQcbIbh2MXY+GtK7F8bgrCQ3vQ31mK42WV2HVShjnL8hEbIvEemCGPXIGP/nkQnfHJkDQXo+F4Lb4MX4T5t16LZfPSEK3SY1BzCFVlZdh6WIIZCychMSIEclb+AsiSUyGjHsdZvRfHSukFcpj+TesVVagcSoUYPD71pGxWQH+4rTAdfQ8f/u1veOH/jqBdmIU1a9bjzlWLMH2KEm7U4XjRJ/j4LTXC5uQhZUIsogVmmKk49v91B04mz0aErgitB7bh3ZOAMiwUoanzsf7GQmTQqq3mQCtKBJNw58IkxIRJhl2YbnTtfwcf7y5FrTQHNz/2JNbwD2Lrl9XQheZhysx5ZwrZ44C9rRQnPngRj//wbeztpBdY4UzM/c5tuHHdOsxRKpFKPyZNmYfElDRMVLlBbHoYvnwRz//323h/nw78+Gm45cZbcM+quUjKdEKvoQ5oRzH27jYi/Y4FSJaKAjrmZ8BCi8uF7uTn5IP7IkiE4hby863lpNblW+ExEWL7mPzn4nwyZeEmct+b1b4Vp2GoJNVbniRz6SbLpSEk9/Z/J89/Ukt69APEYDIRk2mA6PUaUvbeT8hT1wiJJCqDLHvhEDncbhkqb2wg6i9/QVaGSkmYREGybnyK/GpzNenpGypvpOX7+3tJ+Ue/I79eIyA8WQRZ+OtdpKjBOFT+griI3dxC6ov+RF68cQqRyUOIQhlJoqavJauffo1sLuskbo/H99nT8LgJ6dxM/ufORWTy9BvIrF99Rkq7dUTbbyRmI92vQQPp6zxKTnz0NFkeEU2WPvEmea+8nxbsJpqG18jjoTISP2UmyV60nmz6we/JtsNdRN3VRbq0A8RobiVH3v8FeTgvjohUT5LXT3bTUqdDf5t0kM9/tZZcl1FIZqx5gewY6Ce23T8m105PJqnrfkT+7dMzS5C+g2T3K/eTJcp4IsGd5LnXD5HyFh3pNxqJyWIhJoOBDOh09JjaiNVJP29VE2PFy+S+vCSStPxH5P6/l5BKjZ4MGEzESo/74ICeaOs+Ju//xx1kdkwOWfG/1aSq2zr0WyMgkFrzEtFNr7xaHPzSDcfc+chNiELyKafLkwKSOZg2R4k4UyO6j9agmi72G7yzOycSrsU11yzCyrnpiFWFUY+ngEIRBpUqBvnXrMXKm7+DBSY9Tnx1GE3afhpNDiNuGeYvXop1izMRGzFUPoSWDw+PRvaCa7Dqrvuw0j6ApuJjaFDrMOgrdn4EEMsTkTL9Bmz4+YvY+sef4onr8xFvofv8T+qN/u0JPPWHbSjXGGim8A3sjmxtRTGOt4UhJm8pNt0zF5PjIhEZTmuCELpfoUpExKUjecp8LM5xo49Wx3XN6qF49BTNViTl0jj5tluwKC8eCfHxiI8KQ4g8HonJE1A4TQmP6SN8tLsJzZ1WXyEKa0Gq+gSfHm1FYzyNh9csw0waQ4vO4wzbj+1B2f7P0CALw9Jnn8KKJfmYlBSJ8JAQKGQyKKhHDouMpMeU1oQ0QbAP6NF5aC9KewuwbN1y3HrtZEyMUSFMqYCUHvfQMBWi0iYje3IOpsb3o6KoDK39Row05R9RLnJR6NvR21iFPToxcu6djdTo03u2mKKjUDBzMhLLDqOi9TiOtN6MHFpHnXWTBFuQPh05mcmY4Kc/Wx5NE4xJ0zE5/iOU6fpgsjtoFT+MlAJkZaYjJ2p4IE5DhIhkmljNxbTk13HMQMMRq83bAhwYNB5WJiBpGo3PJ6QjdUIucqYdwZHivThx7HN88PcBdA+6cc/NC7EgJ5YGHi4Qjw41peXo7OlFl1OMva9r0ej7tm9wwGHpRbXGiq62Nmi6dNDRxPbrjmN5Oibk5aNwchJUZ/R8i6HKmIS8pXMx9d13ULm3Eo0z01CYlOg99m6nA+1ln6KmzQ5Zfg51JFn0W8/XJTUITWsrWnv4EOSswO13TEZmIt8rWP/QkKm/ExX7DkNrVaG5eDO2amkI4Vv7DRboW6tR1edAX99JqI1LYaRJ4FkJ/3m4TB7Zhv7GWtQdOopq4oRMX41De2iCsWXLGVbSYKU7rENXby0OHNN577g4GypklRIKqeQcXbwyiKWhiIgl4A+aYHW4zhaiMhQymfQcB0pCk6owRCXSq9xsht3hBM3PRwZfBISnY9KCG3HXxu/jx4/ej7tWz0HaQBGNc9/E5qIK1GjZt1Ihk360N3fBONCBntoS7H33Xbx7lm3G5m37UOOOQ6hIhBC++0y5peYgMSkOKX52SBJDL+zCpbg2xQNz1WE0dmig8R4QB1wummPsq0QfjWonTsrHrIwLdUX3Qt9rgm4gAfLkOZidyQNNQc6DHRazFs11nXA529Gw/wvs9Lt/27DzYAO6RLRGE7kg5BHvtLYj4fII2a1BTeVR7NtbBafLg2Nv/AjP/mAjNm4cZr/diqKqbuh0PSguOQSDg02E4vuOgHHD43HBaaGHokOLQSs9mL41geGh4qLlrQRE3QejyTriau4MwpKQtOQebPjlK3jujkRMNO7Enj2l+OL4GcEBJRmZ2Uux/vbbcft5bQ7m5UXR+us0YiMRGqr4xkOfQRSt6nOx+CYVIvRH0NCoRnMfTcBc/bD27UfxPuo10xYjb2YhZqp8Rc5JHwy9ZvT3+N4GDKtxJ2HWwrW4xe8+nbKbqU1GfrQcrLFjJFye0EJXi5aGNhzTxUI6bQXWZNDa8By/rKEZbH1jIwZ2bMG/HliJDal8xJz3qh/OICyDWrTXC+CisUl0mPwcJ/hcmGC39KDlBA+OnCREqkJxwfMbAPLoBMz92Uu4fscz+KdODzU16raHVnqJRfLsNbjh5zdhum+Jf/i0xhDRE6el4UVghEYlYN5dT6Bw+5/RWddEY2wD5nm60LrlTXxqMiI9bxJy01N8nx4NmJBTkX/LPbjjugLQ038OWBzJpzWqaMTNb5fFI+vrKlHf0ghjfCZuvO8n+PHTP8FPfuLffvfIPbhnfgpMAxX4okQNg3FYYMD6b9Qa9JssGPAtOgPjACy6XrTyBHCnJyFaLvM2sp9BjxYDg8YzE6ZTmKmQe3vQ5KaVb3ICIqmnO11u3xYenw+RTAExXwCex0NrDVbViGnIn4DYRCFN7CrQrWtEfZsccvn5TApxgG3bp+BJwyDOWIy5OVLYSw/g6P79KNO3oGxPLYzJt2HR7IkoTAnkG3OQkReLrNQeWGqPoExNYDrvE35DIJVFITHVCaFwDxra+qHR+9unUyajRkM7eqyGp0YXYpSFzE5WP5pPVKOlyQN51HQsX56N3NxsZGf7t8lz52JmQTayaGx15MtjUA+aaYR9OjRkaPwMFScrUaMZXukb0V5xGKVfHEKrJAPLVxQiOUZ5drXTUoSak0dR0TV8YIcJ3bXHcXD7HtTw0jF/8RRkJEX4etLOT8eJ/aipPUoTFX+DRew0e+9E7ebdOKQfgCIxHumJcXQ5PWF8BXKXLEd2YggMh49g95t7Ud8HOIfNK+NxOaBvKEVTlx59I4uV6M9IwVdkY+asdISRajQe/wJ7imtQXGlF5JRrkJ8Wj4SAxpSG0fAnBxMnKmnuXoY33tiHRq1x2Pk5HSFCI5MwddVqZMiNqP7wSxz4ohodfpqB7LQW1dQfRq3WDcu3ePz16HaIECo6ywnsemczimrlkE29AZvunowYevmcs+qQCWHt7UDvgX3Y06nE7BXTkBIXjlCnr0PkXyXQSKxUAvSfhZ5tmws2qwu61gbUHN6LXR9uwRelbRjI+Q5++P21KKQCUTAln94hQgXr4fEgoOX5NjdsNg/62ppQf7QYX370IT4tqkRnxu14bNN1mJMZgdAAArCG3X9GcVkpSmu7oW5qgVptpGFSF7q7G9FCBV5etAufvvMRPrUlY87a9Vi/iF5ktKpgnicsQglTawvqKxpRWU+TXKkcFkcvLC4DBmjt0FF5EuXUi+4pKkavciLCo6MQLTN90yGStgTz5+RhTsa56g7mryT0OLThxFHq+bt16DPwcbLKg1mPPIDVU5OQHOLbSReVZcd+vLPLf4cIPT30eBvQWF+BfUe1CBFRr2wxYNCmh9msh66ume4vPcY2OTwSFa3RRHT/VNBXHsOx42p09dvhoiff6tZRG4S+tR2Nx47j0N79KD1aS+P12UgKE0Ixwpm7AjhFFwFLutoOoapBi66IaZgxpwC5vlXnhla1SRMwc74Af6HeqbzxHszMSkbCqR1j7chZhRA0H0d5Uw2OJRYgZ3IB0HkYx0vL0DRogmTqEqx88D6sSqNhgb/4Oj0PAiqw2r+/hIqdBcifNgs89VFUHylDXS91h5NmYOXDj2DVxEgkfDMO87zInD2o3v0p3j/yBlzUh6emLkdKiggymRaWTjU0JwxQq5RQXv8g1i2ZgXlJvoJsfyLnY+WNleg26fGHj77Eq7+swscLkzFzdhJizU7oS+tRcbQGvTGzcdc0K6aPNICksNAmcv46zMs6iN6d9NiZldBEr8WzS1KQfNZ4gPOQOAezVzrwS5Mam/70Jd55rhaf5MQid248cuNDQQ53QNdbBtmNL2LVunSkZEVAkrwK996/Hw2eIuw68k+83PAVUhakYN6sJIire9FykIaeXVbwJq/Ewxtoks2uu5Hi6xgZFdx2E2n7x21kTWEUKbz1p+SlMj89W37wdB4kFX9cT0RCAZnyoy1kW9XANz17fAGR3/wH8sbm7WTny/eT6/IFRCgUEaFAQPjZy8nyJ18lm0vaiMPlIWf82uk9e+t+Q55/azvZ/9oPyS1TBUQsGiovyFxA5m16mby1t3mofGCb68XTUUL2/e1J8sMNE8nUqSAiEd0euq0CAZ/ExmSRa69/hjy/tYq0a83E5T77iz1uF9E1lJGdr2wid8/kkzA5LSsU0n0TkKiIVLLy2ifIuyVHSNeg0bdfp/XsXfc78vvdLd6l58dNyv92J7l/No/wEguJ6vHPSSPdnjO2xtpPSNF5evYYHjex6NWkevv/kJ/dtJZMioun28rOg5CeMxGZNvVm8rt/lJKTWt/nKTQ0Iu1lW8nrT19LVk7iEz493kIR3T/6mp46i2x87L/J7oZGYnO5z9yeABnd0W80tLDrmtDSMwCnNBbRCcmIC6SV28FGdnWjqlUPWVwWkqKViHCexMmiv+P+Da+gYv0r+PPjy3FDlgA9vb3oPxUzyqjHU0UhLlIJlWJYZ4mpEV2H38T3bngepYufxbOPXI8HpsvR3dMNPQ21vQeBJkWh4ZG0PKsSRzjQ0mGmeWYf9IZ+Ws1aYaHbdOrIikRSKEIjoYyJRhT93nONuXDZzbAYtNBqe6Cn5d2+xlShUIKQkAjEJEcjVCaFiD2pBk44bf1QV7VCH5aE+LhIxCsv7FktvY30mOnQ65BDGJmKyYmhkLBp6k9Ba1EY1aht74NVHImo2AQkh59dzxO3C3ajjnrfAfQZTbA6TwW2PCgUEYiMj4cqPMQbipzCae6HQa9Bn94Aw2kdjBJJCJQR9LfiaBgnkYw40fPilfNY4GuPLCTyW/5E/lHS6VsRIGd45P8iL+4KxINxjBW+TTTCwXHVwQmZIyjghMwRFHBC5ggKrtxMQyPFQTPe7gYc+KoG+tTZmJefgszogLqjhnANwqJtQnFRFbRxU1GYm468hAuN9uIYK4wdIXNwnAcutOAICjghcwQFnJA5ggJOyBxBAZfsjQZOC6AuwXtf1mJQVYDJhdMwL30kt1JyjBROyOelH+oTTVB36Ycm6z4DKUTSCCjjEjAhIxwKIf+bMdYWLXDgOSz50Qdon7AR3/v+Y/jFyljfSo7RgAstzgm7vk/gi/9+Bj9YvRqr163DDTfc4LPrcN3aO7Hhjv/AM3/Yh8Md/TA43Bh2UwfHZYQTciBERyN6zhysX7/eZ/OwLI+PyJ5PUfyPJ3Dnwn/HWwcb0en7OMflhxNyIITnIHnufXj66ad99lv8+uXX8NKff4lfXyeDVb8df928H3uOjfg+eY5LBCfkQBCrEBIzCVOmTPHZHMxavALLN9yCW+6+Fasn9KFv3yFUVrSj21eE4/LCCfkiEIUnIm7WelyfL0Nsdyf6uvvA+eQrAyfki0IMvoDdDsSHJMCbVL/GQ5NDuxlGvQZadSfUHR3ooKZWd6FXa4Bl+CxL7I50mwFaTRe6dAYMWJzw2C3o1/aiS632lu1Qd6O7bxBW9piWcdYWxQn5orDC7epCZ6sb1pHONWHqQV/5VrzzH/fisSXzcM20aZhGbeHCVXho0wvYWWk4c/4Khwk4/BIeu2sN1j7+e/xpVy30FTvw/EMPYuXChd6y05bfhHU/eRXFbR6YAp95MSjghHwxUA/p6DyCAycc6FPFIIzdJOtbdX5aUfXVP/HS4y/j5S2DaE3JxdQ712DDrXMxNcGJfXv+iWcf+V9sO9IIta8E9bHs7k0MGvTQD9biePFmvPrM86iQyDBz+XJcM3UqEm161HzyLp6552V83kI9va/keIAT8rfE2teBE3s+x2svfIDirkhMWj4fMwrTz5xc8JyYYPNIwY9cgOsffRgPPP4YHvjeg9i48THct/FO3DXTjfYTm3Ggsg0tfiZ4M9QeRXNdI3oLvoNb77wb39u4EZt+8ANsunMZVkVTkR/8B4pP6NB9di9O0MIJORAGOtFbsRv/+te/vrb33nkL//fGB3jt/Ra4C27CdTcuwfzc+ADn9FUidtJ8rPj+Jjz59J2454a1WDaFXgjTV2D5uvV49LZpSAtpRkdrD9Q9Z8cIg/1uEOUEzP3+D3DHmjVYNGcOFtPXDRtW4o6FkeDxKlDToINW/y3mnhqjcEIOhK5y1G/5DR566CGfPYKnnvsT3ivrhmDKGtz0s3/D9bOykBnwcIpkpOQUYtF1E6Aym2HWamkSp0ZXVwe62Gzt4emI44tg6adJnZ+55ETZy5C99BbclkP/Pu0MRsQkIqdwIWTgobNbQ8ueNVd/0MIJORCioxFFvd7NN9/ss4dx35Ov4Ddvb8bmPb/Hr1crkfkt5p51UJG279+Pj37/e7z8n4/jqafuxYa7HsX8O/6AIs2A/9lGKXGqcKTF+gliFKGQxiVhCo8KWa3xTpwyXuCEHAjheUid+xB++tOf+ux+PHz3EqydmowMuRQyIQ8jeghRfwsqPn4Jzz66Grf/+Ck891YJikp5MJvjkZ+fhXu/ew2mhvqZDtcHjwqV2Vmw5XRD2EklhE1YPrR4PMAJORCEoZCpUjFhwgSfpSAtMQLRIWLvs6ZHNsWTAfXFH+KTt7dgdyWQtp4meU8+iE2P3of779+IjXdvwF3XTkacXHyZZmEPDjghX3Z6UF92EKXlepgybsRDjz6GRx+7Hd/97mqsW7cMC2dOQ56KDyP1rCN+dsk4hhPyZUcPg9aCAV4yQgtnY1EMDW2/dr1u70R/2uqTaHY6zn6sGsc54YR8pRg0waHuQQf985tGMiM0XSex+a2PYTaOzYfLXyk4IV92CjCxMA5ZyRVo+PwF3PzAb/GL197Ea6+8gt9tfAI//eEr2Je6FqnCkT7EZ3zDCfmyE4KsFRtw03duwrpYAyo/eQsf/OWP+Mvrn6CoS4LwJdfh3rV5iOWSvRFxWR+qPvZwwjrAhyJ5EnJmTMHccz6jYxis3cvtQD8/BlkFczCrYCKyor+ZhFsWEYeoqCQkqcIhV0ViQmICElMmIX/JNVhxPbWsUDjcSqTPXIipOSlIUbFJx+l3umzo50UjI38WZhdMQvbw57YRt3dycDuJwIT5S7G4gJaNOONRqEELd/MpR1DAhRYcQQEnZI6ggBMyR1DACZkjKOCEzBEUcELmCAo4IXMEAcD/A1ObkqUIfLJTAAAAAElFTkSuQmCC;" vertex="1" parent="WIyWlLk6GJQsqaUBKTNV-1">
          <mxGeometry x="360" y="170" width="63.39" height="61.26" as="geometry" />
        </mxCell>
        <mxCell id="4aZ6oCYho0JEhUslpmCS-11" value="" style="endArrow=none;dashed=1;html=1;dashPattern=1 3;strokeWidth=2;rounded=0;" edge="1" parent="WIyWlLk6GJQsqaUBKTNV-1">
          <mxGeometry width="50" height="50" relative="1" as="geometry">
            <mxPoint x="110" y="230" as="sourcePoint" />
            <mxPoint x="110" y="30" as="targetPoint" />
          </mxGeometry>
        </mxCell>
        <mxCell id="4aZ6oCYho0JEhUslpmCS-12" value="" style="endArrow=none;dashed=1;html=1;dashPattern=1 3;strokeWidth=2;rounded=0;" edge="1" parent="WIyWlLk6GJQsqaUBKTNV-1">
          <mxGeometry width="50" height="50" relative="1" as="geometry">
            <mxPoint x="440" y="230" as="sourcePoint" />
            <mxPoint x="440" y="30" as="targetPoint" />
          </mxGeometry>
        </mxCell>
        <mxCell id="4aZ6oCYho0JEhUslpmCS-13" value="" style="endArrow=classic;startArrow=classic;html=1;rounded=0;" edge="1" parent="WIyWlLk6GJQsqaUBKTNV-1">
          <mxGeometry width="50" height="50" relative="1" as="geometry">
            <mxPoint x="-40" y="130" as="sourcePoint" />
            <mxPoint x="110" y="130" as="targetPoint" />
          </mxGeometry>
        </mxCell>
        <mxCell id="4aZ6oCYho0JEhUslpmCS-14" value="" style="endArrow=none;dashed=1;html=1;dashPattern=1 3;strokeWidth=2;rounded=0;" edge="1" parent="WIyWlLk6GJQsqaUBKTNV-1">
          <mxGeometry width="50" height="50" relative="1" as="geometry">
            <mxPoint x="110" y="235" as="sourcePoint" />
            <mxPoint x="440" y="235" as="targetPoint" />
          </mxGeometry>
        </mxCell>
        <mxCell id="4aZ6oCYho0JEhUslpmCS-15" value="" style="endArrow=none;dashed=1;html=1;dashPattern=1 3;strokeWidth=2;rounded=0;" edge="1" parent="WIyWlLk6GJQsqaUBKTNV-1">
          <mxGeometry width="50" height="50" relative="1" as="geometry">
            <mxPoint x="110" y="30" as="sourcePoint" />
            <mxPoint x="440" y="30" as="targetPoint" />
          </mxGeometry>
        </mxCell>
        <mxCell id="4aZ6oCYho0JEhUslpmCS-16" value="" style="shape=image;verticalLabelPosition=bottom;labelBackgroundColor=default;verticalAlign=top;aspect=fixed;imageAspect=0;image=data:image/png,iVBORw0KGgoAAAANSUhEUgAAAHsAAAClCAYAAAB884IgAAAAAXNSR0IArs4c6QAAAARnQU1BAACxjwv8YQUAAAAJcEhZcwAAFiUAABYlAUlSJPAAACudSURBVHhe7X0HfFPXvf9XkiVbsiVbXvLGG2MbzDAzEAgJhIRAoJCGkDR7NE2a0fY1Tcdr+9KVvrR5/adJ2r70Nc1ezWgGmRAgEDA2GPDAe+8pW/LQOv/f71oihtjEBsnIsb8fDrq+urr3nPP9zXPvuUcmCJgi6O23oaNnEDa7QGSwH9S+CshlMue3X39MKbJtDgGrzQFusa9SDrlchqlD9RQje6pD7vycxhTANNlTCFPKjJsGbOjstcBOAVq4ngI0FfntKRSgTSnNHrQ4JLLbKCK3WO1SoDaVMKXIdhC7ForGB60OOCgyn2qR6bTPnkKYJnsKYZrsKYRpsqcQpsmeQpgmewrhvJPd19eHtrY2dHZ2wmq1Ovd6BiofOYL8lQgOUEFJ2+4eTuG2tLe3o6Ojw+NtORuclxE0vqTDQfnu4CCqqqpQW1sLtVqNtLQ0REREOI+aXOA2lZaWorKyEkqlUmpLcHAw/Pz8IJd7hwE9L2TbbDZJA3Jzc2EymWC326FQKBAdHY0VK1Y4j5pcYK0+fPgwqqurIZPJ4OPjg9DQUGRnZ0On00n7zjcmlGy+FJvssrIyiWzuICbahaCgIGRkZGDGjBleow1jxaFDhyQL1d/f79wDiXB/f3/ExMRIbWJNP5+YMLK7urrQ2NiIpqYmaZtN+OngzgkLC5O0W6VSOfd6N7j7jEYjDhw4IPnqkbqTCWdBZhcVFxcn/X0+4FGy+dRMKhPc0tIiFTbbZ7qkr68v5s+fL2kDb7sTfYN2dJsssDsEQnW+8HXDXS8OxI4dOyaZ7+FafTrYUgUEBCAqKgohISGSy5pogfYY2UwyazCX8vLyk775q8CdwuZuyZIlkja4E21GCghbzNKNkPRYLQIpKveRnz3ZHGT29PRg165dkksaS1dybKLVapGamiq1k7fdLdSjwe2OkYMvbjhr89GjR5GXlyeZubEQzeAO4w4c6/HnE6zV3d3dUpvHqjPcLv4N+/iCggKpn7i/WHA8DbeTzYEXN2Tfvn1SMDZesOTHxsZOmLSfCzjFYpPMaSPXezxg4aivr5d8PStEb2+v8xvPwS1mnKWSpZN9lyvKZmkfD7jjOFVJT09HYGCgR/JTd5txhqvtDQ0NqKiokAaHxgtuOwdtHJzOmzfPY77cLWSzf87Pz5ckdWBgYMwmzQWDwSAFZNxY9tMclbsTdqpOK8lec68VPZ19kA9a3Ua2CxycsfvhjKOmpkaKUcYDzsOZ5GXLliE8PFwSAHfDLarDfohNNpsii8UyJv/DjePBBh5pmjVrlpSHsma7k2gWuU4iuXgAKKRAucqhQDtZDJPGD4OQkVAOHecOsClnoU1KSpKsU3JyskTeVw2msGJw/7GScP+x0HjKf7uFbK4wV5CJZi3nwGW0oIVNs0ajkTTZ1TG8zfvcBe4qM/1XZwFKiOgiIpq3u6i5Rl8VuvzVqCHi2ygGHKDj3Mi5JMDcLhZg/mQtHS3+4D7jfhreb56E2wM0llKuuKvy3CAX6SzpbKZ5YIGHEZlod5LMsNClukibqwaBQ33ACSK7lwh16YogTeuXK1BkU6BwQIZ66t9eIt3mRsY5WOO4Y8GCBcjMzJRyas6xXUGcS5uZZNZo/hxJMdwNt5PN4IqzxHJDuDDh3FBu9MKFCyWiOSBx53gxd5WV/msgDWaSD5qBbiLdRfJIqKVj95Nrzafj2dyzb3c3IiMjJT/MgZdr3ICVgIM6VghPmeyR4BGyXXCRbjabJQmfO3euR8aHmaM20tB9RFwOkdw8DmvIGl1FpH9Gv80j0t1t1l1gQWfC+dOlABMNj5LNYMK5sCazyR5vPnomOIgVI5lgJom1mbWaffV4NJQPZcL5PJVk+vcS6ezn+TzuBAee3H7uh4kw2SPB42S7wIGZO802+9kKIodNMH+2kjYPUB+ebTcyt0wwCwyTXUBBXT1ts6a7C9x+dwr7eDFhZLsLg9T5TURsKRHMKRUTbSLi3cUJnQrt5L/L6bxFdH7W9o6v8P2TBZOGbDbNPcQEp1DHSJs5nWojEjxlEFmjpWvRdVioWkjAWPPZdUxWeD3Z3LdSOkVEHyGSP6cAjNMl3jcRYILLiOxPe4c+e+hvFrzJyLnXk82BE/vPT3qGomZOryYabML76b+jVA+O+Nl1uNOXTxS8luw+6kw2n5xKldKnK8o+XxrF1+Wonf05m3aO/mtI+CaTWfc6sllz2VdylM2jX5wzM9He0qdMuCt24LiBiecAzp0jcJ6C15DNJLPWSGPZVNhU8qjW+TDbXwWuEptxFkQWSL7JUk3ksxB4s3X3CrJN1EMNzo7jIIzz24kKwM4FTKwUwJFgclzBaVo7Seegl9p2ryC7gsjdR76ZNXoykDwS2AodJqnN67Wj1UIq7oXwCrJPkFbnUWfxQ0wyr4sixgalsKOooxuft3ShqZ8a5IXwiq5lc9hF/50gwnOpmKhWvM/bwZ2nEg409/Ti3dpW5Hb0wujF72rxGj1iw2emTmojlouI8ArappSWVJ3/8y5IVSKSO/v7sbOxAzltPagxDaCXiLZ5K9MErzKa3E2cwrRyakOkV1Jpob8tXkS4gmrZPTCIE129yG83oqjLhPq+QVgmQcLtVWQPBw+q1BLpFVSaqB+7qTjOI+ncUYM2G5pN/Sju7MHhNiK6u8+rNfl0eC3ZLnQS6cWcltGnkcimgH3C/blwOGC2WNHQY5LM9mHyzd0W8jWTDF5PNoO7tZ0Y3kd5bDlt91Ot3Xhr/Mxw2GHs78O/q5vwUWMXOga9M9IeCyYF2cPRQMznUX+XE/kDRLinSFeRb24zmbG7oR3v1neSJtthn0QmeyRMOrJ5+JSfFmV/XkylhraFm1rBcqNgV2Gx4CDly/tbulHV2w8jmezJTjRj0pHN4G7nNK3FSXYpfXYTSfZz0HIZndVqt6Gww4i8tm4UUpTdQFF2n50u8DXBpCTbBfblRuKinDaYdI7azUT4eKJ2PtRis6PVPIASSqdyW7txvMuMHuvkC8C+CpOabBdY0+uIGx6MqSXSeT6kRfrmzOCnPM1WK+p7zchr7cLupi4i2S690PbriFPI5iaeqXgC7jwv30SpIMLzqTTQ3+zLRzs/E2q1WrCfUqkPGzpQaeKk7usNiWyW8H6KNnv6rKOWXir8cvbhQs+b/EpnXlXHRr5tPArBAY/r3IPSePI4fvwVkG47EuF7Sb272Jc790twUFv7B7G3vhVvVLeiytT/tdXk0yGRze8YaeseRFmDadRS3mhCbVvfKR3D7+xmsqqazdL7SsbaaUysxeqQfsfnlt7u78Y4iE/FWt5LhU17Ie1op23joAWF7d2UL7dLUXaXxQrrJBjmdBeGNJsKE26lHh+98GS0L3cM9xV/Px7l4EP5eD4n/5b+eQR8HQ7geOjVTH/xOHs1qXnToE2KsqcQzxIksvmNQYEBSkSHqEctUcFqhAX6njKIwdv+vgpE6NVD62SNMQrm1bSUlNDyQmp8bq3GZ8y/HSu4YWoqEXTeSPrDh4jtVfhgwF8N/yAtfNXe8+bBiYLUWgX1NL/PMy5MM2qJDVMTqdRBw9jmbX8/HyLMD34qBZE/Nsb4MH53KBPN5w7UKKnj3cM2n4XfWRBIG9HUupkKIJY+/elvbieTHBiihzY4EH5EPL/hwJ3TkrwZXyvR5sbw20jCibs0+iONiA6g7dMbKSPSNVp/hESESaSr/Mhiudu0eCG+VmSHEF/pRPAsKvoxtEymkMM/UIvgiBDSdve/y8XbMOnJ5gZoqbAWp1IJI8J9R9Dm0cAa7aNSwV/HpIdCS/78fM609CQmLdlsdNkPsz9mv8z+mf20igp/Nx5IU2mVPvDVqBEQpENgqB5qf/fOJfcGTEqy/aiwBsdR7WdQiaDCkfe5Noa1XEn+m017gF5HnwFD/vxrEsBNKrJZz7TU75xKJVKJp6LzAA9MujpAIwVvWiKdo3Yf0vzJTvqkIJu7mKNsNtNsslOohFLNPW1kFRSwSQGcIVTKzX0oTZvMubnX15yJ5vSJg69FFCwbaHui30TO/lynD0JodDg0ugBJCCYjvJpsfkNaAtVwDhEdRZ/cxUz++cBQ1K6EjlI0vSGYSPefdFrudbVlMllzY6hmrM0chElRtvTt+QX7bPbdfhS1a/WB0IUGSRH8ZPHlXkU2D3MGU79x4OWKskcaATvfkFNK5uvnJ+XmHMCxX1eS1ns76V7Rj1wJXjXDQBtMchJptJ76zas9I9VP4aOQhl3ZtHN+zhrP/txbb6Z5Bdk6qkU8Eczj2eybaXNSgU07p2nBZNZ1nKZ5qS/3ilrN8wXm+1FlvNsKnhlCIMZXgexAX2TovCHC+DK8guxQUuWlFHqv1VIwRrbbRvsmzXMFVFGV1Yotage+G6LAah0FcF4qtV5Btg/1TQDVJIYUYjE572VUAs5nnjUWkCYHOOxY4mPFXcFyXEwNSPKVQ6fgRzO8E17lXPhuVQyF5Clk0rPUlGMT+f6k9ac8MOgFUAsH0hQOXEFCeTmlC8uokpFKmXQTxpvhVWQzuL/86L9Z5MczifAU+owgAeBpOefbtMscDkTLHchWObBOI7BeK8dsjY9kmSYDvI7s4QgnU76AfDmb9lAiXEtafj5SWTmJmT8clBbasdbXju2BcqzU+iCAJXASwavJdsFApF9GwdtFVPyI8InUcBn5Zn/S6PnCgl+S9G0MUpKlmRTd9iVMmlqzElGwiw06StNI00mxPO7L/Rw2LPSx4QfBwM3hvpNOk0/HpBJR7mtyk5If54idfbonxi9kdjsy5TZcQ5bk6kAFUinKDiLHPDn1+QtMyvoz4VHkw9Moap9HPn0Gkc++/FzNu4JMtoG0eQMJ0gaKspdr5Egkor01bx4vJoRsfpaLF1/lFW/cBa54MJn1DCI6g6N2Ij6ITPvZRO3sl4MpAFuoElhDUfZGkqZsjQLBPu7rHl4AxrWq3/m6NerRq0q3BH18pPW8eOlGXraQG+vOxcoovUUkkbyCtHEWER5OGk8KOTbCiWQNHRlLUfZSSqfYbG/RKxHCJtuNysyr/fBC6rxeZ3NzszQxgRVgou+SeYxsll5uFK94w2TzOtpHjhxBbm6utDjraCv6nQsyiOzVAfRJpp2V8kyEccN96fqz5VbcSCTfGuKDODLZ7gRrMws2C3lOTg4KCwulxdt4UVlezpEVYSIJdzvZXHkmmRvDjRreGG48r47Pywjzksu83pe7CWe+0sm0X05RezyRz29hOH3eIPvmSNsg7tIJ3BKiRKaGTIObwaRyWz/99FNp9WF2Y8PBms39w0s3TtQjy25ZZZdJ++STT06ul80Sy5o9mtS6BIKXMIyKipKWa+Rtd4LflMgv2uFlJ/gF8JVWIRWrcGAV+fgstRzR5AP8Sf3dabLZYrHJrqyslJZX5sVUed9oYAXgwsfw5+rVqz22frhbyGafxOa5trZWqvR4AhCtViut4sfLGEZEREhrVroTPMu4kfq6xiLQQ3/oFALJRLJBRcLoPMZdYPfEPrm1tVUinJdfHAuYAi6sBKtWrZL6gZXB3XAL2UwwmyxXAMJrR7OUjhXcSF6nkpcu5GWVubHuDmB6iWg+m7sHRrj7OMtgorn9TPR4187mtrLQs8CnpKRIAu+JiN0tZLvAqQWvDs8LhrvWgh4PuNFMekZGhkQ4B3beDO461l422WVlZRLJ4+lOFmaObbjNTPTMmTM9mpa5lWwX2FdVVVVJZayLpw8HN3jt2rWSlnszONJmjd6zZ8+400mOazhAS0xMlIq73ddI8IgY6fV6ZGVl4eKLL0ZYWNi4ok1X8OZOE+4psFByIMX6Mh6d4d8lJCRgxYoVkhXjxVgnAh7RbBc4/WBz3t3djdLSUilo4X1nAhPNyy+ztLOJ82Zw17EZ51SSY5av0m52S2ytXARz+yYq7WJ4lGwX2JQz0Ry8NDU1SaZvJLDEcwq2fPlyKWDxpP9yF9hFcbsOHTokCfVIFokJDQ8PlwJQzjzY2p0PyzUhZLvAAQzn4kw4awJHscMvz9KempqKtLS0CZX4cwUTztrN0fjp6RaTy9rM4wlMsify57FiQslm8OV4EIajdtZwDuZY81nSOQJftmyZ1CGTwWcPR11dHYqLiyUtd/lyjl14gISJnii/fCZMONku8GU5NTt69KjUQezPuGPYX09GsHbzsGh1dbUUaRsMBixYsMCrXNF5I9sF7iTXIAT76cmm0cPBJpyDNHZBrNneFnOcd7IZrjx8MgRkZwJ3JRcWWG8UWq8gexoTg8mtStMYF75CsztRl1+M8rJGjJQZq9VBMEQlID4tGaEaOplz/zS8E19B9iG8fO+v8Ocn3sMBPz/oht2YsFrN0OlmYMHyrdhy+w24KDsFEQEyTNJHqqcExkb2KzmonJOFjYkJzv1AQ8MeFBaeoFRDICA8AVv/UohfXOSHWJ3zgGl4HcZG9gdmOLbfj9fvyHbuZ83ug6X9CHLeeRm/+e0u1F30O7zy2GYsS9BLb1GYhvdhbEZX4QeVf6g0UOAqMTEJSMxYjcUXrsWVC/tgOvgejtT0oGN8t7CnMYE4Nw+rDII+IgELZhsg72pEh8mKAW+bXzuNkxibGf/YDp+bf4Zd31/s3O+CBR1Fn+DDR36AG56ZgZ9+9Di+tTQBCX7Or10wt6CkoBxldU3olCYK8JsCQ6CPT8Wc2ZEwBPp+6dVXfW3VqK2sQ2VDG9qlETa+MRKM4Mx5yE4ORYRu+BOh1ARTK+qqy1FX1YSWrj5puSe5XIHg4BmITE5GfDRdz//U57rM1Z/jUJERtpBEpM1JRczpd1R76PplxcitsyJ+0XpkGQBf6f6MES2lJSg62oy2hGxcOTcAvSUFOFregAZrIAzxs3BBdixOPo7Q34X2pmrUVNaiqdFIOY4TgYGISZ2NtIRERA3vs752VJdV4URlPVp7pZZQCYY+NgWzMqIRG67BWd1OYbJHR4546Z6NYnn6erHqkQPOfV/AZq4S+W89JG7L1IvAuJ+IZ4uaRJvzOwm2QeHoqhTlO/5XPLh1q5iXkCGiI+JEYkyyMESuFBnrfyv+8OohUdDSI/qcPxF2mxDGGrHr+d+LH2y/UiycPVtExEWL2OhIERYwR6R/7z3xYXG382AhHNZ+0ddYIPLf/Zt45O4tYsvcVJEVEyniEmNEvCFSLM5cL2790RPi9c9KRXOP1fmrIdS+eIvYtHCZWPPtv4i3G507h6PkTfHsf1wkQpMXiLs/EKL9ZCWLxO6/fFdsiMwUofe9KyqKXhcvfv8KsTQ+WCBqlbjwe2+KKjrKwYf2NoiGfa+JF355k7hxRapYGBEh4lJTRRx9RsyZIzb/9zPi7To+kOCwU9vrRM2uF8Tvb7tBLEmeIyINcSI5Nl6Ehy8RaRf/TPz0f3eL3NpOYXL+ZDwYmxkXdjjsFmns11UGSENbDu/CZ2+9iBfaQzH/+9dhWXgwTj5IJBxw9DbC/PF/4Ye3/Rj/eK8SgTMuwb23PoDf3ncDNm2Uoe3gb/CjbT/Hn1/KQZlzsRlhMcL62cP40X89ij/lV0C+fDlueuAefO+etbhmSRV6ehpg6neuwUXXGGyvxIl/3Iwrbvw+fvL3ShTrs5F976144Df34d4rNyC05QD+/Yfv4oePPoNnD7bCOr4npM4MMooWUwf2/fFWPPyvnTjWZkGARg01qT/P6YbDisGcv+GJB3+Mn/zqRXzcqULMzTfjgccewwM33YSbExMR0+eD7m7pZBT1mjGw71H8/vs/xp+fOwRr0GLcceMD+OMPvovrtuthqXwSv7/zZ/j1ox/iOD8rPV44SR8FTs2OihNxG7aKBx544GS5YdUqsdgQIhJSs8X6e/8l6jsHhNUuyfIQTJWi+qOHxJXhOqHf/Ij4/QfHRWlzpzB29QizsVt0tNWKus9/L26cP0usvPa34vH97fSjfmFuzxHPbIkQiUGXidv+9LbY19EhunqMosfYLjpbakXOsV7R1kXaL12jQlS8/wtxuV4jNFn3iYffyBHFzW2i3dglesz0m4420VK3X/zthnliyYxAsfi6n4mn8od+yjhnzQ7UC9XKy8XqldeIR57dIw4U1orahhZBbkRYrb1CVD8tvrc8TST4Xii+cf1T4oP8RtHaRXXr7xc99NnV2io6u03CZKFTDrSKvsLHxS0Z0SJq3YPiey/liIKmDtFN/dVH7e/sbBENuU+KB9YvESsuvUv85wfNQ1UZB8am2R0taNm/C88///zJ8u6hBsjmbcOtD/8Zv777IkQFqeAz7Gn7/vYmVOXmYW/HStxy+zpctjQV8QY9dEFaaHSBCA6JQkzWalyQqYG9sYRy9ip0kHQLYYWp1wy73RdaXQhCgoMRpNVJ2/rwWMxOCYCeX8FA6KgpRs67L+GAKQVb7tyGi5dkItkQihBdELQa+k1wCMJj5mLjrddieVo0OkrLsDO/RPqtW2CmWKbSjtm33IdLLlqArNRYxEaFIzxIDbvZiLxXHsWeymqEblyPtd/agKVpkQgLorr5+UFLn0FhYdAH+oNDCYupG/Wff4zPmuZi/dZLsWVNJlIighFI/aWm9uv14YjKWI6Fc8IQYK5G/qFitFAVxqPfY5v3ok9C7OJLcfdFM6Q/jdX52Pv+EbTWdaGxygL/TXpp/xfoQ1dLFY4dyEWX0CP/pT/B+L5GevHsF+Bq9qD8aAMqW0MQUdVIlZ+LJGUY0mbHQ3O0FLs+eg4qvQlr5i/G3FgdhSgA9ZMTfehpb0DZsWb0ytdh/pJ4RIaoT2sQC58ahrlzkRIVCf/STjRSkNSJmTi9xmcFnwAow+ZixYp0zDBo4Hfy4hZYB1tw4mAJ2gKXYcOlS7AsOxzaUaOqAZiN9cjbeRDtA0EofPfveOr4G3jF+e0X6EXtoRMoqdIj4kQNGmlP+NAXY8LYyA5OQMyKq3HvvUPReFdlHuYEPoGnXs7Hu6+8irALkvCT7Mhhmk2VJ1/WWNNMnNpQvW8PGkYdR9WT9OphUJNWU3WUfpGYvfFWbOp+HTsOf4S3Hm9AaXYRFiWnIjUpHYuzoxBGqqBEN0zGdjTUUBxvSEJMkBLq0SZRBBgQFqZFqLITgz0mEjEgaOibc4NGC59Zc5ERrIT/KT3ZD5ulAVXF5NMD5iMh1kCWz/nViCDfPtCF2oom2G1W1OcdQNeJ0ajxgW+QAbEB3F/jw9jIPg36xAXYdP1mtJsbcPhfH+Hvf83ElvhbkBKicKYmLvDEvjlYs3U5YkM1Z3izcDBS5s4AZTaQ+wYg9MJ7cH9IKGb83w58eLAUZW89hZwOLQIXXonb7r4C6xcnIj6ItWcAJpMCMtJ6f4X8DI3RQE0CoqZcaGwTcsYIX0ohI8IQSkJ+qpxZiLQONFcJWFOdu8YEVog0XLBuOTJSQ6TlMUaGDpEJKYhy/jVWnBXZEhKXYNGSXFy1aw+effd3+N2ab+JXl+kwI5DnUPGkPjnkCh/I5FGYff3t2DzTIL1leKwIy9iOO/6wHduMNTi8+xW8+D8P47WdP8L3a1rg+MMduO5iMov6UMTGDUIUVqCh34p+EnVeVuJLcLSgrcGE9hY5lArFae9G5TVEqYwQpTs4ozirtSO5/Sr4+skgoyzGZrMPLUE5avv5YQc5FDzPWBaOmZu245q1mUg8taLnjHF0/+kIRvqKS7Hphqswo6cXr//teRR3dMEsfRcITUAoouOMFHC9is8PUUefHEkYH3S6GCxfdxd+9bcd+OvVPohu+gxFZc2o6QmCvzYUUUy2qEB9oxV9ow3VtjSj1dSLNn5zcJQB0bTri4bXoMvYhOahCainwNjVgY52ckXjhh5+/gtx0RY5tK37UVzWiOpTZ+yeBn8SjAjEJVnh4/MOjhxvQR07ZDfjHMgmsxk8G0kLLsFVy7thPfwH/OXNAhTW8QiZDKHxM7Fkw3akO/qx81d/w67dFWjkwaDT0Fa0GwUl5aiWck2eWAA0UkMtztXOZTIFlCoN/DnCpgBHTrkrL99sd/A10rDkis1Isx/Bc4+9idyyJpw6pY7VqQmf/vM57M5rR1jafGy+JONko8MN/NSnBiVHC7Hrk/1SdHsSHfux64OdeOP9WueO8UBOgWQgLli9nvLuRrz3+g7s2FVA2cZokCEgNBLLtt2JORolDj/xMj7+92FUOftkOLoqc3Gi8ChOjPzo/Rmh+AXBuT0CGlH4/h7kVArI563EjctinPudkJOpIl+oCzKh9OW9KGqIwIwFSUhIDIGOCPLTBELbdgAfHylHZXULqppr0NRXi67OGpR/vA9vPfUUXnrjIBo15K+TExHjb6EUpBqfPfFzPH2gGkeLmmGqq0dz5RF8sPctPPv6fpTEXIWrr1yFlTPDoNPQNcgR+7fuwfuHSlFRXIfSmkrU9wxdo+yjz4au8e9d6EpagTXbrsFVSxNBsZwEH0oPmguPoLLgOE40taKm14IecyuaD76NnS+8hJzjjagZUKHLoULm+tuxipIR4oLQjpq8XOzfXY362etwF32hUZ1qc2VyBdQh8VAZj6OoqBjH8ytQXlaDis5qmMmtVO05iLyPX8DhZko1A1IQH+wLdVA0/FoO4WBBKYrKKcBrrEcDpVk9/bS96wDe++czePnVT1HcH4jQjNlI1DovNkacG9kEH7UaAeQ7Ffm7sOt4E9oj4hETH4uZoUFQakIwI0oNs7ULreVHcLzoMI6XFaLk+BEc+nAvDudWwBaRgszliylHjUawygFLfweOv/UEXtmRj9y8ApQVHsaRwlzsrqpEh2IeLth+I7atmIlU6hzpbpwmGHFRfpS6NKO+oIpMYD6Oleaj5Bhdg8g+klsP38wLsfqaa7FhdTbS9MPCxADK+5U2yuKaiYgT2Jt7AvWVZJ2KK9FsC0NiUjQC1QMoaBwcN9mQUziki0VimAoKq5HaX41j1J7ckjxUlhcg54M9KDxWDHPQLESTxUkNpWDPLwzR4SqKzXvRXlOAouM5OFJahPITx6TjD+eUwOQfheQli5GdlYTwcQ6QfwXZZnRUd8CsikDsgkVYkz7SrEoeTNEhKqwb9XaSUm0yUmPjMCdGR4pP5ncG5chJ4TDozGSsiMw+BWx9lDb4ByB92QZs+85VWLskjVIJJoE7TA2HjwyKjh44ZAPok9sw4OePkLRF2Lz5Ztx8JXVMGOW30rXZuPjDP34RXYMCQB1F/5TqWfooKOJoLUCLjAv4Gvdg44p5SBpOtAQ/hCalIiLagADqYnv/APz4DQhxy7DiutvpN0mIVprQKTcge9XlmB/huhEygN7WLnT1qKDNvhCb5hqkJaVHgl/kbKQmzkBCuJZ+KzDQNwBbjw02HxVljBdi8bJVyM6Igp5Cb8kaxMxDemI04kKsUMp4WFoJm8kOm8oXKdmXYNPNV2HD2vlI0Y3/VshX3PWaxtcJ5xCgTWOyYZrsKYRpsqcQpsmeQpgmewphmuwphGmypxCmyZ5CmCZ7CmGa7CmECR8u5TliPV2NaKkoR2NNJzptDgzdzVRDpQqSFi+NSkmGwRAAnUpx2hMg0zgXTCDZVpjamlBTVYQjx/cj799vIn9fKyqFHX1yK2w2fyiVcUhITsGyrdtw2VUXYEFUoLTizzTcgwki2wGbtQ57n/gl/vr4P/FajRJ+Kj/MzfoGUlI08PdvRmdnEUpKqlFc5AOHLQN3vfQUblmTgfTpKcBuwwSQzafPwTO//TWefu5TVGiykH3D/bjvigWI9+XHb+WQy+2w2y1k4k0wd1Qh53/eRPf1P8Tq+UnTZLsRHidbOOwoeG4rfv7Ep6g3fAOXXP1tbLsoBcmRQeSlqQJDhzlhJ602o7OsHv2GeOh1mqHVdqfhFng2Gh80wlH8Kp587gA+dyzG3Eu+ievWLsQcIponDHz5QVAF5D46hM5KR2zwNNHuhkc129pZiYYXb8RFv6yC35b/xE9v34xr553NO8T70W+sRd5rn6EyfhlWZIUj2FyPksISHG21QRGahXWrUxCuUQ09G20xo6+jDuWlJairbEe7M+LXaIJhiE5CbGoSUiIDIB/2rjJrTxNaSg7h/aNA1rqLMNOghW54KiAcQHMe3j9YDkvIbKRnZiKZp5UIG2Aqx75PjqLKJxbJ6cmYq+9DQ/4RFFd2oN0hKDQNhH9oPBLSkjB7VsgXU3knGky2Z2ATxtpD4pXtMhERebG4/9kcUdDj/GrcaBEtpU+Jb/soRPDWJ8Q/3nlNfPzYneLaBbEC/tFCtfIxsbOhW5rGajE2iNq898Sbjz0o7rp8iVgZGy3SUmeIxPgYkZmQJdatvUM8+PhbIremV5gt9qHTE0zlu8UHDy4TMtky8aMdVaKs1/mFC7ZBIXY9KNbRNZfe/kfx7HHX/j4hKv8q7sxOFIYV3xa3Pf6qOPTGf4v/2rpKXJqcJNISo0RYWIqInb1dXPXgy+LdkhbRTz8bNgVywuBBM94Hi4VSrXIZbPFLkZYQiqhxPg05IuwDKHjj/+HpF57DO5V9CAnWIzjQD0q5DDKHBa05L+Kp39yLrf/xNF7OD4Hyii247qF78cN7b8PlMyPQffB5PPmft+Pb/3cYxU39IKV3H2zNOPHxi/j7n/+Jv4tFmHn/D3DnD2/Apk2BCLS9iXf+7yHc87M3cWLADssE5ECnw4Nkm2Hpb0JFPplI5zPgbkHtq/iozICo9U/ijb1FKMrbhWNPX4tF4Vqo23bivTc/xusH9Ui/+iHsyH8WL/7uIdy38Q586/bv4acv/BV/ffnXuC22DcWPbsb/7CjF0VMeFj9H5O5AdTfV4+aXcOipn+KhG6/Hrd/6MR555H384+f34I5ZJ9By4En8+NlatBndt2rhWOFBsnn6rZ3ya3YVzl0joPiV+/HgjaukJY6Gl5sf340D1SOs3VnSj+SVV2Ll5nVYmBKO8LBQhOnVUJFml+76Fw7kV8M3/UJcf/tGZIbpEaLTwd9PQ/46AFp9NGbOX4nt916PWZZe7D5Afrb5LJ62Hw1hyzB/+eXYtjYFYUHk8zVD19XpQpCxZiPWfWMbFnW14fP39qHaTHGI82cThfM+Nq7gR34HhxYyc/RTB1RXY9/evcgtb0NnHwU/pyMoHZlZ6ZiVRIHOySeDWZo6UFdSjcYmFXQRScjKCpMmxp0a8fvAV29A7KJspCkUFFdVoaXL6Jyy5AZEJiE6MQWZoV+ewqgOjkdsymykRdrR096Jfjulmc7vJgoeJFsFhVKL4AgitLMb5gHLiDMoDXM34Yrtd+Guu6jcuh03rUmFSnmGMdLkdMyI0MPwpcemG9FS249uaygCwsIRMdrL2Hz84BMUg6RIGfz6Tei3WOB8ace5Q6OGr8bvtHnoLvhC5auBLsgONHWix2anKH1i4UGyeWpODDIXB0LVVoTSmlY09Xy5eYFZq3DBhqtx9dVUvnEpNq40QOkz0lRMJ0KDpTcXfHlifx/6TdSBMl8oNb5nmO6qgEyuhn+QTJq0MXGwkUsbRF+3A6KLhIws2Qh2y6PwINlqaHTxWHb5IgT7H8Cuj3OQe7TdQ+9JY+GIRmSCGkGOdvQ2tKF5tOuIAdj6G1B5woFBqw/l2vJhncBCMwibXYDS4y/BRgEIJU3Ov0aAfcgdjXhphxGm7jbUNaggm5OIKF/VKBbAc/Coz1YFBWMGT6PRBmLgtWfw/vt7sP8sp+6eGUNkh0epodO3w2RqQfNoM20HKN1qrEMFsTkQG0kBnP+wtzCwQc9HXeMAzKfFhkxyY301+vtHCBpdaO1AT1snWp1/ngJjN0xtbahRKYGUeETxSsTOryYKHiUbMn8ofFfh7p9uRHJqL3b+4zE8/LPH8czxEbvjHCFD+sWbkZ0eia7Du/HPv3+CBtp7qpaZ0Fyei3/94R84YknF5vVLkJEULomKWu2PiKhY2rLjo9few7HqOul1HBIsnbBWv4JHnzyE8uqTe7+Mug9RnPs2Pik+PcLvRNGeD/DuK7vRFjQX919/AYID1acFj56Hh70W+0c9Yi67A9/pk+GFp3fj2Nt/wZ9qD+DTiFmIizMgMpLX0yCpb2hAE78FseEY+gfPzpv5J16KNZeWoLxlB/79/H/j/tqDSF9kwOwMA7RdfWjJL0DugZ04WNiDzO/8CNtXJCPFOdlPro9C6IK12J78Nt459k88+RcjSoqzkKW3QFV1GMf37EFbQDwc6hEmmbsQ6IOWgr3Y8YseNGVfiNmz0yHvKEXF0c/w+f5PcNyoR8qWm3BLViCCxj8v75zxFbM43QGS34BIxESFICYiCFrlIIwNhdifdwBHjxahsDAPR458joLDR1DZYEJX+AKsXbUOl6xdjSUzDQiV3kxjhrmzFJ8+/g4K0y7HFctnISNqhBFmJXWinvJajQPmljqcOFCMgyW5KCs9hiN7P0fevkI09wUgaf212H7LNlyYGEKd7jRuSl/4aEkwtVZ0t1bicEEZ1a0I5WUlKGsm0x82D5fM1+J4WTV84pdi4eKlmMOvKuKxceMxvPvqPhRr0pE6ayayFY04kLMXh46X4uDeD7EzrwJtvjHIumwLtl19JVbN8IObF/sdEyaA7CH46mKRMCcLc+alIN6ghSbUBo1GB51OC602BLFJ6ci+eB0u3nwDbrrqGlwyLwLhJ99PSpHsoAltFb3wXXwxVs+PR1zwyB5PFRSLqBkzkRkfgkC1kmImO3ysfDfND4bkTFy4YTuuu+1WrIqnOpwyzVYBpV8Q4rIXIkQlh1Img4YIUQdGITh7Pb5BqeHlUUZ09CsQNWspsmfPRDyv7z6c7IClWLP1anz78iSYjRVoMA5ARulYUNZyrNx0Da7bdCnWprvlpVxnhQl8LOlrCns/UPssvvPNh/G6ej22330n/vjNWc4vvQueDdCm4VWYJnsKYZrsKYRpsqcQpsk+V8gUlOAnIfvSDdh8yQLMi/Pex2Gno/EphGnNnkKYJnsKYZrsKYRpsqcQpsmeQpgme8oA+P/UkKk9bgubYwAAAABJRU5ErkJggg==;" vertex="1" parent="WIyWlLk6GJQsqaUBKTNV-1">
          <mxGeometry x="500" y="223.42" width="63" height="84.51" as="geometry" />
        </mxCell>
        <mxCell id="4aZ6oCYho0JEhUslpmCS-22" value="" style="endArrow=none;dashed=1;html=1;dashPattern=1 3;strokeWidth=2;rounded=0;" edge="1" parent="WIyWlLk6GJQsqaUBKTNV-1">
          <mxGeometry width="50" height="50" relative="1" as="geometry">
            <mxPoint x="20" y="260" as="sourcePoint" />
            <mxPoint x="20" y="10" as="targetPoint" />
          </mxGeometry>
        </mxCell>
        <mxCell id="4aZ6oCYho0JEhUslpmCS-23" value="" style="endArrow=none;dashed=1;html=1;dashPattern=1 3;strokeWidth=2;rounded=0;" edge="1" parent="WIyWlLk6GJQsqaUBKTNV-1">
          <mxGeometry width="50" height="50" relative="1" as="geometry">
            <mxPoint x="530" y="210" as="sourcePoint" />
            <mxPoint x="530" y="10" as="targetPoint" />
          </mxGeometry>
        </mxCell>
        <mxCell id="4aZ6oCYho0JEhUslpmCS-24" value="" style="endArrow=none;dashed=1;html=1;dashPattern=1 3;strokeWidth=2;rounded=0;" edge="1" parent="WIyWlLk6GJQsqaUBKTNV-1">
          <mxGeometry width="50" height="50" relative="1" as="geometry">
            <mxPoint x="20" y="265.12" as="sourcePoint" />
            <mxPoint x="490" y="265" as="targetPoint" />
          </mxGeometry>
        </mxCell>
        <mxCell id="4aZ6oCYho0JEhUslpmCS-25" value="" style="endArrow=none;dashed=1;html=1;dashPattern=1 3;strokeWidth=2;rounded=0;" edge="1" parent="WIyWlLk6GJQsqaUBKTNV-1">
          <mxGeometry width="50" height="50" relative="1" as="geometry">
            <mxPoint x="20" y="10" as="sourcePoint" />
            <mxPoint x="530" y="10" as="targetPoint" />
          </mxGeometry>
        </mxCell>
      </root>
    </mxGraphModel>
  </diagram>
</mxfile>
